{
.appVersion = "3133";
.formatVersion = 3;
axes = (
{
name = Weight;
tag = wght;
}
);
classes = (
{
automatic = 1;

glyphs = (
{
color = 4;
glyphname = A;
layers = (
{
anchors = (
{
name = bottom;
pos = (300,0);
},
{
name = ogonek;
pos = (643,0);
},
{
name = top;
pos = (300,686);
}
);
background = {
shapes = (
{
closed = 1;
nodes = (
(47,0,l),
(117,170,l),
(479,170,l),
(550,0,l),
(609,0,l),
(325,686,l),
(275,686,l),
(-9,0,l)
);
},
{
closed = 1;
nodes = (
(296,612,l),
(300,612,l),
(459,219,l),
(137,219,l)
);
}
);
};
hints = (
{
horizontal = 1;
origin = (0,7);
target = up;
type = BottomGhost;
},
{
horizontal = 1;
origin = (0,3);
target = (1,2);
type = Stem;
},
{
horizontal = 1;
origin = (0,6);
target = down;
type = TopGhost;
},
{
horizontal = 1;
origin = (0,6);
target = (0,1);
type = Stem;
}
);
layerId = "1B515DD0-5446-4609-BD2C-839EAA0AE6A8";
shapes = (
{
closed = 1;
nodes = (
(76,0,l),
(296,612,l),
(300,612,l),
(522,0,l),
(580,0,l),
(328,686,l),
(272,686,l),
(20,0,l)
);
},
{
closed = 1;
nodes = (
(481,170,l),
(481,219,l),
(117,219,l),
(117,170,l)
);
}
);
width = 600;
},
{
anchors = (
{
name = bottom;
pos = (297,0);
},
{
name = ogonek;
pos = (627,0);
},
{
name = top;
pos = (300,686);
}
);
background = {
shapes = (
{
closed = 1;
nodes = (
(142,0,l),
(289,475,l),
(294,475,l),
(441,0,l),
(659,0,l),
(430,686,l),
(169,686,l),
(-60,0,l)
);
},
{
closed = 1;
nodes = (
(492,122,l),
(492,267,l),
(100,267,l),
(100,122,l)
);
}
);
};
hints = (
{
horizontal = 1;
origin = (0,7);
target = up;
type = BottomGhost;
},
{
horizontal = 1;
origin = (1,3);
target = (1,2);
type = Stem;
},
{
horizontal = 1;
origin = (0,6);
target = down;
type = TopGhost;
},
{
horizontal = 1;
origin = (0,6);
target = (0,1);
type = Stem;
}
);
layerId = "2883A7C2-0A22-4F0A-A898-75B9BDC585A4";
shapes = (
{
closed = 1;
nodes = (
(197,0,l),
(289,525,l),
(294,525,l),
(393,0,l),
(600,0,l),
(433,686,l),
(165,686,l),
(0,0,l)
);
},
{
closed = 1;
nodes = (
(452,122,l),
(452,267,l),
(140,267,l),
(140,122,l)
);
}
);
width = 600;
},
{
associatedMasterId = "1B515DD0-5446-4609-BD2C-839EAA0AE6A8";
layerId = "26F5AAB6-2055-4371-9743-1825ED82AB6B";
width = 600;
},
{
anchors = (
{
name = bottom;
pos = (299,0);
},
{
name = ogonek;
pos = (611,0);
},
{
name = top;
pos = (300,686);
}
);
hints = (
{
horizontal = 1;
origin = (0,7);
target = up;
type = BottomGhost;
},
{
horizontal = 1;
origin = (0,3);
target = (1,2);
type = Stem;
},
{
horizontal = 1;
origin = (0,6);
target = down;
type = TopGhost;
},
{
horizontal = 1;
origin = (0,6);
target = (0,1);
type = Stem;
}
);
layerId = "A193C231-D910-4739-84D4-C6814F8A1DBE";
shapes = (
{
closed = 1;
nodes = (
(130,0,l),
(293,573,l),
(297,573,l),
(465,0,l),
(589,0,l),
(375,686,l),
(224,686,l),
(11,0,l)
);
},
{
closed = 1;
nodes = (
(468,149,l),
(468,240,l),
(127,240,l),
(127,149,l)
);
}
);
width = 600;
}
);
note = A;
unicode = 65;
},
{
color = 1;
glyphname = Aacute;
layers = (
{
background = {
shapes = (
{
closed = 1;
nodes = (
(73,0,l),
(143,170,l),
(505,170,l),
(576,0,l),
(635,0,l),
(351,686,l),
(301,686,l),
(17,0,l)
);
},
{
closed = 1;
nodes = (
(322,612,l),
(326,612,l),
(485,219,l),
(163,219,l)
);
},
{
closed = 1;
nodes = (
(357,750,l),
(468,892,l),
(468,895,l),
(403,895,l),
(307,750,l)
);
}
);
};
layerId = "1B515DD0-5446-4609-BD2C-839EAA0AE6A8";
shapes = (
{
ref = A;
},
{
pos = (54,0);
ref = acutecomb.cap;
}
);
width = 600;
},
{
background = {
shapes = (
{
closed = 1;
nodes = (
(197,0,l),
(237,122,l),
(455,122,l),
(496,0,l),
(714,0,l),
(485,686,l),
(224,686,l),
(-5,0,l)
);
},
{
closed = 1;
nodes = (
(344,475,l),
(349,475,l),
(407,267,l),
(285,267,l)
);
},
{
closed = 1;
nodes = (
(419,751,l),
(545,893,l),
(543,896,l),
(392,896,l),
(301,751,l)
);
}
);
};
layerId = "2883A7C2-0A22-4F0A-A898-75B9BDC585A4";
shapes = (
{
ref = A;
},
{
pos = (54,0);
ref = acutecomb.cap;
}
);
width = 600;
},
{
associatedMasterId = "1B515DD0-5446-4609-BD2C-839EAA0AE6A8";
layerId = "26F5AAB6-2055-4371-9743-1825ED82AB6B";
width = 600;
},
{
layerId = "A193C231-D910-4739-84D4-C6814F8A1DBE";
shapes = (
{
ref = A;
},
{
pos = (62,0);
ref = acutecomb.cap;
}
);
width = 600;
}
);
note = Aacute;
unicode = 193;
},
{
color = 1;
glyphname = Abreveacute;
layers = (
{
background = {
shapes = (
{
closed = 1;
nodes = (
(73,0,l),
(143,170,l),
(505,170,l),
(576,0,l),
(635,0,l),
(351,686,l),
(301,686,l),
(17,0,l)
);
},
{
closed = 1;
nodes = (
(322,612,l),
(326,612,l),
(485,219,l),
(163,219,l)
);
},
{
closed = 1;
nodes = (
(437,760,o),
(516,822,o),
(516,884,c),
(460,884,l),
(443,829,o),
(388,809,o),
(323,809,cs),
(258,809,o),
(203,829,o),
(187,884,c),
(131,884,l),
(131,822,o),
(208,760,o),
(322,760,cs)
);
},
{
closed = 1;
nodes = (
(333,884,l),
(444,1026,l),
(444,1029,l),
(379,1029,l),
(283,884,l)
);
}
);
};
layerId = "1B515DD0-5446-4609-BD2C-839EAA0AE6A8";
shapes = (
{
ref = A;
},
{
pos = (1,0);
ref = brevecomb_acutecomb.cap;
}
);
width = 600;
},
{
background = {
shapes = (
{
closed = 1;
nodes = (
(197,0,l),
(237,122,l),
(455,122,l),
(496,0,l),
(714,0,l),
(485,686,l),
(224,686,l),
(-5,0,l)
);
},
{
closed = 1;
nodes = (
(344,475,l),
(349,475,l),
(407,267,l),
(285,267,l)
);
},
{
closed = 1;
nodes = (
(460,761,o),
(537,810,o),
(537,890,c),
(442,890,l),
(435,861,o),
(403,847,o),
(344,847,cs),
(286,847,o),
(253,861,o),
(248,890,c),
(152,890,l),
(152,810,o),
(226,761,o),
(343,761,cs)
);
},
{
closed = 1;
nodes = (
(401,890,l),
(527,1032,l),
(525,1035,l),
(374,1035,l),
(283,890,l)
);
}
);
};
layerId = "2883A7C2-0A22-4F0A-A898-75B9BDC585A4";
shapes = (
{
ref = A;
},
{
ref = brevecomb_acutecomb.cap;
}
);
width = 600;
},
{
associatedMasterId = "1B515DD0-5446-4609-BD2C-839EAA0AE6A8";
layerId = "26F5AAB6-2055-4371-9743-1825ED82AB6B";
width = 600;
},
{
layerId = "A193C231-D910-4739-84D4-C6814F8A1DBE";
shapes = (
{
ref = A;
},
{
ref = brevecomb_acutecomb.cap;
}
);
width = 600;
}
);
note = uni1EAE;
unicode = 7854;
},
{
color = 1;
glyphname = Acircumflexhookabove;
layers = (
{
background = {
shapes = (
{
closed = 1;
nodes = (
(73,0,l),
(143,170,l),
(505,170,l),
(576,0,l),
(635,0,l),
(351,686,l),
(301,686,l),
(17,0,l)
);
},
{
closed = 1;
nodes = (
(322,612,l),
(326,612,l),
(485,219,l),
(163,219,l)
);
},
{
closed = 1;
nodes = (
(219,760,l),
(322,837,l),
(425,760,l),
(485,760,l),
(351,885,l),
(293,885,l),
(159,760,l)
);
},
{
closed = 1;
nodes = (
(363,919,o),
(411,957,o),
(411,1008,cs),
(411,1058,o),
(376,1084,o),
(328,1084,cs),
(310,1084,o),
(291,1081,o),
(271,1074,c),
(271,1035,l),
(289,1042,o),
(308,1045,o),
(323,1045,cs),
(351,1045,o),
(371,1033,o),
(371,1003,cs),
(371,975,o),
(348,955,o),
(308,952,c),
(308,915,l)
);
}
);
};
layerId = "1B515DD0-5446-4609-BD2C-839EAA0AE6A8";
shapes = (
{
ref = A;
},
{
ref = circumflexcomb_hookcomb.cap;
}
);
width = 600;
},
{
background = {
shapes = (
{
closed = 1;
nodes = (
(197,0,l),
(237,122,l),
(455,122,l),
(496,0,l),
(714,0,l),
(485,686,l),
(224,686,l),
(-5,0,l)
);
},
{
closed = 1;
nodes = (
(344,475,l),
(349,475,l),
(407,267,l),
(285,267,l)
);
},
{
closed = 1;
nodes = (
(268,761,l),
(342,818,l),
(416,761,l),
(546,761,l),
(407,886,l),
(279,886,l),
(140,761,l)
);
},
{
closed = 1;
nodes = (
(387,931,o),
(453,977,o),
(453,1044,cs),
(453,1108,o),
(402,1144,o),
(336,1144,cs),
(316,1144,o),
(295,1143,o),
(274,1137,c),
(274,1049,l),
(297,1057,o),
(316,1060,o),
(331,1060,cs),
(355,1060,o),
(370,1048,o),
(370,1031,cs),
(370,1008,o),
(353,996,o),
(324,992,c),
(324,928,l)
);
}
);
};
layerId = "2883A7C2-0A22-4F0A-A898-75B9BDC585A4";
shapes = (
{
ref = A;
},
{
ref = circumflexcomb_hookcomb.cap;
}
);
width = 600;
},
{
associatedMasterId = "1B515DD0-5446-4609-BD2C-839EAA0AE6A8";
layerId = "26F5AAB6-2055-4371-9743-1825ED82AB6B";
width = 600;
},
{
layerId = "A193C231-D910-4739-84D4-C6814F8A1DBE";
shapes = (
{
ref = A;
},
{
ref = circumflexcomb_hookcomb.cap;
}
);
width = 600;
}
);
note = uni1EA8;
unicode = 7848;
},
{
color = 1;
glyphname = Acircumflextilde;
layers = (
{
background = {
shapes = (
{
closed = 1;
nodes = (
(73,0,l),
(143,170,l),
(505,170,l),
(576,0,l),
(635,0,l),
(351,686,l),
(301,686,l),
(17,0,l)
);
},
{
closed = 1;
nodes = (
(322,612,l),
(326,612,l),
(485,219,l),
(163,219,l)
);
},
{
closed = 1;
nodes = (
(219,760,l),
(322,837,l),
(425,760,l),
(485,760,l),
(351,885,l),
(293,885,l),
(159,760,l)
);
},
{
closed = 1;
nodes = (
(168,925,l),
(175,948,o),
(192,957,o),
(225,957,cs),
(279,957,o),
(350,925,o),
(414,925,cs),
(493,925,o),
(515,975,o),
(515,1007,c),
(478,1007,l),
(471,984,o),
(454,975,o),
(421,975,cs),
(367,975,o),
(296,1007,o),
(232,1007,cs),
(154,1007,o),
(131,957,o),
(131,925,c)
);
}
);
};
layerId = "1B515DD0-5446-4609-BD2C-839EAA0AE6A8";
shapes = (
{
ref = A;
},
{
pos = (2,0);
ref = circumflexcomb_tildecomb.cap;
}
);
width = 600;
},
{
layerId = "2883A7C2-0A22-4F0A-A898-75B9BDC585A4";
shapes = (
{
ref = A;
},
{
ref = circumflexcomb_tildecomb.cap;
}
);
width = 600;
},
{
associatedMasterId = "1B515DD0-5446-4609-BD2C-839EAA0AE6A8";
layerId = "26F5AAB6-2055-4371-9743-1825ED82AB6B";
width = 600;
},
{
layerId = "A193C231-D910-4739-84D4-C6814F8A1DBE";
shapes = (
{
ref = A;
},
{
ref = circumflexcomb_tildecomb.cap;
}
);
width = 600;
}
);
note = uni1EAA;
unicode = 7850;
},
{
color = 1;
glyphname = Adieresis;
layers = (
{
background = {
shapes = (
{
closed = 1;
nodes = (
(73,0,l),
(143,170,l),
(505,170,l),
(576,0,l),
(635,0,l),
(351,686,l),
(301,686,l),
(17,0,l)
);
},
{
closed = 1;
nodes = (
(322,612,l),
(326,612,l),
(485,219,l),
(163,219,l)
);
},
{
closed = 1;
nodes = (
(270,797,l),
(270,866,l),
(205,866,l),
(205,797,l)
);
},
{
closed = 1;
nodes = (
(446,797,l),
(446,866,l),
(381,866,l),
(381,797,l)
);
}
);
};
layerId = "1B515DD0-5446-4609-BD2C-839EAA0AE6A8";
shapes = (
{
ref = A;
},
{
ref = dieresiscomb.cap;
}
);
width = 600;
},
{
background = {
shapes = (
{
closed = 1;
nodes = (
(197,0,l),
(237,122,l),
(455,122,l),
(496,0,l),
(714,0,l),
(485,686,l),
(224,686,l),
(-5,0,l)
);
},
{
closed = 1;
nodes = (
(344,475,l),
(349,475,l),
(407,267,l),
(285,267,l)
);
},
{
closed = 1;
nodes = (
(313,748,l),
(313,895,l),
(161,895,l),
(161,748,l)
);
},
{
closed = 1;
nodes = (
(533,748,l),
(533,895,l),
(381,895,l),
(381,748,l)
);
}
);
};
layerId = "2883A7C2-0A22-4F0A-A898-75B9BDC585A4";
shapes = (
{
ref = A;
},
{
ref = dieresiscomb.cap;
}
);
width = 600;
},
{
associatedMasterId = "1B515DD0-5446-4609-BD2C-839EAA0AE6A8";
layerId = "26F5AAB6-2055-4371-9743-1825ED82AB6B";
width = 600;
},
{
layerId = "A193C231-D910-4739-84D4-C6814F8A1DBE";
shapes = (
{
ref = A;
},
{
ref = dieresiscomb.cap;
}
);
width = 600;
}
);
note = Adieresis;
unicode = 196;
},
{
color = 1;
glyphname = Aogonek;
layers = (
{
background = {
shapes = (
{
closed = 1;
nodes = (
(648,-143,o),
(677,-135,o),
(703,-119,c),
(690,-86,l),
(669,-93,o),
(647,-100,o),
(623,-100,cs),
(602,-100,o),
(579,-91,o),
(579,-60,cs),
(579,-39,o),
(591,-19,o),
(626,0,c),
(635,0,l),
(351,686,l),
(301,686,l),
(17,0,l),
(73,0,l),
(143,170,l),
(505,170,l),
(576,0,l),
(550,-12,o),
(522,-39,o),
(522,-71,cs),
(522,-126,o),
(573,-143,o),
(619,-143,cs)
);
},
{
closed = 1;
nodes = (
(322,612,l),
(326,612,l),
(485,219,l),
(163,219,l)
);
}
);
};
layerId = "1B515DD0-5446-4609-BD2C-839EAA0AE6A8";
shapes = (
{
ref = A;
},
{
pos = (263,0);
ref = ogonekcomb;
}
);
width = 600;
},
{
background = {
shapes = (
{
closed = 1;
nodes = (
(654,-143,o),
(689,-135,o),
(721,-119,c),
(708,-76,l),
(687,-84,o),
(664,-90,o),
(641,-90,cs),
(620,-90,o),
(597,-83,o),
(597,-56,cs),
(597,-29,o),
(625,-12,o),
(644,0,c),
(714,0,l),
(485,686,l),
(224,686,l),
(-5,0,l),
(197,0,l),
(237,122,l),
(455,122,l),
(496,0,l),
(560,0,l),
(539,-15,o),
(520,-39,o),
(520,-71,cs),
(520,-126,o),
(571,-143,o),
(617,-143,cs)
);
},
{
closed = 1;
nodes = (
(344,475,l),
(349,475,l),
(407,267,l),
(285,267,l)
);
}
);
};
layerId = "2883A7C2-0A22-4F0A-A898-75B9BDC585A4";
shapes = (
{
ref = A;
},
{
pos = (208,0);
ref = ogonekcomb;
}
);
width = 600;
},
{
associatedMasterId = "1B515DD0-5446-4609-BD2C-839EAA0AE6A8";
layerId = "26F5AAB6-2055-4371-9743-1825ED82AB6B";
width = 600;
},
{
layerId = "A193C231-D910-4739-84D4-C6814F8A1DBE";
shapes = (
{
ref = A;
},
{
pos = (215,0);
ref = ogonekcomb;
}
);
width = 600;
}
);
note = Aogonek;
unicode = 260;
},
{
color = 4;
glyphname = AE;
layers = (
{
anchors = (
{
name = bottom;
pos = (350,0);
},
{
name = top;
pos = (350,686);
}
);
hints = (
{
horizontal = 1;
origin = (0,15);
target = (0,6);
type = Stem;
},
{
horizontal = 1;
origin = (1,3);
target = (1,2);
type = Stem;
},
{
horizontal = 1;
origin = (0,0);
target = (0,10);
type = Stem;
},
{
horizontal = 1;
origin = (0,14);
target = (0,11);
type = Stem;
},
{
origin = (0,3);
target = (0,6);
type = Stem;
}
);
layerId = "1B515DD0-5446-4609-BD2C-839EAA0AE6A8";
shapes = (
{
closed = 1;
nodes = (
(56,0,l),
(306,638,l),
(310,638,l),
(310,0,l),
(584,0,l),
(573,48,l),
(364,48,l),
(364,326,l),
(524,326,l),
(524,374,l),
(364,374,l),
(364,638,l),
(563,638,l),
(575,686,l),
(274,686,l),
(0,0,l)
);
},
{
closed = 1;
nodes = (
(337,170,l),
(337,219,l),
(103,219,l),
(103,170,l)
);
}
);
width = 600;
},
{
anchors = (
{
name = bottom;
pos = (350,0);
},
{
name = top;
pos = (350,686);
}
);
background = {
shapes = (
{
closed = 1;
nodes = (
(600,0,l),
(580,164,l),
(481,164,l),
(481,275,l),
(569,275,l),
(569,428,l),
(481,428,l),
(481,528,l),
(580,528,l),
(600,686,l),
(275,686,l),
(275,0,l)
);
}
);
};
hints = (
{
horizontal = 1;
origin = (0,15);
target = (0,6);
type = Stem;
},
{
horizontal = 1;
origin = (0,7);
target = (0,10);
type = Stem;
},
{
horizontal = 1;
origin = (0,14);
target = (0,11);
type = Stem;
},
{
horizontal = 1;
origin = (1,3);
target = (1,2);
type = Stem;
},
{
origin = (0,3);
target = (0,6);
type = Stem;
}
);
layerId = "2883A7C2-0A22-4F0A-A898-75B9BDC585A4";
shapes = (
{
closed = 1;
nodes = (
(197,0,l),
(256,525,l),
(265,525,l),
(265,0,l),
(600,0,l),
(580,164,l),
(441,164,l),
(441,275,l),
(569,275,l),
(569,428,l),
(441,428,l),
(441,528,l),
(580,528,l),
(600,686,l),
(126,686,l),
(0,0,l)
);
},
{
closed = 1;
nodes = (
(362,122,l),
(362,267,l),
(140,267,l),
(140,122,l)
);
}
);
width = 600;
},
{
associatedMasterId = "1B515DD0-5446-4609-BD2C-839EAA0AE6A8";
layerId = "26F5AAB6-2055-4371-9743-1825ED82AB6B";
width = 600;
},
{
anchors = (
{
name = bottom;
pos = (350,0);
},
{
name = top;
pos = (350,686);
}
);
hints = (
{
horizontal = 1;
origin = (0,15);
target = (0,6);
type = Stem;
},
{
horizontal = 1;
origin = (1,3);
target = (1,2);
type = Stem;
},
{
horizontal = 1;
origin = (0,0);
target = (0,10);
type = Stem;
},
{
horizontal = 1;
origin = (0,14);
target = (0,11);
type = Stem;
},
{
origin = (0,3);
target = (0,6);
type = Stem;
}
);
layerId = "A193C231-D910-4739-84D4-C6814F8A1DBE";
shapes = (
{
closed = 1;
nodes = (
(119,0,l),
(284,588,l),
(290,588,l),
(290,0,l),
(591,0,l),
(576,100,l),
(398,100,l),
(398,303,l),
(544,303,l),
(544,398,l),
(398,398,l),
(398,589,l),
(571,589,l),
(586,686,l),
(208,686,l),
(0,0,l)
);
},
{
closed = 1;
nodes = (
(348,149,l),
(348,240,l),
(119,240,l),
(119,149,l)
);
}
);
width = 600;
}
);
note = AE;
unicode = 198;
},
{
color = 4;
glyphname = B;
layers = (
{
hints = (
{
horizontal = 1;
place = (0, 48);
place = (0, 48);
type = Stem;
},
{
horizontal = 1;
place = (326, 48);
place = (326, 48);
type = Stem;
},
{
horizontal = 1;
place = (638, 48);
place = (638, 48);
type = Stem;
},
{
place = (107, 54);
place = (107, 54);
type = Stem;
},
{
place = (506, 55);
place = (506, 55);
type = Stem;
},
{
place = (523, 54);
place = (523, 54);
type = Stem;
}
);
layerId = "1B515DD0-5446-4609-BD2C-839EAA0AE6A8";
shapes = (
{
closed = 1;
nodes = (
(350,0,ls),
(455,0,o),
(540,82,o),
(540,183,cs),
(540,317,o),
(439,348,o),
(403,353,c),
(403,359,l),
(456,372,o),
(524,421,o),
(524,523,cs),
(524,616,o),
(454,686,o),
(344,686,cs),
(90,686,l),
(90,0,l)
);
},
{
closed = 1;
nodes = (
(144,326,l),
(344,326,ls),
(422,326,o),
(486,264,o),
(486,186,cs),
(486,108,o),
(422,48,o),
(344,48,cs),
(144,48,l)
);
},
{
closed = 1;
nodes = (
(144,638,l),
(351,638,ls),
(431,638,o),
(469,586,o),
(469,511,cs),
(469,436,o),
(409,374,o),
(334,374,cs),
(144,374,l)
);
}
);
width = 600;
},
{
hints = (
{
horizontal = 1;
origin = (0,15);
target = (1,8);
type = Stem;
},
{
horizontal = 1;
origin = (1,0);
target = (2,8);
type = Stem;
},
{
horizontal = 1;
origin = (0,14);
target = (2,0);
type = Stem;
},
{
origin = (0,15);
target = (1,8);
type = Stem;
},
{
origin = (2,4);
target = (0,10);
type = Stem;
},
{
origin = (1,4);
target = (0,3);
type = Stem;
}
);
layerId = "2883A7C2-0A22-4F0A-A898-75B9BDC585A4";
shapes = (
{
closed = 1;
nodes = (
(392,0,ls),
(510,0,o),
(582,73,o),
(582,183,cs),
(582,292,o),
(520,338,o),
(446,354,c),
(446,358,l),
(510,377,o),
(566,417,o),
(566,518,cs),
(566,619,o),
(498,686,o),
(386,686,cs),
(40,686,l),
(40,0,l)
);
},
{
closed = 1;
nodes = (
(230,277,l),
(330,277,ls),
(358,277,o),
(380,263,o),
(380,219,cs),
(380,188,o),
(368,159,o),
(330,159,cs),
(230,159,l)
);
},
{
closed = 1;
nodes = (
(230,540,l),
(318,540,ls),
(346,540,o),
(368,526,o),
(368,482,cs),
(368,443,o),
(351,423,o),
(318,423,cs),
(230,423,l)
);
}
);
width = 600;
},
{
associatedMasterId = "1B515DD0-5446-4609-BD2C-839EAA0AE6A8";
layerId = "26F5AAB6-2055-4371-9743-1825ED82AB6B";
width = 600;
},
{
hints = (
{
horizontal = 1;
place = (123, 2000);
place = (123, 2000);
type = Stem;
},
{
horizontal = 1;
place = (181, 2000);
place = (181, 2000);
type = Stem;
},
{
horizontal = 1;
place = (659, 2000);
place = (659, 2000);
type = Stem;
},
{
place = (223, 2000);
place = (223, 2000);
type = Stem;
},
{
place = (450, 2000);
place = (450, 2000);
type = Stem;
},
{
place = (308, 2000);
place = (308, 2000);
type = Stem;
}
);
layerId = "A193C231-D910-4739-84D4-C6814F8A1DBE";
shapes = (
{
closed = 1;
nodes = (
(369,0,ls),
(479,0,o),
(559,78,o),
(559,183,cs),
(559,306,o),
(475,344,o),
(422,353,c),
(422,359,l),
(480,374,o),
(543,419,o),
(543,521,cs),
(543,617,o),
(474,686,o),
(363,686,cs),
(68,686,l),
(68,0,l)
);
},
{
closed = 1;
nodes = (
(182,304,l),
(338,304,ls),
(394,304,o),
(439,264,o),
(439,201,cs),
(439,144,o),
(398,97,o),
(338,97,cs),
(182,97,l)
);
},
{
closed = 1;
nodes = (
(182,594,l),
(336,594,ls),
(393,594,o),
(424,559,o),
(424,498,cs),
(424,439,o),
(383,396,o),
(327,396,cs),
(182,396,l)
);
}
);
width = 600;
}
);
note = B;
unicode = 66;
},
{
color = 4;
glyphname = C;
layers = (
{
anchors = (
{
name = bottom;
pos = (300,0);
},
{
name = top;
pos = (300,686);
}
);
background = {
shapes = (
{
closed = 1;
nodes = (
(303,-10,ls),
(437,-10,o),
(546,58,o),
(546,330,cs),
(546,356,ls),
(546,629,o),
(437,696,o),
(301,696,cs),
(298,696,ls),
(169,696,o),
(54,631,o),
(54,356,cs),
(54,330,ls),
(54,55,o),
(164,-10,o),
(300,-10,cs)
);
},
{
closed = 1;
nodes = (
(194,38,o),
(108,91,o),
(108,318,cs),
(108,368,ls),
(108,595,o),
(194,648,o),
(300,648,cs),
(406,648,o),
(492,595,o),
(492,368,cs),
(492,318,ls),
(492,91,o),
(406,38,o),
(300,38,cs)
);
}
);
};
hints = (
{
horizontal = 1;
origin = (0,29);
target = (0,7);
type = Stem;
},
{
horizontal = 1;
origin = (0,22);
target = (0,14);
type = Stem;
},
{
origin = (0,26);
target = (0,10);
type = Stem;
},
{
origin = (0,4);
target = (0,3);
type = Stem;
}
);
layerId = "1B515DD0-5446-4609-BD2C-839EAA0AE6A8";
shapes = (
{
closed = 1;
nodes = (
(303,-10,ls),
(463,-10,o),
(545,78,o),
(545,251,c),
(492,251,l),
(492,101,o),
(435,38,o),
(300,38,cs),
(194,38,o),
(108,87,o),
(108,298,cs),
(108,388,ls),
(108,599,o),
(194,648,o),
(300,648,cs),
(435,648,o),
(492,585,o),
(492,434,c),
(545,434,l),
(545,608,o),
(463,696,o),
(301,696,cs),
(298,696,ls),
(169,696,o),
(54,635,o),
(54,376,cs),
(54,310,ls),
(54,51,o),
(164,-10,o),
(300,-10,cs)
);
}
);
width = 600;
},
{
anchors = (
{
name = bottom;
pos = (300,0);
},
{
name = top;
pos = (300,686);
}
);
background = {
shapes = (
{
closed = 1;
nodes = (
(318,-10,ls),
(486,-10,o),
(598,102,o),
(598,270,cs),
(598,415,ls),
(598,583,o),
(486,696,o),
(318,696,cs),
(282,696,ls),
(114,696,o),
(2,583,o),
(2,415,cs),
(2,270,ls),
(2,102,o),
(114,-10,o),
(282,-10,cs)
);
},
{
closed = 1;
nodes = (
(251,147,o),
(218,177,o),
(218,222,cs),
(218,465,ls),
(218,510,o),
(251,540,o),
(300,540,cs),
(350,540,o),
(383,510,o),
(383,465,cs),
(383,222,ls),
(383,177,o),
(350,147,o),
(300,147,cs)
);
}
);
};
hints = (
{
horizontal = 1;
origin = (0,29);
target = (0,7);
type = Stem;
},
{
horizontal = 1;
origin = (0,22);
target = (0,14);
type = Stem;
},
{
origin = (0,26);
target = (0,10);
type = Stem;
},
{
origin = (0,4);
target = (0,3);
type = Stem;
},
{
origin = (0,17);
target = (0,3);
type = Stem;
}
);
layerId = "2883A7C2-0A22-4F0A-A898-75B9BDC585A4";
shapes = (
{
closed = 1;
nodes = (
(318,-10,ls),
(462,-10,o),
(571,100,o),
(571,280,c),
(383,280,l),
(383,188,o),
(370,147,o),
(295,147,cs),
(251,147,o),
(218,177,o),
(218,232,cs),
(218,455,ls),
(218,510,o),
(251,540,o),
(295,540,cs),
(370,540,o),
(374,496,o),
(374,405,c),
(571,405,l),
(571,600,o),
(463,696,o),
(318,696,cs),
(282,696,ls),
(114,696,o),
(2,583,o),
(2,415,cs),
(2,270,ls),
(2,102,o),
(114,-10,o),
(282,-10,cs)
);
}
);
width = 600;
},
{
associatedMasterId = "1B515DD0-5446-4609-BD2C-839EAA0AE6A8";
layerId = "26F5AAB6-2055-4371-9743-1825ED82AB6B";
width = 600;
},
{
anchors = (
{
name = bottom;
pos = (300,0);
},
{
name = top;
pos = (300,686);
}
);
hints = (
{
horizontal = 1;
origin = (0,29);
target = (0,7);
type = Stem;
},
{
horizontal = 1;
origin = (0,22);
target = (0,14);
type = Stem;
},
{
origin = (0,26);
target = (0,10);
type = Stem;
},
{
origin = (0,4);
target = (0,3);
type = Stem;
}
);
layerId = "A193C231-D910-4739-84D4-C6814F8A1DBE";
shapes = (
{
closed = 1;
nodes = (
(310,-10,ls),
(463,-10,o),
(557,88,o),
(557,264,c),
(444,264,l),
(444,140,o),
(406,86,o),
(298,86,cs),
(219,86,o),
(157,127,o),
(157,269,cs),
(157,418,ls),
(157,559,o),
(219,600,o),
(298,600,cs),
(406,600,o),
(440,545,o),
(440,421,c),
(557,421,l),
(557,604,o),
(463,696,o),
(309,696,cs),
(291,696,ls),
(145,696,o),
(31,612,o),
(31,393,cs),
(31,292,ls),
(31,74,o),
(142,-10,o),
(292,-10,cs)
);
}
);
width = 600;
}
);
note = C;
unicode = 67;
},
{
color = 1;
glyphname = Ccedilla;
layers = (
{
background = {
shapes = (
{
closed = 1;
nodes = (
(340,-10,ls),
(470,-10,o),
(591,50,o),
(591,251,c),
(538,251,l),
(538,81,o),
(442,38,o),
(337,38,cs),
(220,38,o),
(133,91,o),
(133,318,cs),
(133,368,ls),
(133,595,o),
(220,648,o),
(337,648,cs),
(442,648,o),
(538,606,o),
(538,434,c),
(591,434,l),
(591,640,o),
(469,696,o),
(340,696,cs),
(335,696,ls),
(191,696,o),
(79,631,o),
(79,356,cs),
(79,330,ls),
(79,55,o),
(191,-10,o),
(335,-10,cs)
);
},
{
closed = 1;
nodes = (
(360,-207,o),
(432,-189,o),
(432,-116,cs),
(432,-47,o),
(380,-27,o),
(326,-27,cs),
(301,-27,l),
(301,-61,l),
(323,-61,ls),
(350,-61,o),
(381,-76,o),
(381,-107,cs),
(381,-150,o),
(342,-161,o),
(305,-161,cs),
(272,-161,o),
(249,-155,o),
(236,-148,c),
(236,-194,l),
(260,-203,o),
(289,-207,o),
(314,-207,cs)
);
}
);
};
layerId = "1B515DD0-5446-4609-BD2C-839EAA0AE6A8";
shapes = (
{
ref = C;
},
{
ref = cedillacomb;
}
);
width = 600;
},
{
background = {
shapes = (
{
closed = 1;
nodes = (
(377,-10,ls),
(539,-10,o),
(659,100,o),
(659,280,c),
(471,280,l),
(471,178,o),
(441,147,o),
(356,147,cs),
(292,147,o),
(257,188,o),
(257,247,cs),
(257,440,ls),
(257,499,o),
(295,540,o),
(356,540,cs),
(430,540,o),
(462,506,o),
(462,405,c),
(659,405,l),
(659,600,o),
(532,696,o),
(369,696,cs),
(341,696,ls),
(175,696,o),
(31,576,o),
(31,396,cs),
(31,290,ls),
(31,100,o),
(173,-10,o),
(349,-10,cs)
);
},
{
closed = 1;
nodes = (
(401,-212,o),
(474,-196,o),
(474,-123,cs),
(474,-49,o),
(411,-32,o),
(352,-32,cs),
(331,-32,l),
(331,-91,l),
(349,-91,ls),
(378,-91,o),
(387,-103,o),
(387,-123,cs),
(387,-146,o),
(371,-154,o),
(347,-154,cs),
(304,-154,o),
(278,-136,o),
(262,-122,c),
(230,-176,l),
(259,-200,o),
(309,-212,o),
(356,-212,cs)
);
}
);
};
layerId = "2883A7C2-0A22-4F0A-A898-75B9BDC585A4";
shapes = (
{
ref = C;
},
{
ref = cedillacomb;
}
);
width = 600;
},
{
associatedMasterId = "1B515DD0-5446-4609-BD2C-839EAA0AE6A8";
layerId = "26F5AAB6-2055-4371-9743-1825ED82AB6B";
width = 600;
},
{
layerId = "A193C231-D910-4739-84D4-C6814F8A1DBE";
shapes = (
{
ref = C;
},
{
ref = cedillacomb;
}
);
width = 600;
}
);
note = Ccedilla;
unicode = 199;
},
{
color = 4;
glyphname = D;
layers = (
{
anchors = (
{
name = bottom;
pos = (300,0);
},
{
name = center;
pos = (175,343);
},
{
name = top;
pos = (300,686);
}
);
hints = (
{
horizontal = 1;
origin = (0,9);
target = (1,9);
type = Stem;
},
{
horizontal = 1;
origin = (0,8);
target = (1,0);
type = Stem;
},
{
origin = (0,9);
target = (1,9);
type = Stem;
},
{
origin = (1,5);
target = (0,3);
type = Stem;
}
);
layerId = "1B515DD0-5446-4609-BD2C-839EAA0AE6A8";
shapes = (
{
closed = 1;
nodes = (
(310,0,ls),
(457,0,o),
(576,70,o),
(576,311,cs),
(576,376,ls),
(576,619,o),
(457,686,o),
(310,686,cs),
(90,686,l),
(90,0,l)
);
},
{
closed = 1;
nodes = (
(144,638,l),
(310,638,ls),
(427,638,o),
(522,581,o),
(522,385,cs),
(522,302,ls),
(522,100,o),
(427,48,o),
(310,48,cs),
(144,48,l)
);
}
);
width = 600;
},
{
anchors = (
{
name = bottom;
pos = (300,0);
},
{
name = center;
pos = (176,343);
},
{
name = top;
pos = (300,686);
}
);
background = {
shapes = (
{
closed = 1;
nodes = (
(318,-10,ls),
(486,-10,o),
(598,102,o),
(598,270,cs),
(598,415,ls),
(598,583,o),
(486,696,o),
(318,696,cs),
(282,696,ls),
(114,696,o),
(2,583,o),
(2,415,cs),
(2,270,ls),
(2,102,o),
(114,-10,o),
(282,-10,cs)
);
},
{
closed = 1;
nodes = (
(251,147,o),
(218,177,o),
(218,222,cs),
(218,465,ls),
(218,510,o),
(251,540,o),
(300,540,cs),
(350,540,o),
(383,510,o),
(383,465,cs),
(383,222,ls),
(383,177,o),
(350,147,o),
(300,147,cs)
);
}
);
};
hints = (
{
horizontal = 1;
origin = (1,9);
target = (0,9);
type = Stem;
},
{
horizontal = 1;
origin = (0,8);
target = (1,0);
type = Stem;
},
{
origin = (0,9);
target = (1,9);
type = Stem;
},
{
origin = (1,5);
target = (0,3);
type = Stem;
}
);
layerId = "2883A7C2-0A22-4F0A-A898-75B9BDC585A4";
shapes = (
{
closed = 1;
nodes = (
(318,0,ls),
(480,0,o),
(598,97,o),
(598,230,cs),
(598,455,ls),
(598,589,o),
(480,686,o),
(318,686,cs),
(40,686,l),
(40,0,l)
);
},
{
closed = 1;
nodes = (
(252,530,l),
(298,530,ls),
(356,530,o),
(383,510,o),
(383,465,cs),
(383,222,ls),
(383,177,o),
(356,159,o),
(298,159,cs),
(252,159,l)
);
}
);
width = 600;
},
{
associatedMasterId = "1B515DD0-5446-4609-BD2C-839EAA0AE6A8";
layerId = "26F5AAB6-2055-4371-9743-1825ED82AB6B";
width = 600;
},
{
anchors = (
{
name = bottom;
pos = (300,0);
},
{
name = center;
pos = (175,343);
},
{
name = top;
pos = (300,686);
}
);
hints = (
{
horizontal = 1;
origin = (0,9);
target = (1,9);
type = Stem;
},
{
horizontal = 1;
origin = (0,8);
target = (1,0);
type = Stem;
},
{
origin = (0,9);
target = (1,9);
type = Stem;
},
{
origin = (1,5);
target = (0,3);
type = Stem;
}
);
layerId = "A193C231-D910-4739-84D4-C6814F8A1DBE";
shapes = (
{
closed = 1;
nodes = (
(314,0,ls),
(467,0,o),
(586,82,o),
(586,275,cs),
(586,411,ls),
(586,606,o),
(467,686,o),
(314,686,cs),
(68,686,l),
(68,0,l)
);
},
{
closed = 1;
nodes = (
(192,590,l),
(305,590,ls),
(395,590,o),
(460,549,o),
(460,421,cs),
(460,266,ls),
(460,134,o),
(395,97,o),
(305,97,cs),
(192,97,l)
);
}
);
width = 600;
}
);
note = D;
unicode = 68;
},
{
color = 4;
glyphname = DZcaron;
layers = (
{
background = {
shapes = (
{
closed = 1;
nodes = (
(310,0,ls),
(457,0,o),
(576,70,o),
(576,311,cs),
(576,376,ls),
(576,619,o),
(457,686,o),
(310,686,cs),
(90,686,l),
(90,0,l)
);
},
{
closed = 1;
nodes = (
(144,638,l),
(310,638,ls),
(427,638,o),
(522,581,o),
(522,385,cs),
(522,302,ls),
(522,100,o),
(427,48,o),
(310,48,cs),
(144,48,l)
);
}
);
};
hints = (
{
horizontal = 1;
origin = (0,9);
target = (1,9);
type = Stem;
},
{
horizontal = 1;
origin = (0,8);
target = (1,0);
type = Stem;
},
{
horizontal = 1;
origin = (3,5);
target = (3,6);
type = Stem;
},
{
origin = (0,9);
target = (1,9);
type = Stem;
},
{
origin = (1,5);
target = (0,3);
type = Stem;
}
);
layerId = "1B515DD0-5446-4609-BD2C-839EAA0AE6A8";
shapes = (
{
closed = 1;
nodes = (
(144,0,ls),
(264,0,o),
(319,82,o),
(319,261,cs),
(319,426,ls),
(319,604,o),
(264,686,o),
(144,686,cs),
(45,686,l),
(45,0,l)
);
},
{
closed = 1;
nodes = (
(99,638,l),
(144,638,ls),
(227,638,o),
(265,574,o),
(265,435,cs),
(265,252,ls),
(265,112,o),
(227,48,o),
(144,48,cs),
(99,48,l)
);
},
{
closed = 1;
nodes = (
(555,0,l),
(555,48,l),
(362,48,l),
(550,662,l),
(550,686,l),
(316,686,l),
(316,638,l),
(487,638,l),
(300,25,l),
(300,0,l)
);
},
{
closed = 1;
nodes = (
(466,760,l),
(547,885,l),
(498,885,l),
(438,808,l),
(378,885,l),
(329,885,l),
(410,760,l)
);
}
);
width = 600;
},
{
hints = (
{
horizontal = 1;
origin = (2,2);
target = (0,9);
type = Stem;
},
{
horizontal = 1;
origin = (0,8);
target = (2,6);
type = Stem;
},
{
horizontal = 1;
origin = (3,6);
target = (3,5);
type = Stem;
},
{
horizontal = 1;
origin = (0,9);
target = (1,9);
type = Stem;
},
{
horizontal = 1;
origin = (0,8);
target = (1,0);
type = Stem;
},
{
origin = (0,9);
target = (1,9);
type = Stem;
},
{
origin = (1,5);
target = (0,3);
type = Stem;
}
);
layerId = "2883A7C2-0A22-4F0A-A898-75B9BDC585A4";
shapes = (
{
closed = 1;
nodes = (
(156,0,ls),
(297,0,o),
(354,97,o),
(354,230,cs),
(354,455,ls),
(354,589,o),
(297,686,o),
(156,686,cs),
(0,686,l),
(0,0,l)
);
},
{
closed = 1;
nodes = (
(150,530,l),
(166,530,ls),
(190,530,o),
(201,516,o),
(201,485,cs),
(201,202,ls),
(201,171,o),
(190,159,o),
(166,159,cs),
(150,159,l)
);
},
{
closed = 1;
nodes = (
(600,0,l),
(600,161,l),
(492,161,l),
(592,576,l),
(592,686,l),
(356,686,l),
(356,526,l),
(436,526,l),
(332,110,l),
(332,0,l)
);
},
{
closed = 1;
nodes = (
(553,761,l),
(592,886,l),
(501,886,l),
(473,819,l),
(448,886,l),
(356,886,l),
(395,761,l)
);
}
);
width = 600;
},
{
associatedMasterId = "1B515DD0-5446-4609-BD2C-839EAA0AE6A8";
layerId = "26F5AAB6-2055-4371-9743-1825ED82AB6B";
width = 600;
},
{
hints = (
{
horizontal = 1;
origin = (0,9);
target = (1,9);
type = Stem;
},
{
horizontal = 1;
origin = (0,8);
target = (1,0);
type = Stem;
},
{
horizontal = 1;
origin = (3,5);
target = (3,6);
type = Stem;
},
{
origin = (0,9);
target = (1,9);
type = Stem;
},
{
origin = (1,5);
target = (0,3);
type = Stem;
}
);
layerId = "A193C231-D910-4739-84D4-C6814F8A1DBE";
shapes = (
{
closed = 1;
nodes = (
(149,0,ls),
(279,0,o),
(335,89,o),
(335,247,cs),
(335,439,ls),
(335,597,o),
(279,686,o),
(149,686,cs),
(25,686,l),
(25,0,l)
);
},
{
closed = 1;
nodes = (
(122,590,l),
(154,590,ls),
(211,590,o),
(237,548,o),
(237,457,cs),
(237,230,ls),
(237,138,o),
(211,97,o),
(154,97,cs),
(122,97,l)
);
},
{
closed = 1;
nodes = (
(575,0,l),
(575,98,l),
(420,98,l),
(569,624,l),
(569,686,l),
(334,686,l),
(334,588,l),
(464,588,l),
(314,63,l),
(314,0,l)
);
},
{
closed = 1;
nodes = (
(505,760,l),
(567,885,l),
(499,885,l),
(454,813,l),
(409,885,l),
(341,885,l),
(403,760,l)
);
}
);
width = 600;
}
);
note = uni01C4;
unicode = 452;
},
{
color = 1;
glyphname = Eth;
layers = (
{
background = {
shapes = (
{
closed = 1;
nodes = (
(327,0,ls),
(474,0,o),
(593,74,o),
(593,331,cs),
(593,356,ls),
(593,615,o),
(474,686,o),
(327,686,cs),
(107,686,l),
(107,369,l),
(40,369,l),
(40,327,l),
(107,327,l),
(107,0,l)
);
},
{
closed = 1;
nodes = (
(161,327,l),
(330,327,l),
(330,369,l),
(161,369,l),
(161,638,l),
(327,638,ls),
(444,638,o),
(539,577,o),
(539,365,cs),
(539,322,ls),
(539,104,o),
(444,48,o),
(327,48,cs),
(161,48,l)
);
}
);
};
layerId = "1B515DD0-5446-4609-BD2C-839EAA0AE6A8";
shapes = (
{
ref = D;
},
{
pos = (-125,-20);
ref = strokeshortcomb;
}
);
width = 600;
},
{
background = {
shapes = (
{
closed = 1;
nodes = (
(366,0,ls),
(532,0,o),
(666,134,o),
(666,300,cs),
(666,386,ls),
(666,552,o),
(532,686,o),
(366,686,cs),
(57,686,l),
(57,411,l),
(-9,411,l),
(-9,285,l),
(57,285,l),
(57,0,l)
);
},
{
closed = 1;
nodes = (
(269,285,l),
(405,285,l),
(405,411,l),
(269,411,l),
(269,530,l),
(346,530,ls),
(402,530,o),
(446,486,o),
(446,430,cs),
(446,259,ls),
(446,203,o),
(402,159,o),
(346,159,cs),
(269,159,l)
);
}
);
};
layerId = "2883A7C2-0A22-4F0A-A898-75B9BDC585A4";
shapes = (
{
ref = D;
},
{
pos = (-64,38);
ref = strokeshortcomb;
scale = (0.8,1);
}
);
width = 600;
},
{
associatedMasterId = "1B515DD0-5446-4609-BD2C-839EAA0AE6A8";
layerId = "26F5AAB6-2055-4371-9743-1825ED82AB6B";
width = 600;
},
{
layerId = "A193C231-D910-4739-84D4-C6814F8A1DBE";
shapes = (
{
ref = D;
},
{
pos = (-98,6);
ref = strokeshortcomb;
scale = (0.9111,1);
}
);
width = 600;
}
);
note = Eth;
unicode = 208;
},
{
color = 4;
glyphname = Dzcaron;
layers = (
{
background = {
shapes = (
{
closed = 1;
nodes = (
(144,0,ls),
(264,0,o),
(319,82,o),
(319,261,cs),
(319,426,ls),
(319,604,o),
(264,686,o),
(144,686,cs),
(45,686,l),
(45,0,l)
);
},
{
closed = 1;
nodes = (
(99,638,l),
(144,638,ls),
(227,638,o),
(265,574,o),
(265,435,cs),
(265,252,ls),
(265,112,o),
(227,48,o),
(144,48,cs),
(99,48,l)
);
},
{
closed = 1;
nodes = (
(555,0,l),
(555,48,l),
(362,48,l),
(550,662,l),
(550,686,l),
(316,686,l),
(316,638,l),
(487,638,l),
(300,25,l),
(300,0,l)
);
},
{
closed = 1;
nodes = (
(461,760,l),
(547,885,l),
(503,885,l),
(438,808,l),
(373,885,l),
(329,885,l),
(415,760,l)
);
}
);
};
hints = (
{
horizontal = 1;
origin = (2,2);
target = (0,9);
type = Stem;
},
{
horizontal = 1;
origin = (2,5);
target = (2,6);
type = Stem;
},
{
horizontal = 1;
origin = (0,8);
target = (1,0);
type = Stem;
},
{
horizontal = 1;
origin = (0,9);
target = (1,9);
type = Stem;
},
{
origin = (0,9);
target = (1,9);
type = Stem;
},
{
origin = (1,5);
target = (0,3);
type = Stem;
}
);
layerId = "1B515DD0-5446-4609-BD2C-839EAA0AE6A8";
shapes = (
{
closed = 1;
nodes = (
(144,0,ls),
(264,0,o),
(319,82,o),
(319,261,cs),
(319,426,ls),
(319,604,o),
(264,686,o),
(144,686,cs),
(45,686,l),
(45,0,l)
);
},
{
closed = 1;
nodes = (
(99,638,l),
(144,638,ls),
(227,638,o),
(265,574,o),
(265,435,cs),
(265,252,ls),
(265,112,o),
(227,48,o),
(144,48,cs),
(99,48,l)
);
},
{
closed = 1;
nodes = (
(568,0,l),
(568,46,l),
(392,46,l),
(560,487,l),
(560,511,l),
(345,511,l),
(345,465,l),
(495,465,l),
(328,24,l),
(328,0,l)
);
},
{
closed = 1;
nodes = (
(487,575,l),
(577,720,l),
(522,720,l),
(453,623,l),
(385,720,l),
(330,720,l),
(419,575,l)
);
}
);
width = 600;
},
{
background = {
shapes = (
{
closed = 1;
nodes = (
(366,0,ls),
(532,0,o),
(666,134,o),
(666,300,cs),
(666,386,ls),
(666,552,o),
(532,686,o),
(366,686,cs),
(57,686,l),
(57,0,l)
);
},
{
closed = 1;
nodes = (
(269,530,l),
(346,530,ls),
(402,530,o),
(446,486,o),
(446,430,cs),
(446,259,ls),
(446,203,o),
(402,159,o),
(346,159,cs),
(269,159,l)
);
},
{
closed = 1;
nodes = (
(1170,0,l),
(1170,124,l),
(973,124,l),
(1162,451,l),
(1162,511,l),
(729,511,l),
(729,387,l),
(906,387,l),
(718,63,l),
(718,0,l)
);
},
{
closed = 1;
nodes = (
(1019,575,l),
(1158,720,l),
(1030,720,l),
(956,643,l),
(882,720,l),
(752,720,l),
(891,575,l)
);
}
);
};
hints = (
{
horizontal = 1;
origin = (0,9);
target = (2,2);
type = Stem;
},
{
horizontal = 1;
origin = (2,5);
target = (2,6);
type = Stem;
},
{
horizontal = 1;
origin = (3,5);
target = (3,6);
type = Stem;
},
{
horizontal = 1;
origin = (0,8);
target = (1,0);
type = Stem;
},
{
horizontal = 1;
origin = (0,9);
target = (1,9);
type = Stem;
},
{
origin = (0,9);
target = (1,9);
type = Stem;
},
{
origin = (1,5);
target = (0,3);
type = Stem;
}
);
layerId = "2883A7C2-0A22-4F0A-A898-75B9BDC585A4";
shapes = (
{
closed = 1;
nodes = (
(156,0,ls),
(297,0,o),
(354,97,o),
(354,230,cs),
(354,455,ls),
(354,589,o),
(297,686,o),
(156,686,cs),
(0,686,l),
(0,0,l)
);
},
{
closed = 1;
nodes = (
(150,530,l),
(166,530,ls),
(190,530,o),
(201,516,o),
(201,485,cs),
(201,202,ls),
(201,171,o),
(190,159,o),
(166,159,cs),
(150,159,l)
);
},
{
closed = 1;
nodes = (
(585,0,l),
(585,124,l),
(496,124,l),
(585,431,l),
(585,511,l),
(367,511,l),
(367,387,l),
(429,387,l),
(341,83,l),
(341,0,l)
);
},
{
closed = 1;
nodes = (
(538,575,l),
(585,720,l),
(505,720,l),
(467,643,l),
(429,720,l),
(349,720,l),
(390,575,l)
);
}
);
width = 600;
},
{
associatedMasterId = "1B515DD0-5446-4609-BD2C-839EAA0AE6A8";
layerId = "26F5AAB6-2055-4371-9743-1825ED82AB6B";
width = 600;
},
{
hints = (
{
horizontal = 1;
origin = (2,2);
target = (0,9);
type = Stem;
},
{
horizontal = 1;
origin = (2,5);
target = (2,6);
type = Stem;
},
{
horizontal = 1;
origin = (0,8);
target = (1,0);
type = Stem;
},
{
horizontal = 1;
origin = (0,9);
target = (1,9);
type = Stem;
},
{
origin = (0,9);
target = (1,9);
type = Stem;
},
{
origin = (1,5);
target = (0,3);
type = Stem;
}
);
layerId = "A193C231-D910-4739-84D4-C6814F8A1DBE";
shapes = (
{
closed = 1;
nodes = (
(149,0,ls),
(279,0,o),
(335,89,o),
(335,247,cs),
(335,439,ls),
(335,597,o),
(279,686,o),
(149,686,cs),
(25,686,l),
(25,0,l)
);
},
{
closed = 1;
nodes = (
(122,590,l),
(154,590,ls),
(211,590,o),
(237,548,o),
(237,457,cs),
(237,230,ls),
(237,138,o),
(211,97,o),
(154,97,cs),
(122,97,l)
);
},
{
closed = 1;
nodes = (
(576,0,l),
(576,81,l),
(438,81,l),
(571,462,l),
(571,511,l),
(355,511,l),
(355,430,l),
(466,430,l),
(334,50,l),
(334,0,l)
);
},
{
closed = 1;
nodes = (
(510,575,l),
(581,720,l),
(514,720,l),
(459,632,l),
(405,720,l),
(338,720,l),
(406,575,l)
);
}
);
width = 600;
}
);
note = uni01C5;
unicode = 453;
},
{
color = 4;
glyphname = E;
layers = (
{
anchors = (
{
name = bottom;
pos = (320,0);
},
{
name = ogonek;
pos = (562,0);
},
{
name = top;
pos = (310,686);
},
{
name = topleft;
pos = (100,686);
}
);
hints = (
{
horizontal = 1;
origin = (0,11);
target = (0,2);
type = Stem;
},
{
horizontal = 1;
origin = (0,3);
target = (0,6);
type = Stem;
},
{
horizontal = 1;
origin = (0,10);
target = (0,7);
type = Stem;
},
{
origin = (0,11);
target = (0,2);
type = Stem;
}
);
layerId = "1B515DD0-5446-4609-BD2C-839EAA0AE6A8";
shapes = (
{
closed = 1;
nodes = (
(534,0,l),
(523,48,l),
(154,48,l),
(154,326,l),
(473,326,l),
(473,374,l),
(154,374,l),
(154,638,l),
(514,638,l),
(524,686,l),
(100,686,l),
(100,0,l)
);
}
);
width = 600;
},
{
anchors = (
{
name = bottom;
pos = (315,0);
},
{
name = ogonek;
pos = (575,0);
},
{
name = top;
pos = (300,686);
},
{
name = topleft;
pos = (60,686);
}
);
background = {
shapes = (
{
closed = 1;
nodes = (
(555,0,l),
(535,164,l),
(246,164,l),
(246,275,l),
(524,275,l),
(524,428,l),
(246,428,l),
(246,528,l),
(535,528,l),
(555,686,l),
(40,686,l),
(40,0,l)
);
}
);
};
hints = (
{
horizontal = 1;
origin = (0,11);
target = (0,2);
type = Stem;
},
{
horizontal = 1;
origin = (0,3);
target = (0,6);
type = Stem;
},
{
horizontal = 1;
origin = (0,10);
target = (0,7);
type = Stem;
},
{
origin = (0,11);
target = (0,2);
type = Stem;
}
);
layerId = "2883A7C2-0A22-4F0A-A898-75B9BDC585A4";
shapes = (
{
closed = 1;
nodes = (
(555,0,l),
(535,164,l),
(266,164,l),
(266,275,l),
(524,275,l),
(524,428,l),
(266,428,l),
(266,528,l),
(535,528,l),
(555,686,l),
(60,686,l),
(60,0,l)
);
}
);
width = 600;
},
{
associatedMasterId = "1B515DD0-5446-4609-BD2C-839EAA0AE6A8";
layerId = "26F5AAB6-2055-4371-9743-1825ED82AB6B";
width = 600;
},
{
anchors = (
{
name = bottom;
pos = (318,0);
},
{
name = ogonek;
pos = (568,0);
},
{
name = top;
pos = (316,686);
},
{
name = topleft;
pos = (82,686);
}
);
hints = (
{
horizontal = 1;
origin = (0,11);
target = (0,2);
type = Stem;
},
{
horizontal = 1;
origin = (0,3);
target = (0,6);
type = Stem;
},
{
horizontal = 1;
origin = (0,10);
target = (0,7);
type = Stem;
},
{
origin = (0,11);
target = (0,2);
type = Stem;
}
);
layerId = "A193C231-D910-4739-84D4-C6814F8A1DBE";
shapes = (
{
closed = 1;
nodes = (
(543,0,l),
(528,100,l),
(204,100,l),
(204,303,l),
(496,303,l),
(496,398,l),
(204,398,l),
(204,589,l),
(523,589,l),
(538,686,l),
(82,686,l),
(82,0,l)
);
}
);
width = 600;
}
);
note = E;
unicode = 69;
},
{
color = 1;
glyphname = Eogonek;
layers = (
{
background = {
shapes = (
{
closed = 1;
nodes = (
(550,-143,o),
(579,-135,o),
(605,-119,c),
(592,-86,l),
(571,-93,o),
(549,-100,o),
(525,-100,cs),
(504,-100,o),
(481,-91,o),
(481,-60,cs),
(481,-39,o),
(493,-19,o),
(528,0,c),
(541,0,l),
(530,48,l),
(161,48,l),
(161,326,l),
(480,326,l),
(480,374,l),
(161,374,l),
(161,638,l),
(521,638,l),
(531,686,l),
(107,686,l),
(107,0,l),
(478,0,l),
(452,-12,o),
(424,-39,o),
(424,-71,cs),
(424,-126,o),
(475,-143,o),
(521,-143,cs)
);
}
);
};
layerId = "1B515DD0-5446-4609-BD2C-839EAA0AE6A8";
shapes = (
{
ref = E;
},
{
pos = (182,0);
ref = ogonekcomb;
}
);
width = 600;
},
{
layerId = "2883A7C2-0A22-4F0A-A898-75B9BDC585A4";
shapes = (
{
ref = E;
},
{
pos = (156,0);
ref = ogonekcomb;
}
);
width = 600;
},
{
associatedMasterId = "1B515DD0-5446-4609-BD2C-839EAA0AE6A8";
layerId = "26F5AAB6-2055-4371-9743-1825ED82AB6B";
width = 600;
},
{
layerId = "A193C231-D910-4739-84D4-C6814F8A1DBE";
shapes = (
{
ref = E;
},
{
pos = (172,0);
ref = ogonekcomb;
}
);
width = 600;
}
);
note = Eogonek;
unicode = 280;
},
{
color = 4;
glyphname = Schwa;
layers = (
{
anchors = (
{
name = bottom;
pos = (300,0);
},
{
name = top;
pos = (300,686);
}
);
background = {
anchors = (
{
name = bottom;
pos = (300,0);
},
{
name = center;
pos = (300,343);
},
{
name = ogonek;
pos = (454,0);
},
{
name = top;
pos = (300,686);
},
{
name = topleft;
pos = (165,648);
},
{
name = topright;
pos = (435,648);
}
);
shapes = (
{
closed = 1;
nodes = (
(303,-10,ls),
(437,-10,o),
(546,54,o),
(546,310,cs),
(546,376,ls),
(546,633,o),
(437,696,o),
(301,696,cs),
(298,696,ls),
(169,696,o),
(54,635,o),
(54,376,cs),
(54,310,ls),
(54,51,o),
(164,-10,o),
(300,-10,cs)
);
},
{
closed = 1;
nodes = (
(194,38,o),
(108,87,o),
(108,298,cs),
(108,388,ls),
(108,599,o),
(194,648,o),
(300,648,cs),
(406,648,o),
(492,599,o),
(492,388,cs),
(492,298,ls),
(492,87,o),
(406,38,o),
(300,38,cs)
);
}
);
};
hints = (
{
horizontal = 1;
origin = (1,6);
target = (0,26);
type = Stem;
},
{
horizontal = 1;
origin = (0,22);
target = (1,2);
type = Stem;
},
{
horizontal = 1;
origin = (0,8);
target = (0,17);
type = Stem;
},
{
origin = (0,23);
target = (1,2);
type = Stem;
},
{
origin = (1,3);
target = (0,3);
type = Stem;
}
);
layerId = "1B515DD0-5446-4609-BD2C-839EAA0AE6A8";
shapes = (
{
closed = 1;
nodes = (
(303,-10,ls),
(440,-10,o),
(546,58,o),
(546,330,cs),
(546,356,ls),
(546,630,o),
(442,696,o),
(303,696,cs),
(296,696,ls),
(161,696,o),
(59,616,o),
(59,472,cs),
(59,460,l),
(109,460,l),
(109,469,ls),
(109,588,o),
(189,648,o),
(297,648,cs),
(410,648,o),
(492,600,o),
(492,368,cs),
(492,335,l),
(54,335,l),
(54,320,ls),
(54,50,o),
(166,-10,o),
(300,-10,cs)
);
},
{
closed = 1;
nodes = (
(200,38,o),
(114,83,o),
(108,287,c),
(491,287,l),
(484,86,o),
(403,38,o),
(300,38,cs)
);
}
);
width = 600;
},
{
anchors = (
{
name = bottom;
pos = (300,0);
},
{
name = top;
pos = (300,686);
}
);
background = {
shapes = (
{
closed = 1;
nodes = (
(318,-10,ls),
(486,-10,o),
(598,102,o),
(598,270,cs),
(598,415,ls),
(598,583,o),
(486,696,o),
(318,696,cs),
(282,696,ls),
(114,696,o),
(2,583,o),
(2,415,cs),
(2,270,ls),
(2,102,o),
(114,-10,o),
(282,-10,cs)
);
},
{
closed = 1;
nodes = (
(251,147,o),
(218,177,o),
(218,232,cs),
(218,455,ls),
(218,510,o),
(251,540,o),
(300,540,cs),
(350,540,o),
(383,510,o),
(383,455,cs),
(383,232,ls),
(383,177,o),
(350,147,o),
(300,147,cs)
);
}
);
};
hints = (
{
horizontal = 1;
origin = (0,26);
target = (1,6);
type = Stem;
},
{
horizontal = 1;
origin = (1,2);
target = (0,22);
type = Stem;
},
{
horizontal = 1;
origin = (0,8);
target = (0,17);
type = Stem;
},
{
horizontal = 1;
origin = (0,8);
target = (0,12);
type = Stem;
},
{
origin = (0,23);
target = (1,2);
type = Stem;
},
{
origin = (1,3);
target = (0,3);
type = Stem;
}
);
layerId = "2883A7C2-0A22-4F0A-A898-75B9BDC585A4";
shapes = (
{
closed = 1;
nodes = (
(318,-10,ls),
(486,-10,o),
(598,102,o),
(598,270,cs),
(598,415,ls),
(598,583,o),
(486,696,o),
(318,696,cs),
(282,696,ls),
(136,696,o),
(2,604,o),
(2,451,cs),
(2,437,l),
(218,437,l),
(218,451,ls),
(218,510,o),
(251,540,o),
(300,540,cs),
(350,540,o),
(383,511,o),
(383,437,cs),
(383,375,l),
(2,375,l),
(2,280,ls),
(2,106,o),
(114,-10,o),
(282,-10,cs)
);
},
{
closed = 1;
nodes = (
(242,147,o),
(218,173,o),
(218,247,c),
(383,247,l),
(383,175,o),
(362,147,o),
(300,147,cs)
);
}
);
width = 600;
},
{
associatedMasterId = "1B515DD0-5446-4609-BD2C-839EAA0AE6A8";
layerId = "26F5AAB6-2055-4371-9743-1825ED82AB6B";
width = 600;
},
{
anchors = (
{
name = bottom;
pos = (300,0);
},
{
name = top;
pos = (300,686);
}
);
hints = (
{
horizontal = 1;
origin = (1,6);
target = (0,26);
type = Stem;
},
{
horizontal = 1;
origin = (0,22);
target = (1,2);
type = Stem;
},
{
horizontal = 1;
origin = (0,8);
target = (0,17);
type = Stem;
},
{
origin = (0,23);
target = (1,2);
type = Stem;
},
{
origin = (1,3);
target = (0,3);
type = Stem;
}
);
layerId = "A193C231-D910-4739-84D4-C6814F8A1DBE";
shapes = (
{
closed = 1;
nodes = (
(300,-10,ls),
(450,-10,o),
(569,78,o),
(569,303,cs),
(569,382,ls),
(569,609,o),
(462,696,o),
(310,696,cs),
(290,696,ls),
(150,696,o),
(34,611,o),
(34,463,cs),
(34,450,l),
(157,450,l),
(157,461,ls),
(157,553,o),
(217,600,o),
(298,600,cs),
(383,600,o),
(444,560,o),
(444,399,cs),
(444,353,l),
(31,353,l),
(31,292,ls),
(31,75,o),
(133,-10,o),
(282,-10,cs)
);
},
{
closed = 1;
nodes = (
(219,86,o),
(160,123,o),
(157,269,c),
(443,269,l),
(439,126,o),
(385,86,o),
(300,86,cs)
);
}
);
width = 600;
}
);
note = uni018F;
unicode = 399;
},
{
color = 4;
glyphname = F;
layers = (
{
anchors = (
{
name = bottom;
pos = (300,0);
},
{
name = top;
pos = (300,686);
}
);
hints = (
{
horizontal = 1;
origin = (0,9);
target = up;
type = BottomGhost;
},
{
horizontal = 1;
origin = (0,1);
target = (0,4);
type = Stem;
},
{
horizontal = 1;
origin = (0,8);
target = (0,5);
type = Stem;
},
{
origin = (0,9);
target = (0,0);
type = Stem;
}
);
layerId = "1B515DD0-5446-4609-BD2C-839EAA0AE6A8";
shapes = (
{
closed = 1;
nodes = (
(154,0,l),
(154,326,l),
(447,326,l),
(447,374,l),
(154,374,l),
(154,638,l),
(497,638,l),
(506,686,l),
(100,686,l),
(100,0,l)
);
}
);
width = 600;
},
{
anchors = (
{
name = bottom;
pos = (300,0);
},
{
name = top;
pos = (300,686);
}
);
hints = (
{
horizontal = 1;
origin = (0,9);
target = up;
type = BottomGhost;
},
{
horizontal = 1;
origin = (0,1);
target = (0,4);
type = Stem;
},
{
horizontal = 1;
origin = (0,8);
target = (0,5);
type = Stem;
},
{
origin = (0,9);
target = (0,0);
type = Stem;
}
);
layerId = "2883A7C2-0A22-4F0A-A898-75B9BDC585A4";
shapes = (
{
closed = 1;
nodes = (
(265,0,l),
(265,257,l),
(507,257,l),
(507,411,l),
(265,411,l),
(265,523,l),
(526,523,l),
(546,686,l),
(60,686,l),
(60,0,l)
);
}
);
width = 600;
},
{
associatedMasterId = "1B515DD0-5446-4609-BD2C-839EAA0AE6A8";
layerId = "26F5AAB6-2055-4371-9743-1825ED82AB6B";
width = 600;
},
{
anchors = (
{
name = bottom;
pos = (300,0);
},
{
name = top;
pos = (300,686);
}
);
hints = (
{
horizontal = 1;
origin = (0,9);
target = up;
type = BottomGhost;
},
{
horizontal = 1;
origin = (0,1);
target = (0,4);
type = Stem;
},
{
horizontal = 1;
origin = (0,8);
target = (0,5);
type = Stem;
},
{
origin = (0,9);
target = (0,0);
type = Stem;
}
);
layerId = "A193C231-D910-4739-84D4-C6814F8A1DBE";
shapes = (
{
closed = 1;
nodes = (
(203,0,l),
(203,295,l),
(474,295,l),
(474,390,l),
(203,390,l),
(203,587,l),
(510,587,l),
(524,686,l),
(82,686,l),
(82,0,l)
);
}
);
width = 600;
}
);
note = F;
unicode = 70;
},
{
color = 4;
glyphname = Fhook;
layers = (
{
anchors = (
{
name = bottom;
pos = (300,0);
},
{
name = top;
pos = (300,686);
}
);
background = {
shapes = (
{
closed = 1;
nodes = (
(108,-186,o),
(151,-152,o),
(151,-75,cs),
(151,287,ls),
(151,396,o),
(212,475,o),
(308,475,cs),
(399,475,o),
(451,422,o),
(451,297,cs),
(451,0,l),
(502,0,l),
(502,321,ls),
(502,457,o),
(425,521,o),
(313,521,cs),
(245,521,o),
(179,492,o),
(149,425,c),
(140,511,l),
(100,511,l),
(100,-73,ls),
(100,-132,o),
(71,-140,o),
(43,-140,cs),
(22,-140,o),
(-1,-134,o),
(-19,-124,c),
(-19,-169,l),
(-2,-179,o),
(24,-186,o),
(49,-186,cs)
);
}
);
};
hints = (
{
horizontal = 1;
origin = (0,21);
target = (0,14);
type = Stem;
},
{
horizontal = 1;
origin = (0,3);
target = (0,6);
type = Stem;
},
{
horizontal = 1;
origin = (0,10);
target = (0,7);
type = Stem;
},
{
origin = (0,11);
target = (0,2);
type = Stem;
}
);
layerId = "1B515DD0-5446-4609-BD2C-839EAA0AE6A8";
shapes = (
{
closed = 1;
nodes = (
(108,-186,o),
(154,-152,o),
(154,-75,cs),
(154,326,l),
(447,326,l),
(447,374,l),
(154,374,l),
(154,638,l),
(497,638,l),
(506,686,l),
(100,686,l),
(100,-73,ls),
(100,-132,o),
(71,-140,o),
(43,-140,cs),
(22,-140,o),
(-1,-134,o),
(-19,-124,c),
(-19,-169,l),
(-2,-179,o),
(24,-186,o),
(49,-186,cs)
);
}
);
width = 600;
},
{
anchors = (
{
name = bottom;
pos = (300,0);
},
{
name = top;
pos = (300,686);
}
);
background = {
shapes = (
{
closed = 1;
nodes = (
(180,-187,o),
(258,-134,o),
(258,-26,cs),
(258,325,ls),
(258,358,o),
(277,380,o),
(307,380,cs),
(337,380,o),
(356,358,o),
(356,325,cs),
(356,0,l),
(554,0,l),
(554,361,ls),
(554,458,o),
(489,521,o),
(382,521,cs),
(313,521,o),
(268,501,o),
(236,464,c),
(222,511,l),
(60,511,l),
(60,0,ls),
(60,-55,o),
(31,-65,o),
(3,-65,cs),
(-20,-65,o),
(-46,-59,o),
(-59,-53,c),
(-59,-165,l),
(-29,-180,o),
(34,-187,o),
(70,-187,cs)
);
}
);
};
hints = (
{
horizontal = 1;
origin = (0,21);
target = up;
type = BottomGhost;
},
{
horizontal = 1;
origin = (0,6);
target = (0,3);
type = Stem;
},
{
horizontal = 1;
origin = (0,10);
target = (0,7);
type = Stem;
},
{
horizontal = 1;
origin = (0,14);
target = (0,21);
type = Stem;
},
{
origin = (0,11);
target = (0,2);
type = Stem;
}
);
layerId = "2883A7C2-0A22-4F0A-A898-75B9BDC585A4";
shapes = (
{
closed = 1;
nodes = (
(185,-187,o),
(265,-134,o),
(265,-26,cs),
(265,257,l),
(507,257,l),
(507,411,l),
(265,411,l),
(265,523,l),
(526,523,l),
(546,686,l),
(60,686,l),
(60,0,ls),
(60,-55,o),
(31,-65,o),
(3,-65,cs),
(-20,-65,o),
(-46,-59,o),
(-59,-53,c),
(-59,-165,l),
(-29,-180,o),
(34,-187,o),
(70,-187,cs)
);
}
);
width = 600;
},
{
associatedMasterId = "1B515DD0-5446-4609-BD2C-839EAA0AE6A8";
layerId = "26F5AAB6-2055-4371-9743-1825ED82AB6B";
width = 600;
},
{
anchors = (
{
name = bottom;
pos = (300,0);
},
{
name = top;
pos = (300,686);
}
);
hints = (
{
horizontal = 1;
origin = (0,21);
target = (0,14);
type = Stem;
},
{
horizontal = 1;
origin = (0,3);
target = (0,6);
type = Stem;
},
{
horizontal = 1;
origin = (0,10);
target = (0,7);
type = Stem;
},
{
origin = (0,11);
target = (0,2);
type = Stem;
}
);
layerId = "A193C231-D910-4739-84D4-C6814F8A1DBE";
shapes = (
{
closed = 1;
nodes = (
(142,-186,o),
(203,-144,o),
(203,-53,cs),
(203,295,l),
(474,295,l),
(474,390,l),
(203,390,l),
(203,587,l),
(510,587,l),
(524,686,l),
(82,686,l),
(82,-41,ls),
(82,-98,o),
(53,-107,o),
(25,-107,cs),
(3,-107,o),
(-21,-101,o),
(-37,-92,c),
(-37,-167,l),
(-14,-179,o),
(28,-186,o),
(58,-186,cs)
);
}
);
width = 600;
}
);
note = uni0191;
unicode = 401;
},
{
color = 4;
glyphname = G;
layers = (
{
anchors = (
{
name = bottom;
pos = (305,0);
},
{
name = top;
pos = (305,686);
}
);
background = {
shapes = (
{
closed = 1;
nodes = (
(303,-10,ls),
(437,-10,o),
(546,58,o),
(546,330,cs),
(546,356,ls),
(546,629,o),
(437,696,o),
(301,696,cs),
(298,696,ls),
(169,696,o),
(54,631,o),
(54,356,cs),
(54,330,ls),
(54,55,o),
(164,-10,o),
(300,-10,cs)
);
},
{
closed = 1;
nodes = (
(194,38,o),
(108,91,o),
(108,318,cs),
(108,368,ls),
(108,595,o),
(194,648,o),
(300,648,cs),
(406,648,o),
(492,595,o),
(492,368,cs),
(492,318,ls),
(492,91,o),
(406,38,o),
(300,38,cs)
);
}
);
};
hints = (
{
horizontal = 1;
origin = (0,38);
target = (0,16);
type = Stem;
},
{
horizontal = 1;
origin = (0,11);
target = (0,10);
type = Stem;
},
{
horizontal = 1;
origin = (0,31);
target = (0,23);
type = Stem;
},
{
horizontal = 1;
origin = (0,4);
target = up;
type = BottomGhost;
},
{
origin = (0,35);
target = (0,19);
type = Stem;
},
{
origin = (0,13);
target = (0,8);
type = Stem;
},
{
origin = (0,26);
target = (0,8);
type = Stem;
}
);
layerId = "1B515DD0-5446-4609-BD2C-839EAA0AE6A8";
shapes = (
{
closed = 1;
nodes = (
(303,-10,ls),
(382,-10,o),
(455,20,o),
(496,92,c),
(512,0,l),
(549,0,l),
(546,21,o),
(543,67,o),
(543,119,cs),
(543,350,l),
(271,350,l),
(271,303,l),
(493,303,l),
(493,261,ls),
(493,81,o),
(401,38,o),
(300,38,cs),
(194,38,o),
(108,87,o),
(108,298,cs),
(108,388,ls),
(108,599,o),
(189,648,o),
(299,648,cs),
(396,648,o),
(490,608,o),
(490,449,c),
(543,449,l),
(543,642,o),
(425,696,o),
(303,696,cs),
(298,696,ls),
(159,696,o),
(54,635,o),
(54,376,cs),
(54,310,ls),
(54,51,o),
(164,-10,o),
(300,-10,cs)
);
}
);
width = 600;
},
{
anchors = (
{
name = bottom;
pos = (295,0);
},
{
name = top;
pos = (295,686);
}
);
background = {
shapes = (
{
closed = 1;
nodes = (
(318,-10,ls),
(486,-10,o),
(598,102,o),
(598,270,cs),
(598,415,ls),
(598,583,o),
(486,696,o),
(318,696,cs),
(282,696,ls),
(114,696,o),
(2,583,o),
(2,415,cs),
(2,270,ls),
(2,102,o),
(114,-10,o),
(282,-10,cs)
);
},
{
closed = 1;
nodes = (
(251,147,o),
(218,177,o),
(218,222,cs),
(218,465,ls),
(218,510,o),
(251,540,o),
(300,540,cs),
(350,540,o),
(383,510,o),
(383,465,cs),
(383,222,ls),
(383,177,o),
(350,147,o),
(300,147,cs)
);
}
);
};
hints = (
{
horizontal = 1;
origin = (0,38);
target = (0,16);
type = Stem;
},
{
horizontal = 1;
origin = (0,11);
target = (0,10);
type = Stem;
},
{
horizontal = 1;
origin = (0,31);
target = (0,23);
type = Stem;
},
{
horizontal = 1;
origin = (0,4);
target = up;
type = BottomGhost;
},
{
horizontal = 1;
origin = (0,31);
target = (0,26);
type = Stem;
},
{
origin = (0,35);
target = (0,19);
type = Stem;
},
{
origin = (0,13);
target = (0,8);
type = Stem;
},
{
origin = (0,11);
target = (0,8);
type = Stem;
}
);
layerId = "2883A7C2-0A22-4F0A-A898-75B9BDC585A4";
shapes = (
{
closed = 1;
nodes = (
(282,-10,ls),
(349,-10,o),
(417,25,o),
(444,73,c),
(472,0,l),
(584,0,l),
(579,51,o),
(577,82,o),
(577,144,cs),
(577,384,l),
(299,384,l),
(299,248,l),
(383,248,l),
(383,222,ls),
(383,167,o),
(350,147,o),
(300,147,cs),
(251,147,o),
(218,177,o),
(218,232,cs),
(218,455,ls),
(218,510,o),
(251,540,o),
(300,540,cs),
(383,540,o),
(383,474,o),
(383,439,c),
(577,439,l),
(577,589,o),
(470,696,o),
(318,696,cs),
(282,696,ls),
(114,696,o),
(2,583,o),
(2,415,cs),
(2,270,ls),
(2,102,o),
(114,-10,o),
(269,-10,cs)
);
}
);
width = 600;
},
{
associatedMasterId = "1B515DD0-5446-4609-BD2C-839EAA0AE6A8";
layerId = "26F5AAB6-2055-4371-9743-1825ED82AB6B";
width = 600;
},
{
anchors = (
{
name = bottom;
pos = (301,0);
},
{
name = top;
pos = (301,686);
}
);
hints = (
{
horizontal = 1;
origin = (0,38);
target = (0,16);
type = Stem;
},
{
horizontal = 1;
origin = (0,11);
target = (0,10);
type = Stem;
},
{
horizontal = 1;
origin = (0,31);
target = (0,23);
type = Stem;
},
{
horizontal = 1;
origin = (0,4);
target = up;
type = BottomGhost;
},
{
origin = (0,35);
target = (0,19);
type = Stem;
},
{
origin = (0,13);
target = (0,8);
type = Stem;
},
{
origin = (0,26);
target = (0,8);
type = Stem;
}
);
layerId = "A193C231-D910-4739-84D4-C6814F8A1DBE";
shapes = (
{
closed = 1;
nodes = (
(294,-10,ls),
(367,-10,o),
(438,22,o),
(473,84,c),
(494,0,l),
(565,0,l),
(561,34,o),
(558,74,o),
(558,130,cs),
(558,365,l),
(283,365,l),
(283,279,l),
(444,279,l),
(444,244,ls),
(444,119,o),
(378,86,o),
(300,86,cs),
(219,86,o),
(157,127,o),
(157,269,cs),
(157,418,ls),
(157,559,o),
(217,600,o),
(299,600,cs),
(390,600,o),
(442,548,o),
(442,445,c),
(558,445,l),
(558,618,o),
(445,696,o),
(310,696,cs),
(291,696,ls),
(139,696,o),
(31,612,o),
(31,393,cs),
(31,292,ls),
(31,74,o),
(142,-10,o),
(286,-10,cs)
);
}
);
width = 600;
}
);
note = G;
unicode = 71;
},
{
color = 4;
glyphname = Gstroke;
layers = (
{
background = {
shapes = (
{
closed = 1;
nodes = (
(293,-10,ls),
(376,-10,o),
(455,20,o),
(496,92,c),
(512,0,l),
(549,0,l),
(549,0,o),
(543,48,o),
(543,119,cs),
(543,350,l),
(261,350,l),
(261,303,l),
(493,303,l),
(493,251,ls),
(493,79,o),
(394,38,o),
(289,38,cs),
(172,38,o),
(85,91,o),
(85,318,cs),
(85,368,ls),
(85,595,o),
(172,648,o),
(289,648,cs),
(391,648,o),
(490,608,o),
(490,449,c),
(543,449,l),
(543,642,o),
(424,696,o),
(297,696,cs),
(292,696,ls),
(146,696,o),
(31,631,o),
(31,356,cs),
(31,330,ls),
(31,55,o),
(142,-10,o),
(288,-10,cs)
);
},
{
closed = 1;
nodes = (
(603,170,l),
(603,212,l),
(313,212,l),
(313,170,l)
);
}
);
};
hints = (
{
horizontal = 1;
origin = (0,38);
target = (0,16);
type = Stem;
},
{
horizontal = 1;
origin = (0,11);
target = (0,10);
type = Stem;
},
{
horizontal = 1;
origin = (0,31);
target = (0,23);
type = Stem;
},
{
horizontal = 1;
origin = (0,4);
target = up;
type = BottomGhost;
},
{
origin = (0,35);
target = (0,19);
type = Stem;
},
{
origin = (0,13);
target = (0,8);
type = Stem;
},
{
origin = (0,26);
target = (0,8);
type = Stem;
}
);
layerId = "1B515DD0-5446-4609-BD2C-839EAA0AE6A8";
shapes = (
{
closed = 1;
nodes = (
(303,-10,ls),
(382,-10,o),
(455,20,o),
(496,92,c),
(512,0,l),
(549,0,l),
(546,21,o),
(543,67,o),
(543,119,cs),
(543,350,l),
(271,350,l),
(271,303,l),
(493,303,l),
(493,261,ls),
(493,81,o),
(401,38,o),
(300,38,cs),
(194,38,o),
(108,87,o),
(108,298,cs),
(108,388,ls),
(108,599,o),
(189,648,o),
(299,648,cs),
(396,648,o),
(490,608,o),
(490,449,c),
(543,449,l),
(543,642,o),
(425,696,o),
(303,696,cs),
(298,696,ls),
(159,696,o),
(54,635,o),
(54,376,cs),
(54,310,ls),
(54,51,o),
(164,-10,o),
(300,-10,cs)
);
},
{
closed = 1;
nodes = (
(593,170,l),
(593,212,l),
(313,212,l),
(313,170,l)
);
}
);
width = 600;
},
{
background = {
shapes = (
{
closed = 1;
nodes = (
(274,-10,ls),
(353,-10,o),
(432,22,o),
(474,84,c),
(495,0,l),
(565,0,l),
(563,23,o),
(559,63,o),
(559,130,cs),
(559,365,l),
(264,365,l),
(264,279,l),
(445,279,l),
(445,244,ls),
(445,121,o),
(373,86,o),
(285,86,cs),
(193,86,o),
(127,135,o),
(127,286,cs),
(127,400,ls),
(127,551,o),
(193,600,o),
(285,600,cs),
(372,600,o),
(443,562,o),
(443,445,c),
(559,445,l),
(559,618,o),
(437,696,o),
(296,696,cs),
(281,696,ls),
(117,696,o),
(-3,600,o),
(-3,374,cs),
(-3,312,ls),
(-3,86,o),
(112,-10,o),
(267,-10,cs)
);
},
{
closed = 1;
nodes = (
(619,157,l),
(619,225,l),
(302,225,l),
(302,157,l)
);
}
);
};
hints = (
{
horizontal = 1;
origin = (0,38);
target = (0,16);
type = Stem;
},
{
horizontal = 1;
origin = (0,11);
target = (0,10);
type = Stem;
},
{
horizontal = 1;
origin = (0,31);
target = (0,23);
type = Stem;
},
{
horizontal = 1;
origin = (0,4);
target = up;
type = BottomGhost;
},
{
origin = (0,35);
target = (0,19);
type = Stem;
},
{
origin = (0,13);
target = (0,8);
type = Stem;
},
{
origin = (0,26);
target = (0,8);
type = Stem;
}
);
layerId = "A193C231-D910-4739-84D4-C6814F8A1DBE";
shapes = (
{
closed = 1;
nodes = (
(294,-10,ls),
(367,-10,o),
(438,22,o),
(473,84,c),
(494,0,l),
(565,0,l),
(561,34,o),
(558,74,o),
(558,130,cs),
(558,365,l),
(283,365,l),
(283,279,l),
(444,279,l),
(444,244,ls),
(444,119,o),
(378,86,o),
(300,86,cs),
(219,86,o),
(157,127,o),
(157,269,cs),
(157,418,ls),
(157,559,o),
(217,600,o),
(299,600,cs),
(390,600,o),
(442,548,o),
(442,445,c),
(558,445,l),
(558,618,o),
(445,696,o),
(310,696,cs),
(291,696,ls),
(139,696,o),
(31,612,o),
(31,393,cs),
(31,292,ls),
(31,74,o),
(142,-10,o),
(286,-10,cs)
);
},
{
closed = 1;
nodes = (
(609,157,l),
(609,225,l),
(302,225,l),
(302,157,l)
);
}
);
width = 600;
},
{
background = {
shapes = (
{
closed = 1;
nodes = (
(248,-10,ls),
(322,-10,o),
(402,25,o),
(444,73,c),
(472,0,l),
(584,0,l),
(579,51,o),
(577,82,o),
(577,144,cs),
(577,384,l),
(267,384,l),
(267,278,l),
(383,278,l),
(383,215,ls),
(383,152,o),
(346,126,o),
(278,126,cs),
(217,126,o),
(177,170,o),
(177,226,cs),
(177,440,ls),
(177,496,o),
(217,540,o),
(278,540,cs),
(346,540,o),
(383,504,o),
(383,439,c),
(577,439,l),
(577,589,o),
(456,696,o),
(299,696,cs),
(271,696,ls),
(83,696,o),
(-48,562,o),
(-48,396,cs),
(-48,290,ls),
(-48,124,o),
(73,-10,o),
(238,-10,cs)
);
},
{
closed = 1;
nodes = (
(617,176,l),
(617,244,l),
(295,244,l),
(295,176,l)
);
}
);
};
hints = (
{
horizontal = 1;
origin = (0,38);
target = (0,16);
type = Stem;
},
{
horizontal = 1;
origin = (0,11);
target = (0,10);
type = Stem;
},
{
horizontal = 1;
origin = (0,31);
target = (0,23);
type = Stem;
},
{
horizontal = 1;
origin = (0,4);
target = up;
type = BottomGhost;
},
{
horizontal = 1;
origin = (0,31);
target = (0,26);
type = Stem;
},
{
origin = (0,35);
target = (0,19);
type = Stem;
},
{
origin = (0,13);
target = (0,8);
type = Stem;
},
{
origin = (0,11);
target = (0,8);
type = Stem;
}
);
layerId = "2883A7C2-0A22-4F0A-A898-75B9BDC585A4";
shapes = (
{
closed = 1;
nodes = (
(282,-10,ls),
(349,-10,o),
(417,25,o),
(444,73,c),
(472,0,l),
(584,0,l),
(579,51,o),
(577,82,o),
(577,144,cs),
(577,384,l),
(299,384,l),
(299,278,l),
(383,278,l),
(383,201,ls),
(383,146,o),
(350,126,o),
(300,126,cs),
(251,126,o),
(218,156,o),
(218,211,cs),
(218,455,ls),
(218,510,o),
(251,540,o),
(300,540,cs),
(383,540,o),
(383,474,o),
(383,439,c),
(577,439,l),
(577,589,o),
(470,696,o),
(318,696,cs),
(282,696,ls),
(114,696,o),
(2,583,o),
(2,415,cs),
(2,270,ls),
(2,102,o),
(114,-10,o),
(269,-10,cs)
);
},
{
closed = 1;
nodes = (
(617,176,l),
(617,244,l),
(295,244,l),
(295,176,l)
);
}
);
width = 600;
}
);
unicode = 484;
},
{
color = 4;
glyphname = H;
layers = (
{
anchors = (
{
name = bottom;
pos = (300,0);
},
{
name = center;
pos = (300,530);
},
{
name = top;
pos = (300,686);
},
{
name = topleft;
pos = (90,686);
}
);
hints = (
{
horizontal = 1;
origin = (0,11);
target = up;
type = BottomGhost;
},
{
horizontal = 1;
origin = (0,1);
target = (0,8);
type = Stem;
},
{
horizontal = 1;
origin = (0,10);
target = down;
type = TopGhost;
},
{
origin = (0,11);
target = (0,0);
type = Stem;
},
{
origin = (0,3);
target = (0,4);
type = Stem;
}
);
layerId = "1B515DD0-5446-4609-BD2C-839EAA0AE6A8";
shapes = (
{
closed = 1;
nodes = (
(144,0,l),
(144,326,l),
(456,326,l),
(456,0,l),
(510,0,l),
(510,686,l),
(456,686,l),
(456,374,l),
(144,374,l),
(144,686,l),
(90,686,l),
(90,0,l)
);
}
);
userData = {
assembly = "NPUSHB[ ]	/* 36 values pushed */
0 3 0 0 1 3 0 101 4 1 2 2 17 75 6 5 2 1 1 18 1 76 0 0 0 11 0 11 17 17 17 17 17 7 7 25 
CALL[ ]	/* CallFunction */";
};
width = 600;
},
{
anchors = (
{
name = bottom;
pos = (300,0);
},
{
name = center;
pos = (300,560);
},
{
name = top;
pos = (300,686);
},
{
name = topleft;
pos = (40,686);
}
);
hints = (
{
horizontal = 1;
origin = (0,11);
target = up;
type = BottomGhost;
},
{
horizontal = 1;
origin = (0,1);
target = (0,8);
type = Stem;
},
{
horizontal = 1;
origin = (0,10);
target = down;
type = TopGhost;
},
{
origin = (0,11);
target = (0,0);
type = Stem;
},
{
origin = (0,3);
target = (0,4);
type = Stem;
}
);
layerId = "2883A7C2-0A22-4F0A-A898-75B9BDC585A4";
shapes = (
{
closed = 1;
nodes = (
(240,0,l),
(240,267,l),
(360,267,l),
(360,0,l),
(560,0,l),
(560,686,l),
(360,686,l),
(360,433,l),
(240,433,l),
(240,686,l),
(40,686,l),
(40,0,l)
);
}
);
userData = {
assembly = "NPUSHB[ ]	/* 30 values pushed */
0 4 0 1 0 4 1 101 5 1 3 3 17 75 2 1 0 0 18 0 76 17 17 17 17 17 16 6 7 26 
CALL[ ]	/* CallFunction */";
};
width = 600;
},
{
associatedMasterId = "1B515DD0-5446-4609-BD2C-839EAA0AE6A8";
layerId = "26F5AAB6-2055-4371-9743-1825ED82AB6B";
width = 600;
},
{
anchors = (
{
name = bottom;
pos = (300,0);
},
{
name = center;
pos = (300,543);
},
{
name = top;
pos = (300,686);
},
{
name = topleft;
pos = (68,686);
}
);
hints = (
{
horizontal = 1;
origin = (0,11);
target = up;
type = BottomGhost;
},
{
horizontal = 1;
origin = (0,1);
target = (0,8);
type = Stem;
},
{
horizontal = 1;
origin = (0,10);
target = down;
type = TopGhost;
},
{
origin = (0,11);
target = (0,0);
type = Stem;
},
{
origin = (0,3);
target = (0,4);
type = Stem;
}
);
layerId = "A193C231-D910-4739-84D4-C6814F8A1DBE";
shapes = (
{
closed = 1;
nodes = (
(187,0,l),
(187,300,l),
(413,300,l),
(413,0,l),
(532,0,l),
(532,686,l),
(413,686,l),
(413,400,l),
(187,400,l),
(187,686,l),
(68,686,l),
(68,0,l)
);
}
);
userData = {
assembly = "NPUSHB[ ]	/* 36 values pushed */
0 3 0 0 1 3 0 101 4 1 2 2 17 75 6 5 2 1 1 18 1 76 0 0 0 11 0 11 17 17 17 17 17 7 7 25 
CALL[ ]	/* CallFunction */";
};
width = 600;
}
);
note = H;
unicode = 72;
},
{
color = 1;
glyphname = Hbar;
layers = (
{
background = {
shapes = (
{
closed = 1;
nodes = (
(161,0,l),
(161,326,l),
(532,326,l),
(532,0,l),
(586,0,l),
(586,517,l),
(642,517,l),
(642,559,l),
(586,559,l),
(586,686,l),
(532,686,l),
(532,559,l),
(161,559,l),
(161,686,l),
(107,686,l),
(107,559,l),
(52,559,l),
(52,517,l),
(107,517,l),
(107,0,l)
);
},
{
closed = 1;
nodes = (
(161,517,l),
(532,517,l),
(532,374,l),
(161,374,l)
);
}
);
};
layerId = "1B515DD0-5446-4609-BD2C-839EAA0AE6A8";
shapes = (
{
ref = H;
},
{
pos = (0,160);
ref = strokelongcomb;
}
);
width = 600;
},
{
background = {
shapes = (
{
closed = 1;
nodes = (
(268,0,l),
(268,267,l),
(430,267,l),
(430,0,l),
(640,0,l),
(640,484,l),
(712,484,l),
(712,610,l),
(640,610,l),
(640,686,l),
(429,686,l),
(429,610,l),
(267,610,l),
(267,686,l),
(57,686,l),
(57,610,l),
(-12,610,l),
(-12,484,l),
(57,484,l),
(57,0,l)
);
},
{
closed = 1;
nodes = (
(267,484,l),
(429,484,l),
(429,433,l),
(267,433,l)
);
}
);
};
layerId = "2883A7C2-0A22-4F0A-A898-75B9BDC585A4";
shapes = (
{
ref = H;
},
{
pos = (0,184);
ref = strokelongcomb;
}
);
width = 600;
},
{
associatedMasterId = "1B515DD0-5446-4609-BD2C-839EAA0AE6A8";
layerId = "26F5AAB6-2055-4371-9743-1825ED82AB6B";
width = 600;
},
{
layerId = "A193C231-D910-4739-84D4-C6814F8A1DBE";
shapes = (
{
ref = H;
},
{
pos = (0,170);
ref = strokelongcomb;
}
);
width = 600;
}
);
note = Hbar;
unicode = 294;
},
{
color = 4;
glyphname = I;
layers = (
{
anchors = (
{
name = bottom;
pos = (300,0);
},
{
name = center;
pos = (300,343);
},
{
name = ogonek;
pos = (466,0);
},
{
name = top;
pos = (300,686);
},
{
name = topleft;
pos = (134,686);
}
);
background = {
shapes = (
{
closed = 1;
nodes = (
(406,0,l),
(406,49,l),
(327,49,l),
(327,637,l),
(406,637,l),
(406,686,l),
(194,686,l),
(194,637,l),
(273,637,l),
(273,49,l),
(194,49,l),
(194,0,l)
);
}
);
};
hints = (
{
horizontal = 1;
origin = (0,11);
target = (0,10);
type = Stem;
},
{
horizontal = 1;
origin = (0,6);
target = (0,7);
type = Stem;
},
{
origin = (0,9);
target = (0,2);
type = Stem;
}
);
layerId = "1B515DD0-5446-4609-BD2C-839EAA0AE6A8";
shapes = (
{
closed = 1;
nodes = (
(466,0,l),
(466,49,l),
(327,49,l),
(327,637,l),
(466,637,l),
(466,686,l),
(134,686,l),
(134,637,l),
(273,637,l),
(273,49,l),
(134,49,l),
(134,0,l)
);
}
);
width = 600;
},
{
anchors = (
{
name = bottom;
pos = (300,0);
},
{
name = center;
pos = (302,343);
},
{
name = ogonek;
pos = (547,0);
},
{
name = top;
pos = (300,686);
},
{
name = topleft;
pos = (53,686);
}
);
background = {
shapes = (
{
closed = 1;
nodes = (
(487,0,l),
(487,148,l),
(406,148,l),
(406,539,l),
(487,539,l),
(487,686,l),
(113,686,l),
(113,539,l),
(194,539,l),
(194,148,l),
(113,148,l),
(113,0,l)
);
}
);
};
hints = (
{
horizontal = 1;
origin = (0,11);
target = (0,10);
type = Stem;
},
{
horizontal = 1;
origin = (0,6);
target = (0,7);
type = Stem;
},
{
origin = (0,9);
target = (0,2);
type = Stem;
}
);
layerId = "2883A7C2-0A22-4F0A-A898-75B9BDC585A4";
shapes = (
{
closed = 1;
nodes = (
(547,0,l),
(547,148,l),
(405,148,l),
(405,539,l),
(547,539,l),
(547,686,l),
(53,686,l),
(53,539,l),
(195,539,l),
(195,148,l),
(53,148,l),
(53,0,l)
);
}
);
width = 600;
},
{
associatedMasterId = "1B515DD0-5446-4609-BD2C-839EAA0AE6A8";
layerId = "26F5AAB6-2055-4371-9743-1825ED82AB6B";
width = 600;
},
{
anchors = (
{
name = bottom;
pos = (300,0);
},
{
name = center;
pos = (300,343);
},
{
name = ogonek;
pos = (502,0);
},
{
name = top;
pos = (300,686);
},
{
name = topleft;
pos = (98,686);
}
);
hints = (
{
horizontal = 1;
origin = (0,11);
target = (0,10);
type = Stem;
},
{
horizontal = 1;
origin = (0,6);
target = (0,7);
type = Stem;
},
{
origin = (0,9);
target = (0,2);
type = Stem;
}
);
layerId = "A193C231-D910-4739-84D4-C6814F8A1DBE";
shapes = (
{
closed = 1;
nodes = (
(502,0,l),
(502,93,l),
(362,93,l),
(362,593,l),
(502,593,l),
(502,686,l),
(98,686,l),
(98,593,l),
(238,593,l),
(238,93,l),
(98,93,l),
(98,0,l)
);
}
);
width = 600;
}
);
note = I;
unicode = 73;
},
{
color = 4;
glyphname = IJ;
layers = (
{
hints = (
{
horizontal = 1;
origin = (1,18);
target = (1,9);
type = Stem;
},
{
horizontal = 1;
origin = (0,2);
target = down;
type = TopGhost;
},
{
origin = (1,15);
target = (1,12);
type = Stem;
},
{
origin = (1,6);
target = (1,3);
type = Stem;
}
);
layerId = "1B515DD0-5446-4609-BD2C-839EAA0AE6A8";
shapes = (
{
closed = 1;
nodes = (
(144,298,l),
(144,686,l),
(90,686,l),
(90,298,l)
);
},
{
closed = 1;
nodes = (
(302,-10,ls),
(431,-10,o),
(510,61,o),
(510,176,cs),
(510,686,l),
(456,686,l),
(456,176,ls),
(456,91,o),
(397,38,o),
(301,38,cs),
(203,38,o),
(144,91,o),
(144,176,cs),
(144,218,l),
(90,218,l),
(90,176,ls),
(90,61,o),
(169,-10,o),
(298,-10,cs)
);
}
);
width = 600;
},
{
guides = (
{
pos = (145,686);
}
);
hints = (
{
horizontal = 1;
origin = (1,14);
target = (1,18);
type = Stem;
},
{
horizontal = 1;
origin = (0,2);
target = down;
type = TopGhost;
},
{
horizontal = 1;
origin = (1,9);
target = (1,18);
type = Stem;
},
{
origin = (1,15);
target = (1,12);
type = Stem;
},
{
origin = (1,6);
target = (1,3);
type = Stem;
}
);
layerId = "2883A7C2-0A22-4F0A-A898-75B9BDC585A4";
shapes = (
{
closed = 1;
nodes = (
(250,258,l),
(250,686,l),
(40,686,l),
(40,258,l)
);
},
{
closed = 1;
nodes = (
(330,-10,ls),
(464,-10,o),
(560,55,o),
(560,180,cs),
(560,686,l),
(355,686,l),
(355,186,ls),
(355,158,o),
(331,140,o),
(302,140,cs),
(273,140,o),
(250,158,o),
(250,186,cs),
(250,218,l),
(40,218,l),
(40,180,ls),
(40,57,o),
(140,-10,o),
(299,-10,cs)
);
}
);
width = 600;
},
{
associatedMasterId = "1B515DD0-5446-4609-BD2C-839EAA0AE6A8";
layerId = "26F5AAB6-2055-4371-9743-1825ED82AB6B";
width = 600;
},
{
hints = (
{
horizontal = 1;
origin = (1,18);
target = (1,9);
type = Stem;
},
{
horizontal = 1;
origin = (0,2);
target = down;
type = TopGhost;
},
{
origin = (1,15);
target = (1,12);
type = Stem;
},
{
origin = (1,6);
target = (1,3);
type = Stem;
}
);
layerId = "A193C231-D910-4739-84D4-C6814F8A1DBE";
shapes = (
{
closed = 1;
nodes = (
(191,280,l),
(191,686,l),
(68,686,l),
(68,280,l)
);
},
{
closed = 1;
nodes = (
(314,-10,ls),
(446,-10,o),
(532,58,o),
(532,178,cs),
(532,686,l),
(411,686,l),
(411,180,ls),
(411,121,o),
(368,83,o),
(301,83,cs),
(234,83,o),
(191,121,o),
(191,180,cs),
(191,218,l),
(68,218,l),
(68,178,ls),
(68,59,o),
(156,-10,o),
(298,-10,cs)
);
}
);
width = 600;
}
);
note = IJ;
unicode = 306;
},
{
color = 1;
glyphname = Iogonek;
layers = (
{
background = {
shapes = (
{
closed = 1;
nodes = (
(296,-143,o),
(325,-135,o),
(351,-119,c),
(338,-86,l),
(317,-93,o),
(295,-100,o),
(271,-100,cs),
(250,-100,o),
(227,-91,o),
(227,-60,cs),
(227,-39,o),
(239,-19,o),
(274,0,c),
(288,0,l),
(288,49,l),
(209,49,l),
(209,637,l),
(288,637,l),
(288,686,l),
(76,686,l),
(76,637,l),
(155,637,l),
(155,49,l),
(76,49,l),
(76,0,l),
(224,0,l),
(198,-12,o),
(170,-39,o),
(170,-71,cs),
(170,-126,o),
(221,-143,o),
(267,-143,cs)
);
}
);
};
layerId = "1B515DD0-5446-4609-BD2C-839EAA0AE6A8";
shapes = (
{
ref = I;
},
{
pos = (86,0);
ref = ogonekcomb;
}
);
width = 600;
},
{
background = {
shapes = (
{
closed = 1;
nodes = (
(410,-143,o),
(445,-135,o),
(477,-119,c),
(464,-76,l),
(443,-84,o),
(420,-90,o),
(397,-90,cs),
(376,-90,o),
(353,-83,o),
(353,-56,cs),
(353,-29,o),
(381,-12,o),
(400,0,c),
(410,0,l),
(410,148,l),
(329,148,l),
(329,539,l),
(410,539,l),
(410,686,l),
(36,686,l),
(36,539,l),
(117,539,l),
(117,148,l),
(36,148,l),
(36,0,l),
(316,0,l),
(295,-15,o),
(276,-39,o),
(276,-71,cs),
(276,-126,o),
(327,-143,o),
(373,-143,cs)
);
}
);
};
layerId = "2883A7C2-0A22-4F0A-A898-75B9BDC585A4";
shapes = (
{
ref = I;
},
{
pos = (128,0);
ref = ogonekcomb;
}
);
width = 600;
},
{
associatedMasterId = "1B515DD0-5446-4609-BD2C-839EAA0AE6A8";
layerId = "26F5AAB6-2055-4371-9743-1825ED82AB6B";
width = 600;
},
{
layerId = "A193C231-D910-4739-84D4-C6814F8A1DBE";
shapes = (
{
ref = I;
},
{
pos = (106,0);
ref = ogonekcomb;
}
);
width = 600;
}
);
note = Iogonek;
unicode = 302;
},
{
color = 3;
glyphname = Istroke;
layers = (
{
layerId = "1B515DD0-5446-4609-BD2C-839EAA0AE6A8";
shapes = (
{
ref = I;
},
{
closed = 1;
nodes = (
(154,321,l),
(446,321,l),
(446,367,l),
(154,367,l)
);
}
);
width = 600;
},
{
layerId = "A193C231-D910-4739-84D4-C6814F8A1DBE";
shapes = (
{
ref = I;
},
{
closed = 1;
nodes = (
(124,299,l),
(475,299,l),
(475,389,l),
(124,389,l)
);
}
);
width = 600;
},
{
layerId = "2883A7C2-0A22-4F0A-A898-75B9BDC585A4";
shapes = (
{
ref = I;
},
{
closed = 1;
nodes = (
(76,277,l),
(528,277,l),
(528,411,l),
(76,411,l)
);
}
);
width = 600;
}
);
unicode = 407;
},
{
color = 4;
glyphname = J;
layers = (
{
anchors = (
{
name = bottom;
pos = (300,0);
},
{
name = top;
pos = (465,686);
}
);
hints = (
{
horizontal = 1;
origin = (0,9);
target = (0,18);
type = Stem;
},
{
horizontal = 1;
origin = (0,5);
target = down;
type = TopGhost;
},
{
origin = (0,15);
target = (0,12);
type = Stem;
},
{
origin = (0,6);
target = (0,3);
type = Stem;
}
);
layerId = "1B515DD0-5446-4609-BD2C-839EAA0AE6A8";
shapes = (
{
closed = 1;
nodes = (
(299,-10,ls),
(405,-10,o),
(491,50,o),
(491,166,cs),
(491,686,l),
(437,686,l),
(437,172,ls),
(437,78,o),
(375,38,o),
(298,38,cs),
(221,38,o),
(159,77,o),
(159,172,cs),
(159,185,l),
(109,185,l),
(109,166,ls),
(109,51,o),
(191,-10,o),
(295,-10,cs)
);
}
);
width = 600;
},
{
anchors = (
{
name = bottom;
pos = (300,0);
},
{
name = top;
pos = (438,686);
}
);
hints = (
{
horizontal = 1;
origin = (0,9);
target = (0,18);
type = Stem;
},
{
horizontal = 1;
origin = (0,5);
target = down;
type = TopGhost;
},
{
horizontal = 1;
origin = (0,14);
target = (0,18);
type = Stem;
},
{
origin = (0,15);
target = (0,12);
type = Stem;
},
{
origin = (0,6);
target = (0,3);
type = Stem;
}
);
layerId = "2883A7C2-0A22-4F0A-A898-75B9BDC585A4";
shapes = (
{
closed = 1;
nodes = (
(311,-10,ls),
(445,-10,o),
(541,55,o),
(541,180,cs),
(541,686,l),
(336,686,l),
(336,186,ls),
(336,158,o),
(317,140,o),
(294,140,cs),
(271,140,o),
(253,158,o),
(253,186,cs),
(253,248,l),
(60,248,l),
(60,180,ls),
(60,57,o),
(145,-10,o),
(280,-10,cs)
);
}
);
width = 600;
},
{
associatedMasterId = "1B515DD0-5446-4609-BD2C-839EAA0AE6A8";
layerId = "26F5AAB6-2055-4371-9743-1825ED82AB6B";
width = 600;
},
{
anchors = (
{
name = bottom;
pos = (300,0);
},
{
name = top;
pos = (453,686);
}
);
hints = (
{
horizontal = 1;
origin = (0,9);
target = (0,18);
type = Stem;
},
{
horizontal = 1;
origin = (0,5);
target = down;
type = TopGhost;
},
{
origin = (0,15);
target = (0,12);
type = Stem;
},
{
origin = (0,6);
target = (0,3);
type = Stem;
}
);
layerId = "A193C231-D910-4739-84D4-C6814F8A1DBE";
shapes = (
{
closed = 1;
nodes = (
(304,-10,ls),
(423,-10,o),
(513,52,o),
(513,172,cs),
(513,686,l),
(392,686,l),
(392,178,ls),
(392,114,o),
(349,83,o),
(296,83,cs),
(243,83,o),
(201,113,o),
(201,178,cs),
(201,213,l),
(87,213,l),
(87,172,ls),
(87,54,o),
(171,-10,o),
(288,-10,cs)
);
}
);
width = 600;
}
);
note = J;
unicode = 74;
},
{
color = 4;
glyphname = K;
layers = (
{
anchors = (
{
name = bottom;
pos = (300,0);
},
{
name = top;
pos = (300,686);
}
);
hints = (
{
horizontal = 1;
origin = (0,11);
target = up;
type = BottomGhost;
},
{
horizontal = 1;
origin = (0,10);
target = down;
type = TopGhost;
},
{
origin = (0,11);
target = (0,0);
type = Stem;
}
);
layerId = "1B515DD0-5446-4609-BD2C-839EAA0AE6A8";
shapes = (
{
closed = 1;
nodes = (
(144,0,l),
(144,208,l),
(267,346,l),
(511,0,l),
(579,0,l),
(304,387,l),
(571,686,l),
(507,686,l),
(144,279,l),
(144,686,l),
(90,686,l),
(90,0,l)
);
}
);
width = 600;
},
{
anchors = (
{
name = bottom;
pos = (300,0);
},
{
name = top;
pos = (300,686);
}
);
background = {
shapes = (
{
closed = 1;
nodes = (
(244,0,l),
(244,152,l),
(324,248,l),
(443,0,l),
(678,0,l),
(463,411,l),
(672,686,l),
(440,686,l),
(244,415,l),
(244,686,l),
(40,686,l),
(40,0,l)
);
}
);
};
hints = (
{
horizontal = 1;
origin = (0,11);
target = up;
type = BottomGhost;
},
{
horizontal = 1;
origin = (0,10);
target = down;
type = TopGhost;
},
{
origin = (0,11);
target = (0,0);
type = Stem;
}
);
layerId = "2883A7C2-0A22-4F0A-A898-75B9BDC585A4";
shapes = (
{
closed = 1;
nodes = (
(240,0,l),
(240,152,l),
(268,217,l),
(376,0,l),
(600,0,l),
(431,338,l),
(586,686,l),
(378,686,l),
(240,377,l),
(240,686,l),
(40,686,l),
(40,0,l)
);
}
);
width = 600;
},
{
associatedMasterId = "1B515DD0-5446-4609-BD2C-839EAA0AE6A8";
layerId = "26F5AAB6-2055-4371-9743-1825ED82AB6B";
width = 600;
},
{
anchors = (
{
name = bottom;
pos = (300,0);
},
{
name = top;
pos = (300,686);
}
);
hints = (
{
horizontal = 1;
origin = (0,11);
target = up;
type = BottomGhost;
},
{
horizontal = 1;
origin = (0,10);
target = down;
type = TopGhost;
},
{
origin = (0,11);
target = (0,0);
type = Stem;
}
);
layerId = "A193C231-D910-4739-84D4-C6814F8A1DBE";
shapes = (
{
closed = 1;
nodes = (
(187,0,l),
(187,183,l),
(267,289,l),
(451,0,l),
(588,0,l),
(360,365,l),
(578,686,l),
(450,686,l),
(187,323,l),
(187,686,l),
(68,686,l),
(68,0,l)
);
}
);
width = 600;
}
);
note = K;
unicode = 75;
},
{
color = 4;
glyphname = L;
layers = (
{
anchors = (
{
name = bottom;
pos = (325,0);
},
{
name = center;
pos = (170,350);
},
{
name = top;
pos = (147,686);
},
{
name = topright;
pos = (411,511);
}
);
background = {
anchors = (
{
name = bottom;
pos = (295,0);
},
{
name = center;
pos = (140,350);
},
{
name = top;
pos = (117,686);
},
{
name = topright;
pos = (381,511);
}
);
shapes = (
{
closed = 1;
nodes = (
(496,0,l),
(484,48,l),
(144,48,l),
(144,686,l),
(90,686,l),
(90,0,l)
);
}
);
};
hints = (
{
horizontal = 1;
origin = (0,2);
target = (0,5);
type = Stem;
},
{
horizontal = 1;
origin = (0,4);
target = down;
type = TopGhost;
},
{
origin = (0,5);
target = (0,2);
type = Stem;
}
);
layerId = "1B515DD0-5446-4609-BD2C-839EAA0AE6A8";
shapes = (
{
closed = 1;
nodes = (
(526,0,l),
(514,48,l),
(174,48,l),
(174,686,l),
(120,686,l),
(120,0,l)
);
}
);
width = 600;
},
{
anchors = (
{
name = bottom;
pos = (320,0);
},
{
name = center;
pos = (216,350);
},
{
name = top;
pos = (176,686);
},
{
name = topright;
pos = (346,511);
}
);
background = {
anchors = (
{
name = bottom;
pos = (290,0);
},
{
name = center;
pos = (186,350);
},
{
name = top;
pos = (146,686);
},
{
name = topright;
pos = (316,511);
}
);
shapes = (
{
closed = 1;
nodes = (
(521,0,l),
(501,168,l),
(250,168,l),
(250,686,l),
(40,686,l),
(40,0,l)
);
}
);
};
hints = (
{
horizontal = 1;
origin = (0,2);
target = (0,5);
type = Stem;
},
{
horizontal = 1;
origin = (0,4);
target = down;
type = TopGhost;
},
{
origin = (0,5);
target = (0,2);
type = Stem;
}
);
layerId = "2883A7C2-0A22-4F0A-A898-75B9BDC585A4";
shapes = (
{
closed = 1;
nodes = (
(551,0,l),
(531,168,l),
(280,168,l),
(280,686,l),
(70,686,l),
(70,0,l)
);
}
);
width = 600;
},
{
associatedMasterId = "1B515DD0-5446-4609-BD2C-839EAA0AE6A8";
layerId = "26F5AAB6-2055-4371-9743-1825ED82AB6B";
width = 600;
},
{
anchors = (
{
name = bottom;
pos = (323,0);
},
{
name = center;
pos = (190,350);
},
{
name = top;
pos = (160,686);
},
{
name = topright;
pos = (382,511);
}
);
background = {
anchors = (
{
name = bottom;
pos = (293,0);
},
{
name = center;
pos = (160,350);
},
{
name = top;
pos = (130,686);
},
{
name = topright;
pos = (352,511);
}
);
shapes = (
{
closed = 1;
nodes = (
(507,0,l),
(492,101,l),
(191,101,l),
(191,686,l),
(68,686,l),
(68,0,l)
);
}
);
};
hints = (
{
horizontal = 1;
origin = (0,2);
target = (0,5);
type = Stem;
},
{
horizontal = 1;
origin = (0,4);
target = down;
type = TopGhost;
},
{
origin = (0,5);
target = (0,2);
type = Stem;
}
);
layerId = "A193C231-D910-4739-84D4-C6814F8A1DBE";
shapes = (
{
closed = 1;
nodes = (
(537,0,l),
(522,101,l),
(221,101,l),
(221,686,l),
(98,686,l),
(98,0,l)
);
}
);
width = 600;
}
);
note = L;
unicode = 76;
},
{
color = 4;
glyphname = LJ;
layers = (
{
background = {
shapes = (
{
closed = 1;
nodes = (
(196,0,l),
(184,48,l),
(144,48,l),
(144,686,l),
(90,686,l),
(90,0,l)
);
},
{
closed = 1;
nodes = (
(323,-10,ls),
(429,-10,o),
(515,50,o),
(515,166,cs),
(515,686,l),
(461,686,l),
(461,172,ls),
(461,78,o),
(399,38,o),
(322,38,cs),
(245,38,o),
(183,77,o),
(183,172,cs),
(183,185,l),
(133,185,l),
(133,166,ls),
(133,51,o),
(215,-10,o),
(319,-10,cs)
);
},
{
closed = 1;
nodes = (
(290,-186,o),
(350,-143,o),
(350,-45,cs),
(350,511,l),
(104,511,l),
(104,465,l),
(299,465,l),
(299,-43,ls),
(299,-128,o),
(250,-140,o),
(202,-140,cs),
(172,-140,o),
(135,-130,o),
(104,-114,c),
(104,-159,l),
(130,-175,o),
(170,-186,o),
(208,-186,cs)
);
}
);
};
hints = (
{
horizontal = 1;
origin = (1,5);
target = (1,2);
type = Stem;
},
{
horizontal = 1;
origin = (1,4);
target = down;
type = TopGhost;
},
{
horizontal = 1;
origin = (0,18);
target = (0,9);
type = Stem;
},
{
origin = (1,5);
target = (1,2);
type = Stem;
},
{
origin = (0,15);
target = (0,12);
type = Stem;
},
{
origin = (0,6);
target = (0,3);
type = Stem;
}
);
layerId = "1B515DD0-5446-4609-BD2C-839EAA0AE6A8";
shapes = (
{
closed = 1;
nodes = (
(338,-186,ls),
(446,-186,o),
(510,-118,o),
(510,-4,cs),
(510,686,l),
(456,686,l),
(456,-4,ls),
(456,-88,o),
(412,-138,o),
(335,-138,cs),
(262,-138,o),
(218,-107,o),
(218,-54,cs),
(218,-41,l),
(168,-41,l),
(168,-60,ls),
(168,-139,o),
(230,-186,o),
(334,-186,cs)
);
},
{
closed = 1;
nodes = (
(386,0,l),
(374,48,l),
(144,48,l),
(144,686,l),
(90,686,l),
(90,0,l)
);
}
);
width = 600;
},
{
background = {
shapes = (
{
closed = 1;
nodes = (
(484,-187,o),
(561,-116,o),
(561,20,cs),
(561,511,l),
(204,511,l),
(204,369,l),
(364,369,l),
(364,20,ls),
(364,-47,o),
(333,-55,o),
(296,-55,cs),
(256,-55,o),
(219,-40,o),
(204,-33,c),
(204,-155,l),
(241,-175,o),
(299,-187,o),
(358,-187,cs)
);
}
);
};
hints = (
{
horizontal = 1;
origin = (1,5);
target = (1,2);
type = Stem;
},
{
horizontal = 1;
origin = (1,4);
target = down;
type = TopGhost;
},
{
horizontal = 1;
origin = (0,18);
target = (0,9);
type = Stem;
},
{
horizontal = 1;
origin = (0,18);
target = (0,14);
type = Stem;
},
{
origin = (1,5);
target = (1,2);
type = Stem;
},
{
origin = (0,15);
target = (0,12);
type = Stem;
},
{
origin = (0,6);
target = (0,3);
type = Stem;
}
);
layerId = "2883A7C2-0A22-4F0A-A898-75B9BDC585A4";
shapes = (
{
closed = 1;
nodes = (
(350,-187,ls),
(472,-187,o),
(560,-134,o),
(560,-31,cs),
(560,686,l),
(355,686,l),
(355,-31,ls),
(355,-47,o),
(336,-57,o),
(313,-57,cs),
(286,-57,o),
(272,-47,o),
(272,-31,cs),
(272,-19,l),
(79,-19,l),
(79,-31,ls),
(79,-132,o),
(160,-187,o),
(289,-187,cs)
);
},
{
closed = 1;
nodes = (
(336,0,l),
(316,168,l),
(250,168,l),
(250,686,l),
(40,686,l),
(40,0,l)
);
}
);
width = 600;
},
{
associatedMasterId = "1B515DD0-5446-4609-BD2C-839EAA0AE6A8";
layerId = "26F5AAB6-2055-4371-9743-1825ED82AB6B";
width = 600;
},
{
hints = (
{
horizontal = 1;
origin = (1,5);
target = (1,2);
type = Stem;
},
{
horizontal = 1;
origin = (1,4);
target = down;
type = TopGhost;
},
{
horizontal = 1;
origin = (0,18);
target = (0,9);
type = Stem;
},
{
origin = (1,5);
target = (1,2);
type = Stem;
},
{
origin = (0,15);
target = (0,12);
type = Stem;
},
{
origin = (0,6);
target = (0,3);
type = Stem;
}
);
layerId = "A193C231-D910-4739-84D4-C6814F8A1DBE";
shapes = (
{
closed = 1;
nodes = (
(343,-186,ls),
(458,-186,o),
(532,-125,o),
(532,-16,cs),
(532,686,l),
(411,686,l),
(411,-16,ls),
(411,-70,o),
(378,-102,o),
(325,-102,cs),
(273,-102,o),
(242,-80,o),
(242,-44,cs),
(242,-31,l),
(128,-31,l),
(128,-47,ls),
(128,-136,o),
(199,-186,o),
(314,-186,cs)
);
},
{
closed = 1;
nodes = (
(364,0,l),
(348,101,l),
(191,101,l),
(191,686,l),
(68,686,l),
(68,0,l)
);
}
);
width = 600;
}
);
note = uni01C7;
unicode = 455;
},
{
color = 1;
glyphname = Lacute;
layers = (
{
background = {
shapes = (
{
closed = 1;
nodes = (
(513,0,l),
(501,48,l),
(161,48,l),
(161,686,l),
(107,686,l),
(107,0,l)
);
},
{
closed = 1;
nodes = (
(166,750,l),
(277,892,l),
(277,895,l),
(212,895,l),
(116,750,l)
);
}
);
};
layerId = "1B515DD0-5446-4609-BD2C-839EAA0AE6A8";
shapes = (
{
ref = L;
},
{
pos = (-99,0);
ref = acutecomb.cap;
}
);
width = 600;
},
{
background = {
shapes = (
{
closed = 1;
nodes = (
(538,0,l),
(518,168,l),
(269,168,l),
(269,686,l),
(57,686,l),
(57,0,l)
);
},
{
closed = 1;
nodes = (
(234,751,l),
(360,893,l),
(358,896,l),
(207,896,l),
(116,751,l)
);
}
);
};
layerId = "2883A7C2-0A22-4F0A-A898-75B9BDC585A4";
shapes = (
{
ref = L;
},
{
pos = (-70,0);
ref = acutecomb.cap;
}
);
width = 600;
},
{
associatedMasterId = "1B515DD0-5446-4609-BD2C-839EAA0AE6A8";
layerId = "26F5AAB6-2055-4371-9743-1825ED82AB6B";
width = 600;
},
{
layerId = "A193C231-D910-4739-84D4-C6814F8A1DBE";
shapes = (
{
ref = L;
},
{
pos = (-78,0);
ref = acutecomb.cap;
}
);
width = 600;
}
);
note = Lacute;
unicode = 313;
},
{
color = 1;
glyphname = Lcaron;
layers = (
{
background = {
shapes = (
{
closed = 1;
nodes = (
(496,0,l),
(484,48,l),
(144,48,l),
(144,686,l),
(90,686,l),
(90,0,l)
);
},
{
closed = 1;
nodes = (
(451,513,l),
(481,625,l),
(481,683,l),
(416,683,l),
(416,614,l),
(440,614,l),
(417,513,l)
);
}
);
};
layerId = "1B515DD0-5446-4609-BD2C-839EAA0AE6A8";
shapes = (
{
ref = L;
},
{
pos = (161,0);
ref = caroncomb.alt;
}
);
width = 600;
},
{
background = {
shapes = (
{
closed = 1;
nodes = (
(521,0,l),
(501,168,l),
(252,168,l),
(252,686,l),
(40,686,l),
(40,0,l)
);
},
{
closed = 1;
nodes = (
(476,337,l),
(526,524,l),
(526,685,l),
(335,685,l),
(335,502,l),
(419,502,l),
(382,337,l)
);
}
);
};
layerId = "2883A7C2-0A22-4F0A-A898-75B9BDC585A4";
shapes = (
{
ref = L;
},
{
pos = (141,0);
ref = caroncomb.alt;
}
);
width = 600;
},
{
associatedMasterId = "1B515DD0-5446-4609-BD2C-839EAA0AE6A8";
layerId = "26F5AAB6-2055-4371-9743-1825ED82AB6B";
width = 600;
},
{
layerId = "A193C231-D910-4739-84D4-C6814F8A1DBE";
shapes = (
{
ref = L;
},
{
pos = (152,0);
ref = caroncomb.alt;
}
);
width = 600;
}
);
note = Lcaron;
unicode = 317;
},
{
color = 1;
glyphname = Ldot;
layers = (
{
background = {
shapes = (
{
closed = 1;
nodes = (
(513,0,l),
(501,48,l),
(161,48,l),
(161,686,l),
(107,686,l),
(107,0,l)
);
},
{
closed = 1;
nodes = (
(404,337,l),
(404,406,l),
(339,406,l),
(339,337,l)
);
}
);
};
layerId = "1B515DD0-5446-4609-BD2C-839EAA0AE6A8";
shapes = (
{
ref = L;
},
{
pos = (115,0);
ref = periodcentered.loclCAT.cap;
}
);
width = 600;
},
{
background = {
shapes = (
{
closed = 1;
nodes = (
(538,0,l),
(518,168,l),
(269,168,l),
(269,686,l),
(57,686,l),
(57,0,l)
);
},
{
closed = 1;
nodes = (
(523,322,l),
(523,505,l),
(332,505,l),
(332,322,l)
);
}
);
};
layerId = "2883A7C2-0A22-4F0A-A898-75B9BDC585A4";
shapes = (
{
ref = L;
},
{
pos = (142,0);
ref = periodcentered.loclCAT.cap;
}
);
width = 600;
},
{
associatedMasterId = "1B515DD0-5446-4609-BD2C-839EAA0AE6A8";
layerId = "26F5AAB6-2055-4371-9743-1825ED82AB6B";
width = 600;
},
{
layerId = "A193C231-D910-4739-84D4-C6814F8A1DBE";
shapes = (
{
ref = L;
},
{
pos = (127,0);
ref = periodcentered.loclCAT.cap;
}
);
width = 600;
}
);
note = Ldot;
unicode = 319;
},
{
color = 4;
glyphname = Lj;
layers = (
{
background = {
shapes = (
{
closed = 1;
nodes = (
(366,0,l),
(354,48,l),
(144,48,l),
(144,686,l),
(90,686,l),
(90,0,l)
);
},
{
closed = 1;
nodes = (
(438,-186,o),
(498,-143,o),
(498,-45,cs),
(498,511,l),
(447,511,l),
(447,-43,ls),
(447,-128,o),
(398,-140,o),
(350,-140,cs),
(320,-140,o),
(283,-130,o),
(252,-114,c),
(252,-159,l),
(278,-175,o),
(318,-186,o),
(356,-186,cs)
);
},
{
closed = 1;
nodes = (
(517,625,l),
(517,720,l),
(417,720,l),
(417,625,l)
);
}
);
};
hints = (
{
horizontal = 1;
place = (-186, 46);
place = (-186, 46);
type = Stem;
},
{
horizontal = 1;
origin = (0,5);
target = (0,2);
type = Stem;
},
{
horizontal = 1;
place = (511, -20);
target = down;
type = TopGhost;
},
{
horizontal = 1;
origin = (0,3);
target = (0,3);
type = Stem;
},
{
horizontal = 1;
place = (686, 20);
place = (686, 20);
type = Stem;
},
{
origin = (0,5);
target = (0,2);
type = Stem;
},
{
place = (619, 59);
place = (619, 59);
type = Stem;
},
{
place = (623, 51);
place = (623, 51);
type = Stem;
},
{
horizontal = 1;
origin = (1,15);
target = (1,8);
type = Stem;
},
{
horizontal = 1;
place = (511, 46);
place = (511, 46);
type = Stem;
},
{
origin = (1,5);
target = (1,2);
type = Stem;
},
{
horizontal = 1;
origin = (2,3);
target = (2,2);
type = Stem;
},
{
origin = (2,3);
target = (2,0);
type = Stem;
}
);
layerId = "1B515DD0-5446-4609-BD2C-839EAA0AE6A8";
shapes = (
{
closed = 1;
nodes = (
(475,0,l),
(463,48,l),
(144,48,l),
(144,686,l),
(90,686,l),
(90,0,l)
);
},
{
closed = 1;
nodes = (
(438,-186,o),
(498,-143,o),
(498,-45,cs),
(498,511,l),
(447,511,l),
(447,-43,ls),
(447,-128,o),
(398,-140,o),
(350,-140,cs),
(320,-140,o),
(283,-130,o),
(252,-114,c),
(252,-159,l),
(278,-175,o),
(318,-186,o),
(356,-186,cs)
);
},
{
closed = 1;
nodes = (
(517,625,l),
(517,720,l),
(417,720,l),
(417,625,l)
);
}
);
width = 600;
},
{
background = {
shapes = (
{
closed = 1;
nodes = (
(521,0,l),
(501,168,l),
(252,168,l),
(252,686,l),
(40,686,l),
(40,0,l)
);
},
{
closed = 1;
nodes = (
(702,-187,o),
(776,-134,o),
(776,-26,cs),
(776,510,l),
(577,510,l),
(577,4,ls),
(577,-55,o),
(549,-65,o),
(521,-65,cs),
(506,-65,o),
(474,-60,o),
(459,-53,c),
(459,-165,l),
(491,-178,o),
(559,-187,o),
(593,-187,cs)
);
},
{
closed = 1;
nodes = (
(776,577,l),
(776,720,l),
(577,720,l),
(577,577,l)
);
}
);
};
hints = (
{
horizontal = 1;
place = (-187, 21);
target = up;
type = BottomGhost;
},
{
horizontal = 1;
origin = (0,5);
target = (0,2);
type = Stem;
},
{
horizontal = 1;
place = (510, -20);
target = down;
type = TopGhost;
},
{
horizontal = 1;
place = (686, 176);
place = (686, 176);
type = Stem;
},
{
horizontal = 1;
origin = (0,4);
target = down;
type = TopGhost;
},
{
horizontal = 1;
place = (-187, 187);
place = (-187, 187);
type = Stem;
},
{
origin = (0,5);
target = (0,2);
type = Stem;
},
{
place = (401, 199);
place = (401, 199);
type = Stem;
},
{
horizontal = 1;
origin = (1,15);
target = up;
type = BottomGhost;
},
{
horizontal = 1;
place = (511, 142);
place = (511, 142);
type = Stem;
},
{
horizontal = 1;
origin = (1,15);
target = (1,8);
type = Stem;
},
{
origin = (1,15);
target = (1,2);
type = Stem;
},
{
horizontal = 1;
origin = (2,3);
target = (2,2);
type = Stem;
},
{
origin = (2,3);
target = (2,0);
type = Stem;
}
);
layerId = "2883A7C2-0A22-4F0A-A898-75B9BDC585A4";
shapes = (
{
closed = 1;
nodes = (
(401,0,l),
(381,168,l),
(252,168,l),
(252,686,l),
(40,686,l),
(40,0,l)
);
},
{
closed = 1;
nodes = (
(469,-187,o),
(546,-116,o),
(546,20,cs),
(546,511,l),
(349,511,l),
(349,0,ls),
(349,-49,o),
(318,-55,o),
(281,-55,cs),
(241,-55,o),
(204,-40,o),
(189,-33,c),
(189,-155,l),
(226,-175,o),
(284,-187,o),
(343,-187,cs)
);
},
{
closed = 1;
nodes = (
(546,580,l),
(546,720,l),
(349,720,l),
(349,580,l)
);
}
);
width = 600;
},
{
associatedMasterId = "1B515DD0-5446-4609-BD2C-839EAA0AE6A8";
layerId = "26F5AAB6-2055-4371-9743-1825ED82AB6B";
width = 600;
},
{
hints = (
{
horizontal = 1;
place = (75, 114);
place = (75, 114);
type = Stem;
},
{
horizontal = 1;
origin = (0,5);
target = (0,2);
type = Stem;
},
{
horizontal = 1;
place = (589, -20);
target = down;
type = TopGhost;
},
{
horizontal = 1;
origin = (0,3);
target = (0,3);
type = Stem;
},
{
horizontal = 1;
place = (381, 2000);
place = (381, 2000);
type = Stem;
},
{
origin = (0,5);
target = (0,2);
type = Stem;
},
{
place = (496, 2000);
place = (496, 2000);
type = Stem;
},
{
place = (364, 2000);
place = (364, 2000);
type = Stem;
},
{
horizontal = 1;
origin = (1,15);
target = (1,8);
type = Stem;
},
{
horizontal = 1;
place = (201, 2000);
place = (201, 2000);
type = Stem;
},
{
origin = (1,5);
target = (1,2);
type = Stem;
},
{
horizontal = 1;
origin = (2,3);
target = (2,2);
type = Stem;
},
{
origin = (2,3);
target = (2,0);
type = Stem;
}
);
layerId = "A193C231-D910-4739-84D4-C6814F8A1DBE";
shapes = (
{
closed = 1;
nodes = (
(442,0,l),
(427,101,l),
(192,101,l),
(192,686,l),
(68,686,l),
(68,0,l)
);
},
{
closed = 1;
nodes = (
(452,-186,o),
(519,-131,o),
(519,-16,cs),
(519,511,l),
(403,511,l),
(403,-24,ls),
(403,-93,o),
(362,-102,o),
(319,-102,cs),
(285,-102,o),
(248,-90,o),
(224,-78,c),
(224,-157,l),
(255,-175,o),
(303,-186,o),
(350,-186,cs)
);
},
{
closed = 1;
nodes = (
(530,605,l),
(530,720,l),
(387,720,l),
(387,605,l)
);
}
);
width = 600;
}
);
note = uni01C8;
unicode = 456;
},
{
color = 1;
glyphname = Lslash;
layers = (
{
background = {
shapes = (
{
closed = 1;
nodes = (
(513,0,l),
(501,48,l),
(161,48,l),
(161,344,l),
(304,416,l),
(304,460,l),
(161,388,l),
(161,686,l),
(107,686,l),
(107,361,l),
(24,319,l),
(24,275,l),
(107,317,l),
(107,0,l)
);
}
);
};
layerId = "1B515DD0-5446-4609-BD2C-839EAA0AE6A8";
shapes = (
{
ref = L;
},
{
pos = (-130,-37);
ref = slashshortcomb.cap;
}
);
width = 600;
},
{
background = {
shapes = (
{
closed = 1;
nodes = (
(538,0,l),
(518,168,l),
(269,168,l),
(269,395,l),
(367,444,l),
(367,549,l),
(269,500,l),
(269,686,l),
(57,686,l),
(57,394,l),
(-2,365,l),
(-2,260,l),
(57,289,l),
(57,0,l)
);
}
);
};
layerId = "2883A7C2-0A22-4F0A-A898-75B9BDC585A4";
shapes = (
{
ref = L;
},
{
pos = (-85,-50);
ref = slashshortcomb.cap;
}
);
width = 600;
},
{
associatedMasterId = "1B515DD0-5446-4609-BD2C-839EAA0AE6A8";
layerId = "26F5AAB6-2055-4371-9743-1825ED82AB6B";
width = 600;
},
{
layerId = "A193C231-D910-4739-84D4-C6814F8A1DBE";
shapes = (
{
ref = L;
},
{
pos = (-110,-43);
ref = slashshortcomb.cap;
}
);
width = 600;
}
);
note = Lslash;
unicode = 321;
},
{
color = 4;
glyphname = M;
layers = (
{
anchors = (
{
name = bottom;
pos = (300,0);
},
{
name = top;
pos = (300,686);
}
);
background = {
shapes = (
{
closed = 1;
nodes = (
(-7,0,l),
(-7,625,l),
(-2,625,l),
(271,0,l),
(322,0,l),
(597,625,l),
(602,625,l),
(602,0,l),
(656,0,l),
(656,686,l),
(571,686,l),
(300,69,l),
(299,69,l),
(31,686,l),
(-55,686,l),
(-55,0,l)
);
}
);
};
hints = (
{
horizontal = 1;
origin = (0,12);
target = (0,15);
type = Stem;
},
{
horizontal = 1;
origin = (0,14);
target = (0,1);
type = Stem;
},
{
origin = (0,15);
target = (0,0);
type = Stem;
},
{
origin = (0,7);
target = (0,8);
type = Stem;
}
);
layerId = "1B515DD0-5446-4609-BD2C-839EAA0AE6A8";
shapes = (
{
closed = 1;
nodes = (
(126,0,l),
(126,625,l),
(131,625,l),
(257,0,l),
(334,0,l),
(463,625,l),
(468,625,l),
(468,0,l),
(520,0,l),
(520,686,l),
(431,686,l),
(301,59,l),
(296,59,l),
(171,686,l),
(80,686,l),
(80,0,l)
);
}
);
width = 600;
},
{
anchors = (
{
name = bottom;
pos = (300,0);
},
{
name = top;
pos = (300,686);
}
);
background = {
shapes = (
{
closed = 1;
nodes = (
(190,0,l),
(190,440,l),
(195,440,l),
(230,0,l),
(340,0,l),
(376,440,l),
(380,440,l),
(380,0,l),
(580,0,l),
(580,686,l),
(332,686,l),
(302,320,l),
(298,320,l),
(269,686,l),
(20,686,l),
(20,0,l)
);
}
);
};
guides = (
{
angle = 85.3226;
pos = (358,220);
},
{
angle = 94.548;
pos = (213,220);
}
);
hints = (
{
horizontal = 1;
origin = (0,15);
target = up;
type = BottomGhost;
},
{
horizontal = 1;
origin = (0,14);
target = down;
type = TopGhost;
},
{
horizontal = 1;
origin = (0,14);
target = (0,1);
type = Stem;
},
{
origin = (0,15);
target = (0,0);
type = Stem;
},
{
place = (302, 200);
place = (302, 200);
type = Stem;
}
);
layerId = "2883A7C2-0A22-4F0A-A898-75B9BDC585A4";
shapes = (
{
closed = 1;
nodes = (
(180,0,l),
(180,440,l),
(184,440,l),
(228,0,l),
(352,0,l),
(396,440,l),
(400,440,l),
(400,0,l),
(580,0,l),
(580,686,l),
(336,686,l),
(302,320,l),
(298,320,l),
(264,686,l),
(20,686,l),
(20,0,l)
);
}
);
width = 600;
},
{
associatedMasterId = "1B515DD0-5446-4609-BD2C-839EAA0AE6A8";
layerId = "26F5AAB6-2055-4371-9743-1825ED82AB6B";
width = 600;
},
{
anchors = (
{
name = bottom;
pos = (300,0);
},
{
name = top;
pos = (300,686);
}
);
hints = (
{
horizontal = 1;
origin = (0,12);
target = (0,15);
type = Stem;
},
{
horizontal = 1;
origin = (0,14);
target = (0,1);
type = Stem;
},
{
origin = (0,15);
target = (0,0);
type = Stem;
},
{
origin = (0,7);
target = (0,8);
type = Stem;
}
);
layerId = "A193C231-D910-4739-84D4-C6814F8A1DBE";
shapes = (
{
closed = 1;
nodes = (
(150,0,l),
(150,543,l),
(155,543,l),
(244,0,l),
(342,0,l),
(433,543,l),
(438,543,l),
(438,0,l),
(547,0,l),
(547,686,l),
(389,686,l),
(301,175,l),
(297,175,l),
(212,686,l),
(53,686,l),
(53,0,l)
);
}
);
width = 600;
}
);
note = M;
unicode = 77;
},
{
color = 4;
glyphname = N;
layers = (
{
anchors = (
{
name = bottom;
pos = (300,0);
},
{
name = top;
pos = (300,686);
}
);
background = {
shapes = (
{
closed = 1;
nodes = (
(108,0,l),
(108,586,l),
(111,586,l),
(143,534,l),
(492,0,l),
(540,0,l),
(540,686,l),
(492,686,l),
(492,100,l),
(489,100,l),
(445,168,l),
(106,686,l),
(60,686,l),
(60,0,l)
);
}
);
};
hints = (
{
horizontal = 1;
origin = (0,13);
target = up;
type = BottomGhost;
},
{
horizontal = 1;
origin = (0,12);
target = down;
type = TopGhost;
},
{
origin = (0,13);
target = (0,0);
type = Stem;
},
{
origin = (0,4);
target = (0,5);
type = Stem;
}
);
layerId = "1B515DD0-5446-4609-BD2C-839EAA0AE6A8";
shapes = (
{
closed = 1;
nodes = (
(142,0,l),
(142,586,l),
(145,586,l),
(178,514,l),
(450,0,l),
(510,0,l),
(510,686,l),
(458,686,l),
(458,100,l),
(455,100,l),
(411,188,l),
(150,686,l),
(90,686,l),
(90,0,l)
);
}
);
width = 600;
},
{
anchors = (
{
name = bottom;
pos = (300,0);
},
{
name = top;
pos = (300,686);
}
);
background = {
shapes = (
{
closed = 1;
nodes = (
(233,0,l),
(233,304,l),
(238,306,l),
(259,264,l),
(442,0,l),
(622,0,l),
(622,686,l),
(428,686,l),
(428,375,l),
(423,372,l),
(392,431,l),
(216,686,l),
(40,686,l),
(40,0,l)
);
}
);
};
hints = (
{
horizontal = 1;
origin = (0,13);
target = up;
type = BottomGhost;
},
{
horizontal = 1;
origin = (0,12);
target = down;
type = TopGhost;
},
{
origin = (0,13);
target = (0,0);
type = Stem;
},
{
origin = (0,8);
target = (0,5);
type = Stem;
}
);
layerId = "2883A7C2-0A22-4F0A-A898-75B9BDC585A4";
shapes = (
{
closed = 1;
nodes = (
(230,0,l),
(230,305,l),
(235,306,l),
(258,244,l),
(366,0,l),
(560,0,l),
(560,686,l),
(370,686,l),
(370,373,l),
(365,372,l),
(342,436,l),
(233,686,l),
(40,686,l),
(40,0,l)
);
}
);
width = 600;
},
{
associatedMasterId = "1B515DD0-5446-4609-BD2C-839EAA0AE6A8";
layerId = "26F5AAB6-2055-4371-9743-1825ED82AB6B";
width = 600;
},
{
anchors = (
{
name = bottom;
pos = (300,0);
},
{
name = top;
pos = (300,686);
}
);
hints = (
{
horizontal = 1;
origin = (0,13);
target = up;
type = BottomGhost;
},
{
horizontal = 1;
origin = (0,12);
target = down;
type = TopGhost;
},
{
origin = (0,13);
target = (0,0);
type = Stem;
},
{
origin = (0,4);
target = (0,5);
type = Stem;
}
);
layerId = "A193C231-D910-4739-84D4-C6814F8A1DBE";
shapes = (
{
closed = 1;
nodes = (
(181,0,l),
(181,461,l),
(185,462,l),
(214,394,l),
(413,0,l),
(532,0,l),
(532,686,l),
(419,686,l),
(419,221,l),
(415,221,l),
(380,298,l),
(187,686,l),
(68,686,l),
(68,0,l)
);
}
);
width = 600;
}
);
note = N;
unicode = 78;
},
{
color = 4;
glyphname = NJ;
layers = (
{
hints = (
{
horizontal = 1;
origin = (0,18);
target = (0,9);
type = Stem;
},
{
horizontal = 1;
origin = (1,13);
target = up;
type = BottomGhost;
},
{
horizontal = 1;
origin = (1,12);
target = down;
type = TopGhost;
},
{
horizontal = 1;
origin = (1,12);
target = (1,1);
type = Stem;
},
{
horizontal = 1;
origin = (1,13);
target = (1,9);
type = Stem;
},
{
origin = (1,13);
target = (1,0);
type = Stem;
},
{
origin = (1,8);
target = (1,5);
type = Stem;
},
{
origin = (0,6);
target = (0,3);
type = Stem;
},
{
origin = (0,15);
target = (0,12);
type = Stem;
}
);
layerId = "1B515DD0-5446-4609-BD2C-839EAA0AE6A8";
shapes = (
{
closed = 1;
nodes = (
(338,-186,ls),
(446,-186,o),
(510,-118,o),
(510,-4,cs),
(510,686,l),
(456,686,l),
(456,-4,ls),
(456,-88,o),
(412,-138,o),
(335,-138,cs),
(262,-138,o),
(218,-107,o),
(218,-54,cs),
(218,-41,l),
(168,-41,l),
(168,-60,ls),
(168,-139,o),
(230,-186,o),
(334,-186,cs)
);
},
{
closed = 1;
nodes = (
(142,0,l),
(142,586,l),
(145,586,l),
(173,464,l),
(310,0,l),
(380,0,l),
(380,686,l),
(328,686,l),
(328,100,l),
(325,100,l),
(294,238,l),
(161,686,l),
(90,686,l),
(90,0,l)
);
}
);
width = 600;
},
{
hints = (
{
horizontal = 1;
origin = (0,18);
target = (0,14);
type = Stem;
},
{
horizontal = 1;
origin = (1,13);
target = up;
type = BottomGhost;
},
{
horizontal = 1;
origin = (1,12);
target = down;
type = TopGhost;
},
{
horizontal = 1;
origin = (0,18);
target = (0,9);
type = Stem;
},
{
origin = (1,13);
target = (1,0);
type = Stem;
},
{
origin = (1,8);
target = (1,5);
type = Stem;
},
{
origin = (0,6);
target = (0,3);
type = Stem;
},
{
place = (189.5, 170.5);
place = (189.5, 170.5);
type = Stem;
},
{
origin = (0,15);
target = (1,0);
type = Stem;
}
);
layerId = "2883A7C2-0A22-4F0A-A898-75B9BDC585A4";
shapes = (
{
closed = 1;
nodes = (
(370,-187,ls),
(492,-187,o),
(580,-134,o),
(580,-31,cs),
(580,686,l),
(395,686,l),
(395,-31,ls),
(395,-47,o),
(376,-57,o),
(353,-57,cs),
(326,-57,o),
(312,-47,o),
(312,-31,cs),
(312,-19,l),
(119,-19,l),
(119,-31,ls),
(119,-132,o),
(192,-187,o),
(309,-187,cs)
);
},
{
closed = 1;
nodes = (
(180,0,l),
(180,265,l),
(185,266,l),
(194,204,l),
(226,0,l),
(360,0,l),
(360,686,l),
(200,686,l),
(200,413,l),
(195,412,l),
(186,476,l),
(153,686,l),
(20,686,l),
(20,0,l)
);
}
);
width = 600;
},
{
associatedMasterId = "1B515DD0-5446-4609-BD2C-839EAA0AE6A8";
layerId = "26F5AAB6-2055-4371-9743-1825ED82AB6B";
width = 600;
},
{
hints = (
{
horizontal = 1;
origin = (0,18);
target = (0,9);
type = Stem;
},
{
horizontal = 1;
origin = (1,13);
target = up;
type = BottomGhost;
},
{
horizontal = 1;
origin = (1,12);
target = down;
type = TopGhost;
},
{
horizontal = 1;
origin = (1,12);
target = (1,1);
type = Stem;
},
{
horizontal = 1;
origin = (1,13);
target = (1,9);
type = Stem;
},
{
origin = (1,13);
target = (1,0);
type = Stem;
},
{
origin = (1,8);
target = (1,5);
type = Stem;
},
{
origin = (0,6);
target = (0,3);
type = Stem;
},
{
origin = (0,15);
target = (0,12);
type = Stem;
}
);
layerId = "A193C231-D910-4739-84D4-C6814F8A1DBE";
shapes = (
{
closed = 1;
nodes = (
(352,-186,ls),
(466,-186,o),
(541,-125,o),
(541,-16,cs),
(541,686,l),
(429,686,l),
(429,-16,ls),
(429,-70,o),
(396,-102,o),
(343,-102,cs),
(290,-102,o),
(260,-80,o),
(260,-44,cs),
(260,-31,l),
(146,-31,l),
(146,-47,ls),
(146,-136,o),
(213,-186,o),
(323,-186,cs)
);
},
{
closed = 1;
nodes = (
(159,0,l),
(159,443,l),
(163,444,l),
(182,348,l),
(273,0,l),
(371,0,l),
(371,686,l),
(271,686,l),
(271,239,l),
(267,239,l),
(246,344,l),
(157,686,l),
(59,686,l),
(59,0,l)
);
}
);
width = 600;
}
);
note = uni01CA;
unicode = 458;
},
{
color = 1;
glyphname = Nacute;
layers = (
{
background = {
shapes = (
{
closed = 1;
nodes = (
(155,0,l),
(155,586,l),
(158,586,l),
(190,534,l),
(538,0,l),
(586,0,l),
(586,686,l),
(538,686,l),
(538,100,l),
(535,100,l),
(492,168,l),
(153,686,l),
(107,686,l),
(107,0,l)
);
},
{
closed = 1;
nodes = (
(382,750,l),
(493,892,l),
(493,895,l),
(428,895,l),
(332,750,l)
);
}
);
};
layerId = "1B515DD0-5446-4609-BD2C-839EAA0AE6A8";
shapes = (
{
ref = N;
},
{
pos = (54,0);
ref = acutecomb.cap;
}
);
width = 600;
},
{
background = {
shapes = (
{
closed = 1;
nodes = (
(250,0,l),
(250,304,l),
(255,306,l),
(276,264,l),
(459,0,l),
(639,0,l),
(639,686,l),
(445,686,l),
(445,375,l),
(440,372,l),
(409,431,l),
(233,686,l),
(57,686,l),
(57,0,l)
);
},
{
closed = 1;
nodes = (
(416,751,l),
(542,893,l),
(540,896,l),
(389,896,l),
(298,751,l)
);
}
);
};
layerId = "2883A7C2-0A22-4F0A-A898-75B9BDC585A4";
shapes = (
{
ref = N;
},
{
pos = (54,0);
ref = acutecomb.cap;
}
);
width = 600;
},
{
associatedMasterId = "1B515DD0-5446-4609-BD2C-839EAA0AE6A8";
layerId = "26F5AAB6-2055-4371-9743-1825ED82AB6B";
width = 600;
},
{
layerId = "A193C231-D910-4739-84D4-C6814F8A1DBE";
shapes = (
{
ref = N;
},
{
pos = (62,0);
ref = acutecomb.cap;
}
);
width = 600;
}
);
note = Nacute;
unicode = 323;
},
{
color = 4;
glyphname = Nhookleft;
layers = (
{
hints = (
{
horizontal = 1;
origin = (0,25);
target = (0,18);
type = Stem;
},
{
horizontal = 1;
origin = (0,6);
target = up;
type = BottomGhost;
},
{
horizontal = 1;
origin = (0,14);
target = down;
type = TopGhost;
},
{
origin = (0,15);
target = (0,2);
type = Stem;
},
{
origin = (0,10);
target = (0,7);
type = Stem;
}
);
layerId = "1B515DD0-5446-4609-BD2C-839EAA0AE6A8";
shapes = (
{
closed = 1;
nodes = (
(97,-186,o),
(142,-152,o),
(142,-75,cs),
(142,586,l),
(145,586,l),
(178,514,l),
(450,0,l),
(510,0,l),
(510,686,l),
(458,686,l),
(458,100,l),
(455,100,l),
(411,188,l),
(150,686,l),
(90,686,l),
(90,-73,ls),
(90,-132,o),
(60,-140,o),
(32,-140,cs),
(11,-140,o),
(-12,-134,o),
(-30,-124,c),
(-30,-169,l),
(-13,-179,o),
(13,-186,o),
(38,-186,cs)
);
}
);
width = 600;
},
{
hints = (
{
horizontal = 1;
place = (-187, 21);
target = up;
type = BottomGhost;
},
{
horizontal = 1;
place = (0, 21);
target = up;
type = BottomGhost;
},
{
horizontal = 1;
place = (686, -20);
target = down;
type = TopGhost;
},
{
place = (57, 193);
place = (57, 193);
type = Stem;
},
{
place = (445, 194);
place = (445, 194);
type = Stem;
},
{
horizontal = 1;
place = (-187, 122);
place = (-187, 122);
type = Stem;
}
);
layerId = "2883A7C2-0A22-4F0A-A898-75B9BDC585A4";
shapes = (
{
closed = 1;
nodes = (
(163,-187,o),
(230,-134,o),
(230,-26,cs),
(230,305,l),
(235,306,l),
(258,244,l),
(366,0,l),
(560,0,l),
(560,686,l),
(370,686,l),
(370,373,l),
(365,372,l),
(342,436,l),
(233,686,l),
(40,686,l),
(40,4,ls),
(40,-55,o),
(11,-65,o),
(-17,-65,cs),
(-40,-65,o),
(-66,-59,o),
(-79,-53,c),
(-79,-165,l),
(-49,-180,o),
(14,-187,o),
(50,-187,cs)
);
}
);
width = 600;
},
{
associatedMasterId = "1B515DD0-5446-4609-BD2C-839EAA0AE6A8";
layerId = "26F5AAB6-2055-4371-9743-1825ED82AB6B";
width = 600;
},
{
hints = (
{
horizontal = 1;
origin = (0,25);
target = (0,18);
type = Stem;
},
{
horizontal = 1;
origin = (0,6);
target = up;
type = BottomGhost;
},
{
horizontal = 1;
origin = (0,14);
target = down;
type = TopGhost;
},
{
origin = (0,15);
target = (0,2);
type = Stem;
},
{
origin = (0,10);
target = (0,7);
type = Stem;
}
);
layerId = "A193C231-D910-4739-84D4-C6814F8A1DBE";
shapes = (
{
closed = 1;
nodes = (
(126,-186,o),
(181,-144,o),
(181,-53,cs),
(181,461,l),
(185,462,l),
(214,394,l),
(413,0,l),
(532,0,l),
(532,686,l),
(419,686,l),
(419,221,l),
(415,221,l),
(380,298,l),
(187,686,l),
(68,686,l),
(68,-39,ls),
(68,-98,o),
(38,-107,o),
(10,-107,cs),
(-12,-107,o),
(-36,-101,o),
(-52,-92,c),
(-52,-167,l),
(-29,-179,o),
(13,-186,o),
(43,-186,cs)
);
}
);
width = 600;
}
);
note = uni019D;
unicode = 413;
},
{
color = 4;
glyphname = Nj;
layers = (
{
background = {
shapes = (
{
closed = 1;
nodes = (
(142,0,l),
(142,586,l),
(145,586,l),
(158,514,l),
(310,0,l),
(380,0,l),
(380,686,l),
(328,686,l),
(328,100,l),
(325,100,l),
(309,188,l),
(161,686,l),
(90,686,l),
(90,0,l)
);
},
{
closed = 1;
nodes = (
(460,-186,o),
(520,-143,o),
(520,-45,cs),
(520,511,l),
(469,511,l),
(469,-43,l),
(469,-128,o),
(420,-140,o),
(372,-140,cs),
(342,-140,o),
(305,-130,o),
(274,-114,c),
(274,-159,l),
(300,-175,o),
(340,-186,o),
(378,-186,cs)
);
},
{
closed = 1;
nodes = (
(543,625,l),
(543,720,l),
(443,720,l),
(443,625,l)
);
}
);
};
hints = (
{
horizontal = 1;
origin = (0,13);
target = up;
type = BottomGhost;
},
{
horizontal = 1;
origin = (0,12);
target = down;
type = TopGhost;
},
{
origin = (0,13);
target = (0,0);
type = Stem;
},
{
origin = (0,4);
target = (0,5);
type = Stem;
},
{
horizontal = 1;
origin = (1,15);
target = (1,8);
type = Stem;
},
{
horizontal = 1;
place = (511, 46);
place = (511, 46);
type = Stem;
},
{
origin = (1,5);
target = (1,2);
type = Stem;
},
{
horizontal = 1;
origin = (2,3);
target = (2,2);
type = Stem;
},
{
origin = (2,3);
target = (2,0);
type = Stem;
}
);
layerId = "1B515DD0-5446-4609-BD2C-839EAA0AE6A8";
shapes = (
{
closed = 1;
nodes = (
(142,0,l),
(142,586,l),
(145,586,l),
(173,464,l),
(310,0,l),
(380,0,l),
(380,686,l),
(328,686,l),
(328,100,l),
(325,100,l),
(294,238,l),
(161,686,l),
(90,686,l),
(90,0,l)
);
},
{
closed = 1;
nodes = (
(460,-186,o),
(520,-143,o),
(520,-45,cs),
(520,511,l),
(469,511,l),
(469,-43,l),
(469,-128,o),
(420,-140,o),
(372,-140,cs),
(342,-140,o),
(305,-130,o),
(274,-114,c),
(274,-159,l),
(300,-175,o),
(340,-186,o),
(378,-186,cs)
);
},
{
closed = 1;
nodes = (
(543,625,l),
(543,720,l),
(443,720,l),
(443,625,l)
);
}
);
width = 600;
},
{
hints = (
{
horizontal = 1;
origin = (0,13);
target = up;
type = BottomGhost;
},
{
horizontal = 1;
origin = (0,12);
target = down;
type = TopGhost;
},
{
origin = (0,13);
target = (0,0);
type = Stem;
},
{
origin = (0,8);
target = (0,5);
type = Stem;
},
{
horizontal = 1;
origin = (1,15);
target = up;
type = BottomGhost;
},
{
horizontal = 1;
origin = (1,4);
target = (0,9);
type = Stem;
},
{
horizontal = 1;
origin = (1,15);
target = (1,8);
type = Stem;
},
{
origin = (1,5);
target = (1,2);
type = Stem;
},
{
horizontal = 1;
origin = (2,3);
target = (2,2);
type = Stem;
},
{
origin = (2,3);
target = (2,0);
type = Stem;
}
);
layerId = "2883A7C2-0A22-4F0A-A898-75B9BDC585A4";
shapes = (
{
closed = 1;
nodes = (
(200,0,l),
(200,265,l),
(205,266,l),
(214,204,l),
(246,0,l),
(380,0,l),
(380,686,l),
(220,686,l),
(220,413,l),
(215,412,l),
(206,476,l),
(173,686,l),
(40,686,l),
(40,0,l)
);
},
{
closed = 1;
nodes = (
(493,-187,o),
(570,-116,o),
(570,20,cs),
(570,511,l),
(410,511,l),
(410,20,ls),
(410,-29,o),
(387,-55,o),
(342,-55,cs),
(302,-55,o),
(265,-40,o),
(250,-33,c),
(250,-155,l),
(287,-175,o),
(345,-187,o),
(367,-187,cs)
);
},
{
closed = 1;
nodes = (
(570,580,l),
(570,720,l),
(410,720,l),
(410,580,l)
);
}
);
width = 600;
},
{
associatedMasterId = "1B515DD0-5446-4609-BD2C-839EAA0AE6A8";
layerId = "26F5AAB6-2055-4371-9743-1825ED82AB6B";
width = 600;
},
{
hints = (
{
horizontal = 1;
origin = (0,13);
target = up;
type = BottomGhost;
},
{
horizontal = 1;
origin = (0,12);
target = down;
type = TopGhost;
},
{
origin = (0,13);
target = (0,0);
type = Stem;
},
{
origin = (0,4);
target = (0,5);
type = Stem;
},
{
horizontal = 1;
origin = (1,15);
target = (1,8);
type = Stem;
},
{
horizontal = 1;
place = (542, 2000);
place = (542, 2000);
type = Stem;
},
{
origin = (1,5);
target = (1,2);
type = Stem;
},
{
horizontal = 1;
origin = (2,3);
target = (2,2);
type = Stem;
},
{
origin = (2,3);
target = (2,0);
type = Stem;
}
);
layerId = "A193C231-D910-4739-84D4-C6814F8A1DBE";
shapes = (
{
closed = 1;
nodes = (
(168,0,l),
(168,443,l),
(172,444,l),
(191,348,l),
(282,0,l),
(380,0,l),
(380,686,l),
(280,686,l),
(280,239,l),
(276,239,l),
(255,344,l),
(166,686,l),
(68,686,l),
(68,0,l)
);
},
{
closed = 1;
nodes = (
(475,-186,o),
(542,-131,o),
(542,-16,cs),
(542,511,l),
(443,511,l),
(443,-15,l),
(443,-84,o),
(405,-102,o),
(359,-102,cs),
(324,-102,o),
(287,-90,o),
(263,-78,c),
(263,-157,l),
(294,-175,o),
(342,-186,o),
(373,-186,cs)
);
},
{
closed = 1;
nodes = (
(555,605,l),
(555,720,l),
(428,720,l),
(428,605,l)
);
}
);
width = 600;
}
);
note = uni01CB;
unicode = 459;
},
{
color = 4;
glyphname = Eng;
layers = (
{
background = {
shapes = (
{
ref = N;
}
);
};
hints = (
{
horizontal = 1;
origin = (0,26);
target = (0,19);
type = Stem;
},
{
horizontal = 1;
origin = (0,10);
target = up;
type = BottomGhost;
},
{
horizontal = 1;
origin = (0,9);
target = down;
type = TopGhost;
},
{
origin = (0,10);
target = (0,11);
type = Stem;
},
{
origin = (0,5);
target = (0,2);
type = Stem;
}
);
layerId = "1B515DD0-5446-4609-BD2C-839EAA0AE6A8";
shapes = (
{
closed = 1;
nodes = (
(466,-186,o),
(510,-152,o),
(510,-75,cs),
(510,686,l),
(458,686,l),
(458,100,l),
(455,100,l),
(411,188,l),
(150,686,l),
(90,686,l),
(90,0,l),
(142,0,l),
(142,586,l),
(145,586,l),
(178,514,l),
(459,-18,l),
(459,-73,ls),
(459,-132,o),
(429,-140,o),
(401,-140,cs),
(380,-140,o),
(357,-134,o),
(339,-124,c),
(339,-169,l),
(356,-179,o),
(382,-186,o),
(407,-186,cs)
);
}
);
width = 600;
},
{
background = {
shapes = (
{
closed = 1;
nodes = (
(230,0,l),
(230,305,l),
(235,306,l),
(258,244,l),
(366,0,l),
(560,0,l),
(560,686,l),
(370,686,l),
(370,373,l),
(365,372,l),
(342,436,l),
(233,686,l),
(40,686,l),
(40,0,l)
);
}
);
};
hints = (
{
horizontal = 1;
origin = (0,26);
target = up;
type = BottomGhost;
},
{
horizontal = 1;
origin = (0,10);
target = up;
type = BottomGhost;
},
{
horizontal = 1;
origin = (0,9);
target = down;
type = TopGhost;
},
{
horizontal = 1;
origin = (0,26);
target = (0,19);
type = Stem;
},
{
origin = (0,10);
target = (0,11);
type = Stem;
},
{
origin = (0,5);
target = (0,2);
type = Stem;
}
);
layerId = "2883A7C2-0A22-4F0A-A898-75B9BDC585A4";
shapes = (
{
closed = 1;
nodes = (
(482,-187,o),
(560,-134,o),
(560,-26,cs),
(560,686,l),
(370,686,l),
(370,373,l),
(365,372,l),
(342,436,l),
(233,686,l),
(40,686,l),
(40,0,l),
(230,0,l),
(230,305,l),
(235,306,l),
(258,244,l),
(361,11,l),
(361,0,ls),
(361,-55,o),
(332,-65,o),
(304,-65,cs),
(281,-65,o),
(255,-59,o),
(242,-53,c),
(242,-165,l),
(272,-180,o),
(335,-187,o),
(371,-187,cs)
);
}
);
width = 600;
},
{
associatedMasterId = "1B515DD0-5446-4609-BD2C-839EAA0AE6A8";
layerId = "26F5AAB6-2055-4371-9743-1825ED82AB6B";
width = 600;
},
{
hints = (
{
horizontal = 1;
origin = (0,26);
target = (0,19);
type = Stem;
},
{
horizontal = 1;
origin = (0,10);
target = up;
type = BottomGhost;
},
{
horizontal = 1;
origin = (0,9);
target = down;
type = TopGhost;
},
{
origin = (0,10);
target = (0,11);
type = Stem;
},
{
origin = (0,5);
target = (0,2);
type = Stem;
}
);
layerId = "A193C231-D910-4739-84D4-C6814F8A1DBE";
shapes = (
{
closed = 1;
nodes = (
(473,-186,o),
(532,-144,o),
(532,-53,cs),
(532,686,l),
(419,686,l),
(419,221,l),
(415,221,l),
(380,298,l),
(187,686,l),
(68,686,l),
(68,0,l),
(181,0,l),
(181,461,l),
(185,462,l),
(214,394,l),
(415,-5,l),
(415,-41,ls),
(415,-98,o),
(386,-107,o),
(358,-107,cs),
(336,-107,o),
(312,-101,o),
(296,-92,c),
(296,-167,l),
(319,-179,o),
(361,-186,o),
(391,-186,cs)
);
}
);
width = 600;
}
);
note = Eng;
unicode = 330;
},
{
color = 4;
glyphname = O;
layers = (
{
anchors = (
{
name = bottom;
pos = (300,0);
},
{
name = center;
pos = (300,343);
},
{
name = ogonek;
pos = (454,0);
},
{
name = top;
pos = (300,686);
},
{
name = topleft;
pos = (165,648);
},
{
name = topright;
pos = (435,648);
}
);
hints = (
{
horizontal = 1;
origin = (1,13);
target = (0,15);
type = Stem;
},
{
horizontal = 1;
origin = (0,8);
target = (1,6);
type = Stem;
},
{
origin = (0,12);
target = (1,2);
type = Stem;
},
{
origin = (1,10);
target = (0,3);
type = Stem;
}
);
layerId = "1B515DD0-5446-4609-BD2C-839EAA0AE6A8";
shapes = (
{
closed = 1;
nodes = (
(303,-10,ls),
(437,-10,o),
(546,54,o),
(546,310,cs),
(546,376,ls),
(546,633,o),
(437,696,o),
(301,696,cs),
(298,696,ls),
(169,696,o),
(54,635,o),
(54,376,cs),
(54,310,ls),
(54,51,o),
(164,-10,o),
(300,-10,cs)
);
},
{
closed = 1;
nodes = (
(194,38,o),
(108,87,o),
(108,298,cs),
(108,388,ls),
(108,599,o),
(194,648,o),
(300,648,cs),
(406,648,o),
(492,599,o),
(492,388,cs),
(492,298,ls),
(492,87,o),
(406,38,o),
(300,38,cs)
);
}
);
width = 600;
},
{
anchors = (
{
name = bottom;
pos = (300,0);
},
{
name = center;
pos = (300,343);
},
{
name = ogonek;
pos = (471,0);
},
{
name = top;
pos = (300,686);
},
{
name = topleft;
pos = (170,660);
},
{
name = topright;
pos = (430,660);
}
);
background = {
shapes = (
{
closed = 1;
nodes = (
(328,-10,ls),
(494,-10,o),
(628,124,o),
(628,290,cs),
(628,394,ls),
(628,560,o),
(494,694,o),
(328,694,cs),
(272,694,ls),
(106,694,o),
(-28,560,o),
(-28,394,cs),
(-28,290,ls),
(-28,124,o),
(106,-10,o),
(272,-10,cs)
);
},
{
closed = 1;
nodes = (
(243,147,o),
(198,189,o),
(198,247,cs),
(198,440,ls),
(198,495,o),
(240,540,o),
(300,540,cs),
(360,540,o),
(403,496,o),
(403,440,cs),
(403,247,ls),
(403,191,o),
(361,147,o),
(300,147,cs)
);
}
);
};
hints = (
{
horizontal = 1;
origin = (1,13);
target = (0,15);
type = Stem;
},
{
horizontal = 1;
origin = (0,8);
target = (1,6);
type = Stem;
},
{
origin = (0,12);
target = (1,2);
type = Stem;
},
{
origin = (1,10);
target = (0,3);
type = Stem;
}
);
layerId = "2883A7C2-0A22-4F0A-A898-75B9BDC585A4";
shapes = (
{
closed = 1;
nodes = (
(318,-10,ls),
(486,-10,o),
(598,102,o),
(598,270,cs),
(598,415,ls),
(598,583,o),
(486,696,o),
(318,696,cs),
(282,696,ls),
(114,696,o),
(2,583,o),
(2,415,cs),
(2,270,ls),
(2,102,o),
(114,-10,o),
(282,-10,cs)
);
},
{
closed = 1;
nodes = (
(251,147,o),
(218,177,o),
(218,232,cs),
(218,455,ls),
(218,510,o),
(251,540,o),
(300,540,cs),
(350,540,o),
(383,510,o),
(383,455,cs),
(383,232,ls),
(383,177,o),
(350,147,o),
(300,147,cs)
);
}
);
width = 600;
},
{
associatedMasterId = "1B515DD0-5446-4609-BD2C-839EAA0AE6A8";
layerId = "26F5AAB6-2055-4371-9743-1825ED82AB6B";
width = 600;
},
{
anchors = (
{
name = bottom;
pos = (300,0);
},
{
name = center;
pos = (300,343);
},
{
name = ogonek;
pos = (462,0);
},
{
name = top;
pos = (300,686);
},
{
name = topleft;
pos = (167,653);
},
{
name = topright;
pos = (433,653);
}
);
hints = (
{
horizontal = 1;
origin = (1,13);
target = (0,15);
type = Stem;
},
{
horizontal = 1;
origin = (0,8);
target = (1,6);
type = Stem;
},
{
origin = (0,12);
target = (1,2);
type = Stem;
},
{
origin = (1,10);
target = (0,3);
type = Stem;
}
);
layerId = "A193C231-D910-4739-84D4-C6814F8A1DBE";
shapes = (
{
closed = 1;
nodes = (
(310,-10,ls),
(459,-10,o),
(569,75,o),
(569,292,cs),
(569,393,ls),
(569,611,o),
(459,696,o),
(309,696,cs),
(291,696,ls),
(145,696,o),
(31,612,o),
(31,393,cs),
(31,292,ls),
(31,74,o),
(142,-10,o),
(292,-10,cs)
);
},
{
closed = 1;
nodes = (
(219,86,o),
(157,127,o),
(157,269,cs),
(157,418,ls),
(157,559,o),
(219,600,o),
(300,600,cs),
(381,600,o),
(444,559,o),
(444,418,cs),
(444,269,ls),
(444,127,o),
(381,86,o),
(300,86,cs)
);
}
);
width = 600;
}
);
note = O;
unicode = 79;
},
{
color = 1;
glyphname = Odieresismacron;
layers = (
{
background = {
shapes = (
{
closed = 1;
nodes = (
(348,-10,ls),
(493,-10,o),
(611,58,o),
(611,330,cs),
(611,356,ls),
(611,629,o),
(493,696,o),
(346,696,cs),
(343,696,ls),
(203,696,o),
(79,631,o),
(79,356,cs),
(79,330,ls),
(79,55,o),
(198,-10,o),
(345,-10,cs)
);
},
{
closed = 1;
nodes = (
(228,38,o),
(133,91,o),
(133,318,cs),
(133,368,ls),
(133,595,o),
(228,648,o),
(345,648,cs),
(462,648,o),
(557,595,o),
(557,368,cs),
(557,318,ls),
(557,91,o),
(462,38,o),
(345,38,cs)
);
},
{
closed = 1;
nodes = (
(290,797,l),
(290,866,l),
(225,866,l),
(225,797,l)
);
},
{
closed = 1;
nodes = (
(466,797,l),
(466,866,l),
(401,866,l),
(401,797,l)
);
},
{
closed = 1;
nodes = (
(481,906,l),
(481,950,l),
(210,950,l),
(210,906,l)
);
}
);
};
layerId = "1B515DD0-5446-4609-BD2C-839EAA0AE6A8";
shapes = (
{
ref = O;
},
{
ref = dieresiscomb_macroncomb.cap;
}
);
width = 600;
},
{
background = {
shapes = (
{
closed = 1;
nodes = (
(387,-10,ls),
(553,-10,o),
(687,124,o),
(687,290,cs),
(687,394,ls),
(687,560,o),
(553,694,o),
(387,694,cs),
(331,694,ls),
(165,694,o),
(31,560,o),
(31,394,cs),
(31,290,ls),
(31,124,o),
(165,-10,o),
(331,-10,cs)
);
},
{
closed = 1;
nodes = (
(302,147,o),
(257,189,o),
(257,247,cs),
(257,440,ls),
(257,495,o),
(299,540,o),
(359,540,cs),
(419,540,o),
(462,496,o),
(462,440,cs),
(462,247,ls),
(462,191,o),
(420,147,o),
(359,147,cs)
);
},
{
closed = 1;
nodes = (
(325,748,l),
(325,895,l),
(173,895,l),
(173,748,l)
);
},
{
closed = 1;
nodes = (
(545,748,l),
(545,895,l),
(393,895,l),
(393,748,l)
);
},
{
closed = 1;
nodes = (
(535,939,l),
(535,1043,l),
(183,1043,l),
(183,939,l)
);
}
);
};
layerId = "2883A7C2-0A22-4F0A-A898-75B9BDC585A4";
shapes = (
{
ref = O;
},
{
ref = dieresiscomb_macroncomb.cap;
}
);
width = 600;
},
{
associatedMasterId = "1B515DD0-5446-4609-BD2C-839EAA0AE6A8";
layerId = "26F5AAB6-2055-4371-9743-1825ED82AB6B";
width = 600;
},
{
layerId = "A193C231-D910-4739-84D4-C6814F8A1DBE";
shapes = (
{
ref = O;
},
{
pos = (1,0);
ref = dieresiscomb_macroncomb.cap;
}
);
width = 600;
}
);
note = uni022A;
unicode = 554;
},
{
color = 1;
glyphname = Odotaccentmacron;
layers = (
{
background = {
shapes = (
{
closed = 1;
nodes = (
(348,-10,ls),
(493,-10,o),
(611,58,o),
(611,330,cs),
(611,356,ls),
(611,629,o),
(493,696,o),
(346,696,cs),
(343,696,ls),
(203,696,o),
(79,631,o),
(79,356,cs),
(79,330,ls),
(79,55,o),
(198,-10,o),
(345,-10,cs)
);
},
{
closed = 1;
nodes = (
(228,38,o),
(133,91,o),
(133,318,cs),
(133,368,ls),
(133,595,o),
(228,648,o),
(345,648,cs),
(462,648,o),
(557,595,o),
(557,368,cs),
(557,318,ls),
(557,91,o),
(462,38,o),
(345,38,cs)
);
},
{
closed = 1;
nodes = (
(378,797,l),
(378,866,l),
(313,866,l),
(313,797,l)
);
},
{
closed = 1;
nodes = (
(481,906,l),
(481,950,l),
(210,950,l),
(210,906,l)
);
}
);
};
layerId = "1B515DD0-5446-4609-BD2C-839EAA0AE6A8";
shapes = (
{
ref = O;
},
{
ref = dotaccentcomb_macroncomb.cap;
}
);
width = 600;
},
{
background = {
shapes = (
{
closed = 1;
nodes = (
(387,-10,ls),
(553,-10,o),
(687,124,o),
(687,290,cs),
(687,394,ls),
(687,560,o),
(553,694,o),
(387,694,cs),
(331,694,ls),
(165,694,o),
(31,560,o),
(31,394,cs),
(31,290,ls),
(31,124,o),
(165,-10,o),
(331,-10,cs)
);
},
{
closed = 1;
nodes = (
(302,147,o),
(257,189,o),
(257,247,cs),
(257,440,ls),
(257,495,o),
(299,540,o),
(359,540,cs),
(419,540,o),
(462,496,o),
(462,440,cs),
(462,247,ls),
(462,191,o),
(420,147,o),
(359,147,cs)
);
},
{
closed = 1;
nodes = (
(435,748,l),
(435,895,l),
(283,895,l),
(283,748,l)
);
},
{
closed = 1;
nodes = (
(535,939,l),
(535,1043,l),
(183,1043,l),
(183,939,l)
);
}
);
};
layerId = "2883A7C2-0A22-4F0A-A898-75B9BDC585A4";
shapes = (
{
ref = O;
},
{
ref = dotaccentcomb_macroncomb.cap;
}
);
width = 600;
},
{
associatedMasterId = "1B515DD0-5446-4609-BD2C-839EAA0AE6A8";
layerId = "26F5AAB6-2055-4371-9743-1825ED82AB6B";
width = 600;
},
{
layerId = "A193C231-D910-4739-84D4-C6814F8A1DBE";
shapes = (
{
ref = O;
},
{
pos = (1,0);
ref = dotaccentcomb_macroncomb.cap;
}
);
width = 600;
}
);
note = uni0230;
unicode = 560;
},
{
color = 1;
glyphname = Ohorn;
layers = (
{
background = {
shapes = (
{
closed = 1;
nodes = (
(283,-10,ls),
(428,-10,o),
(546,58,o),
(546,330,cs),
(546,356,ls),
(546,488,o),
(519,571,o),
(474,623,c),
(538,654,o),
(567,714,o),
(567,792,c),
(511,792,l),
(511,721,o),
(488,672,o),
(443,651,c),
(398,684,o),
(342,696,o),
(281,696,cs),
(278,696,ls),
(138,696,o),
(14,631,o),
(14,356,cs),
(14,330,ls),
(14,55,o),
(133,-10,o),
(280,-10,cs)
);
},
{
closed = 1;
nodes = (
(163,38,o),
(68,91,o),
(68,318,cs),
(68,368,ls),
(68,595,o),
(163,648,o),
(280,648,cs),
(397,648,o),
(492,595,o),
(492,368,cs),
(492,318,ls),
(492,91,o),
(397,38,o),
(280,38,cs)
);
}
);
};
layerId = "1B515DD0-5446-4609-BD2C-839EAA0AE6A8";
shapes = (
{
ref = O;
},
{
pos = (201,-38);
ref = horncomb.cap;
}
);
width = 600;
},
{
background = {
shapes = (
{
closed = 1;
nodes = (
(298,-10,ls),
(464,-10,o),
(598,124,o),
(598,290,cs),
(598,394,ls),
(598,468,o),
(572,535,o),
(528,587,c),
(614,628,o),
(672,710,o),
(672,799,c),
(508,799,l),
(508,717,o),
(495,673,o),
(435,661,c),
(394,682,o),
(347,694,o),
(298,694,cs),
(242,694,ls),
(76,694,o),
(-58,560,o),
(-58,394,cs),
(-58,290,ls),
(-58,124,o),
(76,-10,o),
(242,-10,cs)
);
},
{
closed = 1;
nodes = (
(213,147,o),
(168,189,o),
(168,247,cs),
(168,440,ls),
(168,495,o),
(210,540,o),
(270,540,cs),
(330,540,o),
(373,496,o),
(373,440,cs),
(373,247,ls),
(373,191,o),
(331,147,o),
(270,147,cs)
);
}
);
};
layerId = "2883A7C2-0A22-4F0A-A898-75B9BDC585A4";
shapes = (
{
ref = O;
},
{
pos = (251,-26);
ref = horncomb.cap;
}
);
width = 600;
},
{
associatedMasterId = "1B515DD0-5446-4609-BD2C-839EAA0AE6A8";
layerId = "26F5AAB6-2055-4371-9743-1825ED82AB6B";
width = 600;
},
{
layerId = "A193C231-D910-4739-84D4-C6814F8A1DBE";
shapes = (
{
ref = O;
},
{
pos = (223,-33);
ref = horncomb.cap;
}
);
width = 600;
}
);
note = Ohorn;
unicode = 416;
},
{
color = 1;
glyphname = Oogonek;
layers = (
{
background = {
shapes = (
{
closed = 1;
nodes = (
(456,-143,o),
(485,-135,o),
(511,-119,c),
(498,-86,l),
(477,-93,o),
(455,-100,o),
(431,-100,cs),
(410,-100,o),
(387,-91,o),
(387,-60,cs),
(387,-39,o),
(399,-19,o),
(434,0,c),
(537,27,o),
(611,114,o),
(611,330,cs),
(611,356,ls),
(611,629,o),
(493,696,o),
(346,696,cs),
(343,696,ls),
(203,696,o),
(79,631,o),
(79,356,cs),
(79,330,ls),
(79,55,o),
(198,-10,o),
(345,-10,cs),
(348,-10,l),
(367,-10,l),
(347,-24,o),
(330,-46,o),
(330,-71,cs),
(330,-126,o),
(381,-143,o),
(427,-143,cs)
);
},
{
closed = 1;
nodes = (
(228,38,o),
(133,91,o),
(133,318,cs),
(133,368,ls),
(133,595,o),
(228,648,o),
(345,648,cs),
(462,648,o),
(557,595,o),
(557,368,cs),
(557,318,ls),
(557,91,o),
(462,38,o),
(345,38,cs)
);
}
);
};
layerId = "1B515DD0-5446-4609-BD2C-839EAA0AE6A8";
shapes = (
{
ref = O;
},
{
pos = (74,0);
ref = ogonekcomb;
}
);
width = 600;
},
{
background = {
shapes = (
{
closed = 1;
nodes = (
(473,-143,o),
(508,-135,o),
(540,-119,c),
(527,-76,l),
(506,-84,o),
(483,-90,o),
(460,-90,cs),
(439,-90,o),
(416,-83,o),
(416,-56,cs),
(416,-29,o),
(443,-13,o),
(462,-1,c),
(592,33,o),
(687,150,o),
(687,290,cs),
(687,394,ls),
(687,560,o),
(553,694,o),
(387,694,cs),
(331,694,ls),
(165,694,o),
(31,560,o),
(31,394,cs),
(31,290,ls),
(31,124,o),
(165,-10,o),
(331,-10,cs),
(367,-10,l),
(351,-25,o),
(339,-45,o),
(339,-71,cs),
(339,-126,o),
(390,-143,o),
(436,-143,cs)
);
},
{
closed = 1;
nodes = (
(302,147,o),
(257,189,o),
(257,247,cs),
(257,440,ls),
(257,495,o),
(299,540,o),
(359,540,cs),
(419,540,o),
(462,496,o),
(462,440,cs),
(462,247,ls),
(462,191,o),
(420,147,o),
(359,147,cs)
);
}
);
};
layerId = "2883A7C2-0A22-4F0A-A898-75B9BDC585A4";
shapes = (
{
ref = O;
},
{
pos = (52,0);
ref = ogonekcomb;
}
);
width = 600;
},
{
associatedMasterId = "1B515DD0-5446-4609-BD2C-839EAA0AE6A8";
layerId = "26F5AAB6-2055-4371-9743-1825ED82AB6B";
width = 600;
},
{
layerId = "A193C231-D910-4739-84D4-C6814F8A1DBE";
shapes = (
{
ref = O;
},
{
pos = (66,0);
ref = ogonekcomb;
}
);
width = 600;
}
);
note = uni01EA;
unicode = 490;
},
{
color = 1;
glyphname = Oslash;
layers = (
{
background = {
shapes = (
{
closed = 1;
nodes = (
(117,-80,l),
(184,33,l),
(229,1,o),
(285,-10,o),
(345,-10,cs),
(348,-10,ls),
(493,-10,o),
(611,58,o),
(611,330,cs),
(611,356,ls),
(611,489,o),
(583,574,o),
(537,625,c),
(605,739,l),
(561,739,l),
(508,651,l),
(464,684,o),
(407,696,o),
(346,696,cs),
(343,696,ls),
(203,696,o),
(79,631,o),
(79,356,cs),
(79,330,ls),
(79,194,o),
(108,110,o),
(155,59,c),
(72,-80,l)
);
},
{
closed = 1;
nodes = (
(152,150,o),
(133,216,o),
(133,318,cs),
(133,368,ls),
(133,595,o),
(228,648,o),
(345,648,cs),
(397,648,o),
(445,638,o),
(482,606,c),
(184,107,l)
);
},
{
closed = 1;
nodes = (
(294,38,o),
(248,48,o),
(211,78,c),
(508,577,l),
(539,534,o),
(557,468,o),
(557,368,cs),
(557,318,ls),
(557,91,o),
(462,38,o),
(345,38,cs)
);
}
);
};
layerId = "1B515DD0-5446-4609-BD2C-839EAA0AE6A8";
shapes = (
{
ref = O;
},
{
pos = (0,-2);
ref = slashlongcomb.cap;
}
);
width = 600;
},
{
layerId = "2883A7C2-0A22-4F0A-A898-75B9BDC585A4";
shapes = (
{
ref = O;
},
{
pos = (0,-2);
ref = slashlongcomb.cap;
}
);
width = 600;
},
{
associatedMasterId = "1B515DD0-5446-4609-BD2C-839EAA0AE6A8";
layerId = "26F5AAB6-2055-4371-9743-1825ED82AB6B";
width = 600;
},
{
layerId = "A193C231-D910-4739-84D4-C6814F8A1DBE";
shapes = (
{
ref = O;
},
{
pos = (0,-2);
ref = slashlongcomb.cap;
}
);
width = 600;
}
);
note = Oslash;
unicode = 216;
},
{
color = 1;
glyphname = Otildemacron;
layers = (
{
background = {
shapes = (
{
closed = 1;
nodes = (
(348,-10,ls),
(493,-10,o),
(611,58,o),
(611,330,cs),
(611,356,ls),
(611,629,o),
(493,696,o),
(346,696,cs),
(343,696,ls),
(203,696,o),
(79,631,o),
(79,356,cs),
(79,330,ls),
(79,55,o),
(198,-10,o),
(345,-10,cs)
);
},
{
closed = 1;
nodes = (
(228,38,o),
(133,91,o),
(133,318,cs),
(133,368,ls),
(133,595,o),
(228,648,o),
(345,648,cs),
(462,648,o),
(557,595,o),
(557,368,cs),
(557,318,ls),
(557,91,o),
(462,38,o),
(345,38,cs)
);
},
{
closed = 1;
nodes = (
(200,750,l),
(207,773,o),
(224,782,o),
(257,782,cs),
(311,782,o),
(360,750,o),
(424,750,cs),
(503,750,o),
(525,800,o),
(525,832,c),
(488,832,l),
(481,809,o),
(464,800,o),
(431,800,cs),
(377,800,o),
(328,832,o),
(264,832,cs),
(186,832,o),
(163,782,o),
(163,750,c)
);
},
{
closed = 1;
nodes = (
(510,906,l),
(510,950,l),
(179,950,l),
(179,906,l)
);
}
);
};
layerId = "1B515DD0-5446-4609-BD2C-839EAA0AE6A8";
shapes = (
{
ref = O;
},
{
pos = (-7,0);
ref = tildecomb_macroncomb.cap;
}
);
width = 600;
},
{
background = {
shapes = (
{
closed = 1;
nodes = (
(387,-10,ls),
(553,-10,o),
(687,124,o),
(687,290,cs),
(687,394,ls),
(687,560,o),
(553,694,o),
(387,694,cs),
(331,694,ls),
(165,694,o),
(31,560,o),
(31,394,cs),
(31,290,ls),
(31,124,o),
(165,-10,o),
(331,-10,cs)
);
},
{
closed = 1;
nodes = (
(302,147,o),
(257,189,o),
(257,247,cs),
(257,440,ls),
(257,495,o),
(299,540,o),
(359,540,cs),
(419,540,o),
(462,496,o),
(462,440,cs),
(462,247,ls),
(462,191,o),
(420,147,o),
(359,147,cs)
);
},
{
closed = 1;
nodes = (
(217,750,l),
(224,773,o),
(242,790,o),
(267,790,c),
(333,784,o),
(378,750,o),
(440,750,cs),
(517,750,o),
(580,821,o),
(580,893,c),
(499,893,l),
(492,870,o),
(474,853,o),
(449,853,cs),
(396,853,o),
(340,893,o),
(276,893,cs),
(199,893,o),
(136,822,o),
(136,750,c)
);
},
{
closed = 1;
nodes = (
(555,939,l),
(555,1023,l),
(163,1023,l),
(163,939,l)
);
}
);
};
layerId = "2883A7C2-0A22-4F0A-A898-75B9BDC585A4";
shapes = (
{
ref = O;
},
{
pos = (-1,0);
ref = tildecomb_macroncomb.cap;
}
);
width = 600;
},
{
associatedMasterId = "1B515DD0-5446-4609-BD2C-839EAA0AE6A8";
layerId = "26F5AAB6-2055-4371-9743-1825ED82AB6B";
width = 600;
},
{
layerId = "A193C231-D910-4739-84D4-C6814F8A1DBE";
shapes = (
{
ref = O;
},
{
pos = (-3,0);
ref = tildecomb_macroncomb.cap;
}
);
width = 600;
}
);
note = uni022C;
unicode = 556;
},
{
color = 4;
glyphname = OE;
layers = (
{
hints = (
{
horizontal = 1;
origin = (1,9);
target = (0,17);
type = Stem;
},
{
horizontal = 1;
origin = (0,6);
target = (0,3);
type = Stem;
},
{
horizontal = 1;
origin = (0,10);
target = (1,6);
type = Stem;
},
{
origin = (0,14);
target = (1,2);
type = Stem;
},
{
origin = (1,8);
target = (0,2);
type = Stem;
}
);
layerId = "1B515DD0-5446-4609-BD2C-839EAA0AE6A8";
shapes = (
{
closed = 1;
nodes = (
(586,0,l),
(575,48,l),
(386,48,l),
(386,326,l),
(545,326,l),
(545,374,l),
(386,374,l),
(386,638,l),
(566,638,l),
(576,686,l),
(250,686,ls),
(142,686,o),
(54,639,o),
(54,406,cs),
(54,280,ls),
(54,42,o),
(142,0,o),
(250,0,cs)
);
},
{
closed = 1;
nodes = (
(171,48,o),
(108,83,o),
(108,268,cs),
(108,418,ls),
(108,603,o),
(171,638,o),
(250,638,cs),
(332,638,l),
(332,48,l),
(250,48,ls)
);
}
);
width = 600;
},
{
background = {
shapes = (
{
closed = 1;
nodes = (
(318,-10,ls),
(486,-10,o),
(598,102,o),
(598,270,cs),
(598,415,ls),
(598,583,o),
(486,696,o),
(318,696,cs),
(282,696,ls),
(114,696,o),
(2,583,o),
(2,415,cs),
(2,270,ls),
(2,102,o),
(114,-10,o),
(282,-10,cs)
);
},
{
closed = 1;
nodes = (
(251,147,o),
(218,177,o),
(218,232,cs),
(218,455,ls),
(218,510,o),
(251,540,o),
(300,540,cs),
(350,540,o),
(383,510,o),
(383,455,cs),
(383,232,ls),
(383,177,o),
(350,147,o),
(300,147,cs)
);
}
);
};
hints = (
{
horizontal = 1;
origin = (1,9);
target = (0,17);
type = Stem;
},
{
horizontal = 1;
origin = (0,6);
target = (0,3);
type = Stem;
},
{
horizontal = 1;
origin = (0,10);
target = (1,6);
type = Stem;
},
{
origin = (0,14);
target = (1,2);
type = Stem;
},
{
origin = (1,8);
target = (0,2);
type = Stem;
},
{
origin = (1,8);
target = (0,4);
type = Stem;
}
);
layerId = "2883A7C2-0A22-4F0A-A898-75B9BDC585A4";
shapes = (
{
closed = 1;
nodes = (
(600,0,l),
(580,157,l),
(455,157,l),
(455,266,l),
(559,266,l),
(559,419,l),
(455,419,l),
(455,528,l),
(560,528,l),
(590,686,l),
(260,686,ls),
(103,686,o),
(2,585,o),
(2,435,cs),
(2,250,ls),
(2,100,o),
(105,0,o),
(260,0,cs)
);
},
{
closed = 1;
nodes = (
(211,157,o),
(178,184,o),
(178,232,cs),
(178,455,ls),
(178,502,o),
(211,528,o),
(260,528,cs),
(293,528,l),
(293,157,l),
(260,157,ls)
);
}
);
width = 600;
},
{
associatedMasterId = "1B515DD0-5446-4609-BD2C-839EAA0AE6A8";
layerId = "26F5AAB6-2055-4371-9743-1825ED82AB6B";
width = 600;
},
{
hints = (
{
horizontal = 1;
origin = (1,9);
target = (0,17);
type = Stem;
},
{
horizontal = 1;
origin = (0,6);
target = (0,3);
type = Stem;
},
{
horizontal = 1;
origin = (0,10);
target = (1,6);
type = Stem;
},
{
origin = (0,14);
target = (1,2);
type = Stem;
},
{
origin = (1,8);
target = (0,2);
type = Stem;
}
);
layerId = "A193C231-D910-4739-84D4-C6814F8A1DBE";
shapes = (
{
closed = 1;
nodes = (
(592,0,l),
(577,96,l),
(417,96,l),
(417,299,l),
(551,299,l),
(551,394,l),
(417,394,l),
(417,589,l),
(563,589,l),
(582,686,l),
(254,686,ls),
(125,686,o),
(31,615,o),
(31,419,cs),
(31,267,ls),
(31,68,o),
(126,0,o),
(254,0,cs)
);
},
{
closed = 1;
nodes = (
(189,96,o),
(139,128,o),
(139,252,cs),
(139,434,ls),
(139,558,o),
(189,589,o),
(254,589,cs),
(315,589,l),
(315,96,l),
(254,96,ls)
);
}
);
width = 600;
}
);
note = OE;
unicode = 338;
},
{
color = 4;
glyphname = P;
layers = (
{
anchors = (
{
name = bottom;
pos = (300,0);
},
{
name = top;
pos = (300,686);
}
);
hints = (
{
horizontal = 1;
origin = (0,11);
target = up;
type = BottomGhost;
},
{
horizontal = 1;
origin = (0,1);
target = (1,8);
type = Stem;
},
{
horizontal = 1;
origin = (0,10);
target = (1,0);
type = Stem;
},
{
origin = (0,11);
target = (0,0);
type = Stem;
},
{
origin = (1,4);
target = (0,5);
type = Stem;
}
);
layerId = "1B515DD0-5446-4609-BD2C-839EAA0AE6A8";
shapes = (
{
closed = 1;
nodes = (
(144,0,l),
(144,311,l),
(371,311,ls),
(474,311,o),
(558,395,o),
(558,497,cs),
(558,501,ls),
(558,602,o),
(473,686,o),
(371,686,cs),
(90,686,l),
(90,0,l)
);
},
{
closed = 1;
nodes = (
(144,638,l),
(364,638,ls),
(442,638,o),
(506,577,o),
(506,499,cs),
(506,421,o),
(442,359,o),
(364,359,cs),
(144,359,l)
);
}
);
width = 600;
},
{
anchors = (
{
name = bottom;
pos = (300,0);
},
{
name = top;
pos = (300,686);
}
);
hints = (
{
horizontal = 1;
origin = (0,11);
target = up;
type = BottomGhost;
},
{
horizontal = 1;
origin = (0,1);
target = (1,8);
type = Stem;
},
{
horizontal = 1;
origin = (0,10);
target = (1,0);
type = Stem;
},
{
origin = (0,11);
target = (0,0);
type = Stem;
},
{
origin = (1,4);
target = (0,5);
type = Stem;
}
);
layerId = "2883A7C2-0A22-4F0A-A898-75B9BDC585A4";
shapes = (
{
closed = 1;
nodes = (
(245,0,l),
(245,240,l),
(390,240,ls),
(506,240,o),
(600,336,o),
(600,454,cs),
(600,476,ls),
(600,592,o),
(506,686,o),
(390,686,cs),
(40,686,l),
(40,0,l)
);
},
{
closed = 1;
nodes = (
(245,529,l),
(327,529,ls),
(368,529,o),
(387,497,o),
(387,464,cs),
(387,421,o),
(364,397,o),
(327,397,cs),
(245,397,l)
);
}
);
width = 600;
},
{
associatedMasterId = "1B515DD0-5446-4609-BD2C-839EAA0AE6A8";
layerId = "26F5AAB6-2055-4371-9743-1825ED82AB6B";
width = 600;
},
{
anchors = (
{
name = bottom;
pos = (300,0);
},
{
name = top;
pos = (300,686);
}
);
hints = (
{
horizontal = 1;
origin = (0,11);
target = up;
type = BottomGhost;
},
{
horizontal = 1;
origin = (0,1);
target = (1,8);
type = Stem;
},
{
horizontal = 1;
origin = (0,10);
target = (1,0);
type = Stem;
},
{
origin = (0,11);
target = (0,0);
type = Stem;
},
{
origin = (1,4);
target = (0,5);
type = Stem;
}
);
layerId = "A193C231-D910-4739-84D4-C6814F8A1DBE";
shapes = (
{
closed = 1;
nodes = (
(189,0,l),
(189,279,l),
(379,279,ls),
(488,279,o),
(577,369,o),
(577,478,cs),
(577,490,ls),
(577,598,o),
(488,686,o),
(379,686,cs),
(68,686,l),
(68,0,l)
);
},
{
closed = 1;
nodes = (
(189,590,l),
(348,590,ls),
(409,590,o),
(453,541,o),
(453,483,cs),
(453,421,o),
(407,376,o),
(348,376,cs),
(189,376,l)
);
}
);
width = 600;
}
);
note = P;
unicode = 80;
},
{
color = 4;
glyphname = Thorn;
layers = (
{
anchors = (
{
name = bottom;
pos = (300,0);
},
{
name = top;
pos = (300,686);
}
);
hints = (
{
horizontal = 1;
origin = (0,12);
target = up;
type = BottomGhost;
},
{
horizontal = 1;
origin = (1,8);
target = (0,1);
type = Stem;
},
{
horizontal = 1;
origin = (0,9);
target = (1,0);
type = Stem;
},
{
origin = (0,12);
target = (0,0);
type = Stem;
},
{
origin = (1,4);
target = (0,5);
type = Stem;
}
);
layerId = "1B515DD0-5446-4609-BD2C-839EAA0AE6A8";
shapes = (
{
closed = 1;
nodes = (
(149,0,l),
(149,177,l),
(376,177,ls),
(479,177,o),
(563,261,o),
(563,364,cs),
(563,467,o),
(479,551,o),
(376,551,cs),
(149,551,l),
(149,686,l),
(95,686,l),
(95,0,l)
);
},
{
closed = 1;
nodes = (
(149,503,l),
(369,503,ls),
(447,503,o),
(511,442,o),
(511,364,cs),
(511,286,o),
(447,224,o),
(369,224,cs),
(149,224,l)
);
}
);
width = 600;
},
{
anchors = (
{
name = bottom;
pos = (300,0);
},
{
name = top;
pos = (300,686);
}
);
hints = (
{
horizontal = 1;
origin = (0,12);
target = up;
type = BottomGhost;
},
{
horizontal = 1;
origin = (1,8);
target = (0,1);
type = Stem;
},
{
horizontal = 1;
origin = (0,9);
target = (1,0);
type = Stem;
},
{
horizontal = 1;
origin = (0,11);
target = down;
type = TopGhost;
},
{
origin = (0,12);
target = (0,0);
type = Stem;
},
{
origin = (1,4);
target = (0,5);
type = Stem;
}
);
layerId = "2883A7C2-0A22-4F0A-A898-75B9BDC585A4";
shapes = (
{
closed = 1;
nodes = (
(249,0,l),
(249,146,l),
(365,146,ls),
(504,146,o),
(595,236,o),
(595,373,cs),
(595,489,o),
(501,583,o),
(365,583,cs),
(249,583,l),
(249,686,l),
(40,686,l),
(40,0,l)
);
},
{
closed = 1;
nodes = (
(249,427,l),
(318,427,ls),
(367,427,o),
(382,403,o),
(382,360,cs),
(382,319,o),
(368,294,o),
(318,294,cs),
(249,294,l)
);
}
);
width = 600;
},
{
associatedMasterId = "1B515DD0-5446-4609-BD2C-839EAA0AE6A8";
layerId = "26F5AAB6-2055-4371-9743-1825ED82AB6B";
width = 600;
},
{
anchors = (
{
name = bottom;
pos = (300,0);
},
{
name = top;
pos = (300,686);
}
);
hints = (
{
horizontal = 1;
origin = (0,12);
target = up;
type = BottomGhost;
},
{
horizontal = 1;
origin = (1,8);
target = (0,1);
type = Stem;
},
{
horizontal = 1;
origin = (0,9);
target = (1,0);
type = Stem;
},
{
origin = (0,12);
target = (0,0);
type = Stem;
},
{
origin = (1,4);
target = (0,5);
type = Stem;
}
);
layerId = "A193C231-D910-4739-84D4-C6814F8A1DBE";
shapes = (
{
closed = 1;
nodes = (
(193,0,l),
(193,163,l),
(371,163,ls),
(490,163,o),
(577,250,o),
(577,368,cs),
(577,477,o),
(489,565,o),
(371,565,cs),
(193,565,l),
(193,686,l),
(71,686,l),
(71,0,l)
);
},
{
closed = 1;
nodes = (
(193,469,l),
(346,469,ls),
(411,469,o),
(454,425,o),
(454,362,cs),
(454,301,o),
(412,255,o),
(346,255,cs),
(193,255,l)
);
}
);
width = 600;
}
);
note = Thorn;
unicode = 222;
},
{
color = 4;
glyphname = Q;
layers = (
{
anchors = (
{
name = bottom;
pos = (300,0);
},
{
name = top;
pos = (300,686);
}
);
background = {
shapes = (
{
closed = 1;
nodes = (
(483,-137,o),
(529,-122,o),
(550,-110,c),
(550,-61,l),
(547,-64,o),
(483,-90,o),
(436,-90,cs),
(361,-90,o),
(335,-46,o),
(328,-9,c),
(461,-1,o),
(566,74,o),
(566,330,cs),
(566,356,ls),
(566,629,o),
(448,696,o),
(301,696,cs),
(298,696,ls),
(158,696,o),
(34,631,o),
(34,356,cs),
(34,330,ls),
(34,69,o),
(141,-3,o),
(278,-9,c),
(286,-66,o),
(318,-137,o),
(437,-137,cs)
);
},
{
closed = 1;
nodes = (
(183,38,o),
(88,91,o),
(88,318,cs),
(88,368,ls),
(88,595,o),
(183,648,o),
(300,648,cs),
(417,648,o),
(512,595,o),
(512,368,cs),
(512,318,ls),
(512,91,o),
(417,38,o),
(300,38,cs)
);
}
);
};
hints = (
{
horizontal = 1;
origin = (0,6);
target = (0,28);
type = Stem;
},
{
horizontal = 1;
origin = (0,25);
target = (0,9);
type = Stem;
},
{
horizontal = 1;
place = (696, 48);
place = (696, 48);
type = Stem;
},
{
place = (54, 54);
place = (54, 54);
type = Stem;
},
{
place = (492, 54);
place = (492, 54);
type = Stem;
}
);
layerId = "1B515DD0-5446-4609-BD2C-839EAA0AE6A8";
shapes = (
{
closed = 1;
nodes = (
(483,-137,o),
(529,-122,o),
(550,-110,c),
(550,-65,l),
(519,-82,o),
(473,-93,o),
(441,-93,cs),
(374,-93,o),
(326,-51,o),
(326,6,c),
(314,-10,l),
(443,-6,o),
(546,62,o),
(546,310,cs),
(546,376,ls),
(546,633,o),
(437,696,o),
(301,696,cs),
(298,696,ls),
(169,696,o),
(54,635,o),
(54,376,cs),
(54,310,ls),
(54,65,o),
(152,-2,o),
(278,-9,c),
(289,-86,o),
(352,-137,o),
(437,-137,cs)
);
},
{
closed = 1;
nodes = (
(194,38,o),
(108,87,o),
(108,298,cs),
(108,388,ls),
(108,599,o),
(194,648,o),
(300,648,cs),
(406,648,o),
(492,599,o),
(492,388,cs),
(492,298,ls),
(492,87,o),
(406,38,o),
(300,38,cs)
);
}
);
width = 600;
},
{
anchors = (
{
name = bottom;
pos = (300,0);
},
{
name = top;
pos = (300,686);
}
);
background = {
shapes = (
{
closed = 1;
nodes = (
(535,-162,o),
(591,-139,o),
(627,-120,c),
(627,-15,l),
(599,-32,o),
(559,-44,o),
(522,-44,cs),
(481,-44,o),
(443,-30,o),
(424,6,c),
(542,46,o),
(627,158,o),
(627,290,cs),
(627,394,ls),
(627,560,o),
(493,694,o),
(327,694,cs),
(271,694,ls),
(105,694,o),
(-29,560,o),
(-29,394,cs),
(-29,290,ls),
(-29,144,o),
(75,22,o),
(213,-4,c),
(229,-72,o),
(295,-162,o),
(447,-162,cs)
);
},
{
closed = 1;
nodes = (
(242,147,o),
(197,189,o),
(197,247,cs),
(197,440,ls),
(197,495,o),
(239,540,o),
(299,540,cs),
(359,540,o),
(402,496,o),
(402,440,cs),
(402,247,ls),
(402,191,o),
(360,147,o),
(299,147,cs)
);
}
);
};
hints = (
{
horizontal = 1;
origin = (0,28);
target = (0,6);
type = Stem;
},
{
horizontal = 1;
origin = (0,18);
target = (1,6);
type = Stem;
},
{
origin = (0,22);
target = (1,2);
type = Stem;
},
{
origin = (1,10);
target = (0,13);
type = Stem;
}
);
layerId = "2883A7C2-0A22-4F0A-A898-75B9BDC585A4";
shapes = (
{
closed = 1;
nodes = (
(519,-162,o),
(584,-146,o),
(628,-120,c),
(628,-15,l),
(600,-32,o),
(560,-44,o),
(523,-44,cs),
(442,-44,o),
(404,-11,o),
(404,68,c),
(356,-7,l),
(502,5,o),
(598,115,o),
(598,270,cs),
(598,415,ls),
(598,583,o),
(486,696,o),
(318,696,cs),
(282,696,ls),
(114,696,o),
(2,583,o),
(2,415,cs),
(2,270,ls),
(2,126,o),
(85,23,o),
(214,-3,c),
(240,-113,o),
(343,-162,o),
(453,-162,cs)
);
},
{
closed = 1;
nodes = (
(251,147,o),
(218,177,o),
(218,232,cs),
(218,455,ls),
(218,510,o),
(251,540,o),
(300,540,cs),
(350,540,o),
(383,510,o),
(383,455,cs),
(383,232,ls),
(383,177,o),
(350,147,o),
(300,147,cs)
);
}
);
width = 600;
},
{
associatedMasterId = "1B515DD0-5446-4609-BD2C-839EAA0AE6A8";
layerId = "26F5AAB6-2055-4371-9743-1825ED82AB6B";
width = 600;
},
{
anchors = (
{
name = bottom;
pos = (300,0);
},
{
name = top;
pos = (300,686);
}
);
hints = (
{
horizontal = 1;
origin = (0,6);
target = (0,28);
type = Stem;
},
{
horizontal = 1;
origin = (0,25);
target = (0,9);
type = Stem;
},
{
horizontal = 1;
place = (696, 2000);
place = (696, 2000);
type = Stem;
},
{
place = (30, 30);
place = (30, 30);
type = Stem;
},
{
place = (444, 2000);
place = (444, 2000);
type = Stem;
}
);
layerId = "A193C231-D910-4739-84D4-C6814F8A1DBE";
shapes = (
{
closed = 1;
nodes = (
(499,-148,o),
(553,-133,o),
(585,-114,c),
(585,-43,l),
(555,-60,o),
(512,-71,o),
(477,-71,cs),
(404,-71,o),
(361,-33,o),
(361,34,c),
(333,-9,l),
(469,-1,o),
(569,86,o),
(569,292,cs),
(569,393,ls),
(569,611,o),
(459,696,o),
(309,696,cs),
(291,696,ls),
(145,696,o),
(31,612,o),
(31,393,cs),
(31,292,ls),
(31,92,o),
(122,9,o),
(250,-6,c),
(267,-98,o),
(348,-148,o),
(444,-148,cs)
);
},
{
closed = 1;
nodes = (
(219,86,o),
(157,127,o),
(157,269,cs),
(157,418,ls),
(157,559,o),
(219,600,o),
(300,600,cs),
(381,600,o),
(444,559,o),
(444,418,cs),
(444,269,ls),
(444,127,o),
(381,86,o),
(300,86,cs)
);
}
);
width = 600;
}
);
note = Q;
unicode = 81;
},
{
color = 4;
glyphname = R;
layers = (
{
anchors = (
{
name = bottom;
pos = (315,0);
},
{
name = top;
pos = (312,686);
}
);
background = {
shapes = (
{
closed = 1;
nodes = (
(586,-3,o),
(597,1,o),
(597,1,c),
(597,20,l),
(572,32,o),
(546,30,o),
(546,153,cs),
(546,322,o),
(440,339,o),
(440,339,c),
(440,344,l),
(505,371,o),
(559,439,o),
(559,521,cs),
(559,624,o),
(476,686,o),
(379,686,cs),
(90,686,l),
(90,0,l),
(144,0,l),
(144,316,l),
(365,316,ls),
(397,316,o),
(494,303,o),
(494,127,cs),
(494,15,o),
(541,-3,o),
(572,-3,cs)
);
},
{
closed = 1;
nodes = (
(144,638,l),
(372,638,ls),
(451,638,o),
(506,596,o),
(506,517,cs),
(506,438,o),
(446,364,o),
(372,364,cs),
(144,364,l)
);
}
);
};
hints = (
{
horizontal = 1;
origin = (0,27);
target = up;
type = BottomGhost;
},
{
horizontal = 1;
origin = (0,20);
target = (1,8);
type = Stem;
},
{
horizontal = 1;
origin = (0,17);
target = (1,0);
type = Stem;
},
{
horizontal = 1;
origin = (0,18);
target = (0,3);
type = Stem;
},
{
horizontal = 1;
origin = (0,10);
target = (1,8);
type = Stem;
},
{
origin = (0,18);
target = (0,19);
type = Stem;
},
{
origin = (0,24);
target = (0,6);
type = Stem;
},
{
origin = (1,4);
target = (0,13);
type = Stem;
}
);
layerId = "1B515DD0-5446-4609-BD2C-839EAA0AE6A8";
shapes = (
{
closed = 1;
nodes = (
(576,-3,o),
(585,0,o),
(587,1,c),
(587,20,l),
(547,31,o),
(536,59,o),
(536,153,cs),
(536,250,o),
(496,321,o),
(430,339,c),
(430,344,l),
(499,358,o),
(549,428,o),
(549,511,cs),
(549,620,o),
(466,686,o),
(369,686,cs),
(90,686,l),
(90,0,l),
(144,0,l),
(144,316,l),
(355,316,ls),
(387,316,o),
(484,303,o),
(484,127,cs),
(484,15,o),
(531,-3,o),
(562,-3,cs)
);
},
{
closed = 1;
nodes = (
(144,638,l),
(362,638,ls),
(441,638,o),
(496,593,o),
(496,507,cs),
(496,424,o),
(440,364,o),
(354,364,cs),
(144,364,l)
);
}
);
width = 600;
},
{
anchors = (
{
name = bottom;
pos = (315,0);
},
{
name = top;
pos = (300,686);
}
);
background = {
shapes = (
{
closed = 1;
nodes = (
(572,-10,o),
(617,-6,o),
(653,9,c),
(653,50,l),
(603,63,o),
(602,132,o),
(602,173,cs),
(602,232,o),
(569,302,o),
(492,325,c),
(492,330,l),
(568,346,o),
(615,410,o),
(615,499,cs),
(615,608,o),
(529,686,o),
(417,686,cs),
(40,686,l),
(40,0,l),
(245,0,l),
(245,242,l),
(303,242,ls),
(388,242,o),
(392,159,o),
(392,119,cs),
(392,23,o),
(442,-10,o),
(533,-10,cs)
);
},
{
closed = 1;
nodes = (
(245,529,l),
(353,529,ls),
(381,529,o),
(401,502,o),
(401,474,cs),
(401,432,o),
(381,395,o),
(351,395,cs),
(245,395,l)
);
}
);
};
hints = (
{
horizontal = 1;
origin = (0,27);
target = up;
type = BottomGhost;
},
{
horizontal = 1;
origin = (1,8);
target = (0,20);
type = Stem;
},
{
horizontal = 1;
origin = (0,17);
target = (1,0);
type = Stem;
},
{
horizontal = 1;
origin = (0,18);
target = up;
type = BottomGhost;
},
{
origin = (0,18);
target = (0,19);
type = Stem;
},
{
origin = (0,24);
target = (0,6);
type = Stem;
},
{
origin = (1,4);
target = (0,13);
type = Stem;
}
);
layerId = "2883A7C2-0A22-4F0A-A898-75B9BDC585A4";
shapes = (
{
closed = 1;
nodes = (
(552,-10,o),
(597,-6,o),
(633,9,c),
(633,50,l),
(595,60,o),
(582,91,o),
(582,173,cs),
(582,232,o),
(549,302,o),
(472,325,c),
(472,330,l),
(548,346,o),
(595,410,o),
(595,499,cs),
(595,608,o),
(509,686,o),
(377,686,cs),
(40,686,l),
(40,0,l),
(245,0,l),
(245,242,l),
(283,242,ls),
(368,242,o),
(372,159,o),
(372,119,cs),
(372,23,o),
(422,-10,o),
(513,-10,cs)
);
},
{
closed = 1;
nodes = (
(245,529,l),
(323,529,ls),
(374,529,o),
(391,497,o),
(391,464,cs),
(391,427,o),
(374,395,o),
(321,395,cs),
(245,395,l)
);
}
);
width = 600;
},
{
associatedMasterId = "1B515DD0-5446-4609-BD2C-839EAA0AE6A8";
layerId = "26F5AAB6-2055-4371-9743-1825ED82AB6B";
width = 600;
},
{
anchors = (
{
name = bottom;
pos = (315,0);
},
{
name = top;
pos = (300,686);
}
);
hints = (
{
horizontal = 1;
origin = (0,27);
target = up;
type = BottomGhost;
},
{
horizontal = 1;
origin = (0,20);
target = (1,8);
type = Stem;
},
{
horizontal = 1;
origin = (0,17);
target = (1,0);
type = Stem;
},
{
horizontal = 1;
origin = (0,18);
target = (0,3);
type = Stem;
},
{
horizontal = 1;
origin = (0,10);
target = (1,8);
type = Stem;
},
{
origin = (0,18);
target = (0,19);
type = Stem;
},
{
origin = (0,24);
target = (0,6);
type = Stem;
},
{
origin = (1,4);
target = (0,13);
type = Stem;
}
);
layerId = "A193C231-D910-4739-84D4-C6814F8A1DBE";
shapes = (
{
closed = 1;
nodes = (
(565,-6,o),
(590,-3,o),
(607,5,c),
(607,33,l),
(568,44,o),
(556,73,o),
(556,162,cs),
(556,242,o),
(520,313,o),
(449,333,c),
(449,338,l),
(521,353,o),
(569,420,o),
(569,506,cs),
(569,615,o),
(485,686,o),
(373,686,cs),
(68,686,l),
(68,0,l),
(189,0,l),
(189,283,l),
(323,283,ls),
(379,283,o),
(434,239,o),
(434,123,cs),
(434,19,o),
(483,-6,o),
(540,-6,cs)
);
},
{
closed = 1;
nodes = (
(189,590,l),
(345,590,ls),
(411,590,o),
(449,550,o),
(449,488,cs),
(449,425,o),
(411,378,o),
(339,378,cs),
(189,378,l)
);
}
);
width = 600;
}
);
note = R;
unicode = 82;
},
{
color = 4;
glyphname = S;
layers = (
{
anchors = (
{
name = bottom;
pos = (300,0);
},
{
name = top;
pos = (300,686);
}
);
hints = (
{
horizontal = 1;
origin = (0,26);
target = (0,39);
type = Stem;
},
{
horizontal = 1;
origin = (0,17);
target = (0,8);
type = Stem;
},
{
origin = (0,36);
target = (0,29);
type = Stem;
},
{
origin = (0,23);
target = (0,2);
type = Stem;
},
{
origin = (0,20);
target = (0,5);
type = Stem;
},
{
origin = (0,12);
target = (0,13);
type = Stem;
}
);
layerId = "1B515DD0-5446-4609-BD2C-839EAA0AE6A8";
shapes = (
{
closed = 1;
nodes = (
(435,-10,o),
(546,42,o),
(546,188,cs),
(546,447,o),
(125,332,o),
(125,525,cs),
(125,615,o),
(203,648,o),
(300,648,cs),
(397,648,o),
(476,608,o),
(476,525,cs),
(476,503,l),
(526,503,l),
(526,516,ls),
(526,646,o),
(424,696,o),
(299,696,cs),
(178,696,o),
(72,646,o),
(72,528,cs),
(72,277,o),
(493,396,o),
(493,185,cs),
(493,72,o),
(406,38,o),
(299,38,cs),
(192,38,o),
(106,74,o),
(106,178,cs),
(106,187,o),
(106,196,o),
(107,205,c),
(56,205,l),
(55,200,o),
(55,192,o),
(55,187,cs),
(55,39,o),
(167,-10,o),
(303,-10,cs)
);
}
);
width = 600;
},
{
anchors = (
{
name = bottom;
pos = (300,0);
},
{
name = top;
pos = (300,686);
}
);
hints = (
{
horizontal = 1;
origin = (0,26);
target = (0,39);
type = Stem;
},
{
horizontal = 1;
place = (256.48, 176.4);
place = (256.48, 176.4);
type = Stem;
},
{
horizontal = 1;
origin = (0,17);
target = (0,8);
type = Stem;
},
{
origin = (0,36);
target = (0,29);
type = Stem;
},
{
origin = (0,23);
target = (0,2);
type = Stem;
},
{
origin = (0,20);
target = (0,5);
type = Stem;
},
{
origin = (0,12);
target = (0,13);
type = Stem;
}
);
layerId = "2883A7C2-0A22-4F0A-A898-75B9BDC585A4";
shapes = (
{
closed = 1;
nodes = (
(473,-10,o),
(594,59,o),
(594,229,cs),
(589,482,o),
(233,399,o),
(233,502,cs),
(233,527,o),
(257,544,o),
(306,544,cs),
(367,544,o),
(389,513,o),
(389,478,cs),
(389,474,l),
(581,474,l),
(581,486,ls),
(581,631,o),
(457,696,o),
(307,696,cs),
(150,696,o),
(21,623,o),
(21,478,cs),
(21,209,o),
(378,291,o),
(378,194,cs),
(378,170,o),
(365,151,o),
(295,151,cs),
(220,151,o),
(200,186,o),
(200,222,cs),
(200,227,o),
(200,229,o),
(201,234,c),
(7,234,l),
(6,224,o),
(6,218,o),
(6,210,cs),
(6,58,o),
(145,-10,o),
(294,-10,cs)
);
}
);
width = 600;
},
{
associatedMasterId = "1B515DD0-5446-4609-BD2C-839EAA0AE6A8";
layerId = "26F5AAB6-2055-4371-9743-1825ED82AB6B";
width = 600;
},
{
anchors = (
{
name = bottom;
pos = (300,0);
},
{
name = top;
pos = (300,686);
}
);
hints = (
{
horizontal = 1;
origin = (0,26);
target = (0,39);
type = Stem;
},
{
horizontal = 1;
origin = (0,17);
target = (0,8);
type = Stem;
},
{
origin = (0,36);
target = (0,29);
type = Stem;
},
{
origin = (0,23);
target = (0,2);
type = Stem;
},
{
origin = (0,20);
target = (0,5);
type = Stem;
},
{
origin = (0,12);
target = (0,13);
type = Stem;
}
);
layerId = "A193C231-D910-4739-84D4-C6814F8A1DBE";
shapes = (
{
closed = 1;
nodes = (
(452,-10,o),
(567,50,o),
(567,206,cs),
(565,463,o),
(173,362,o),
(173,515,cs),
(173,576,o),
(227,602,o),
(303,602,cs),
(384,602,o),
(437,566,o),
(437,504,cs),
(437,490,l),
(550,490,l),
(550,503,ls),
(550,639,o),
(439,696,o),
(303,696,cs),
(166,696,o),
(49,636,o),
(49,506,cs),
(49,247,o),
(442,349,o),
(442,189,cs),
(442,116,o),
(388,88,o),
(297,88,cs),
(204,88,o),
(148,124,o),
(148,198,cs),
(148,205,o),
(148,211,o),
(149,218,c),
(34,218,l),
(33,211,o),
(33,204,o),
(33,197,cs),
(33,47,o),
(157,-10,o),
(299,-10,cs)
);
}
);
width = 600;
}
);
note = S;
unicode = 83;
},
{
color = 4;
glyphname = Germandbls;
layers = (
{
anchors = (
{
name = bottom;
pos = (300,0);
},
{
name = top;
pos = (300,686);
}
);
background = {
shapes = (
{
closed = 1;
nodes = (
(483,-10,o),
(544,55,o),
(544,182,cs),
(544,276,o),
(493,330,o),
(427,351,c),
(427,355,l),
(485,387,o),
(530,428,o),
(530,516,cs),
(530,628,o),
(449,696,o),
(317,696,cs),
(161,696,o),
(81,608,o),
(81,436,cs),
(81,0,l),
(135,0,l),
(135,441,ls),
(135,578,o),
(196,648,o),
(316,648,cs),
(415,648,o),
(476,598,o),
(476,515,cs),
(476,423,o),
(403,375,o),
(339,375,cs),
(277,375,l),
(277,327,l),
(344,327,ls),
(415,327,o),
(491,281,o),
(491,181,cs),
(491,85,o),
(448,36,o),
(364,36,cs),
(287,36,o),
(248,91,o),
(248,199,c),
(195,199,l),
(195,182,ls),
(195,55,o),
(252,-10,o),
(364,-10,cs)
);
}
);
};
hints = (
{
horizontal = 1;
origin = (0,39);
target = (0,36);
type = Stem;
},
{
horizontal = 1;
origin = (0,29);
target = (0,28);
type = Stem;
},
{
horizontal = 1;
origin = (0,12);
target = (0,21);
type = Stem;
},
{
horizontal = 1;
origin = (0,16);
target = up;
type = BottomGhost;
},
{
origin = (0,16);
target = (0,17);
type = Stem;
},
{
origin = (0,38);
target = (0,37);
type = Stem;
},
{
origin = (0,33);
target = (0,2);
type = Stem;
}
);
layerId = "1B515DD0-5446-4609-BD2C-839EAA0AE6A8";
shapes = (
{
closed = 1;
nodes = (
(477,0,o),
(544,61,o),
(544,182,cs),
(544,276,o),
(493,330,o),
(427,351,c),
(427,355,l),
(485,387,o),
(530,428,o),
(530,516,cs),
(530,628,o),
(449,696,o),
(317,696,cs),
(161,696,o),
(81,608,o),
(81,436,cs),
(81,0,l),
(135,0,l),
(135,441,ls),
(135,578,o),
(196,648,o),
(316,648,cs),
(415,648,o),
(476,598,o),
(476,515,cs),
(476,423,o),
(403,375,o),
(339,375,cs),
(267,375,l),
(267,327,l),
(344,327,ls),
(415,327,o),
(491,281,o),
(491,181,cs),
(491,92,o),
(441,46,o),
(344,46,cs),
(245,46,l),
(245,0,l),
(344,0,l)
);
}
);
width = 600;
},
{
anchors = (
{
name = bottom;
pos = (300,0);
},
{
name = top;
pos = (300,686);
}
);
hints = (
{
horizontal = 1;
origin = (0,39);
target = (0,36);
type = Stem;
},
{
horizontal = 1;
origin = (0,29);
target = (0,28);
type = Stem;
},
{
horizontal = 1;
origin = (0,12);
target = (0,21);
type = Stem;
},
{
origin = (0,16);
target = (0,17);
type = Stem;
},
{
origin = (0,33);
target = (0,2);
type = Stem;
}
);
layerId = "2883A7C2-0A22-4F0A-A898-75B9BDC585A4";
shapes = (
{
closed = 1;
nodes = (
(514,0,o),
(587,70,o),
(587,208,cs),
(587,287,o),
(544,337,o),
(490,358,c),
(489,362,l),
(537,384,o),
(577,437,o),
(577,500,cs),
(577,631,o),
(462,696,o),
(320,696,cs),
(128,696,o),
(30,585,o),
(30,366,cs),
(30,0,l),
(240,0,l),
(240,406,ls),
(240,505,o),
(256,547,o),
(325,547,cs),
(362,547,o),
(392,532,o),
(392,474,cs),
(392,430,o),
(366,412,o),
(342,412,cs),
(294,412,l),
(294,289,l),
(348,289,ls),
(386,289,o),
(408,266,o),
(408,227,cs),
(408,176,o),
(401,149,o),
(339,149,cs),
(284,149,l),
(284,0,l),
(369,0,ls)
);
}
);
width = 600;
},
{
associatedMasterId = "1B515DD0-5446-4609-BD2C-839EAA0AE6A8";
layerId = "26F5AAB6-2055-4371-9743-1825ED82AB6B";
width = 600;
},
{
anchors = (
{
name = bottom;
pos = (300,0);
},
{
name = top;
pos = (300,686);
}
);
hints = (
{
horizontal = 1;
origin = (0,39);
target = (0,36);
type = Stem;
},
{
horizontal = 1;
origin = (0,29);
target = (0,28);
type = Stem;
},
{
horizontal = 1;
origin = (0,12);
target = (0,21);
type = Stem;
},
{
horizontal = 1;
origin = (0,16);
target = up;
type = BottomGhost;
},
{
origin = (0,16);
target = (0,17);
type = Stem;
},
{
origin = (0,38);
target = (0,37);
type = Stem;
},
{
origin = (0,33);
target = (0,2);
type = Stem;
}
);
layerId = "A193C231-D910-4739-84D4-C6814F8A1DBE";
shapes = (
{
closed = 1;
nodes = (
(493,0,o),
(563,65,o),
(563,194,cs),
(563,281,o),
(516,333,o),
(455,354,c),
(455,358,l),
(508,386,o),
(551,432,o),
(551,509,cs),
(551,629,o),
(455,696,o),
(318,696,cs),
(146,696,o),
(58,598,o),
(58,405,cs),
(58,0,l),
(182,0,l),
(182,425,ls),
(182,546,o),
(223,603,o),
(320,603,cs),
(391,603,o),
(439,569,o),
(439,497,cs),
(439,426,o),
(387,391,o),
(340,391,cs),
(279,391,l),
(279,310,l),
(346,310,ls),
(402,310,o),
(454,274,o),
(454,201,cs),
(454,129,o),
(423,92,o),
(342,92,cs),
(262,92,l),
(262,0,l),
(355,0,l)
);
}
);
width = 600;
}
);
note = uni1E9E;
unicode = 7838;
},
{
color = 4;
glyphname = T;
layers = (
{
anchors = (
{
name = bottom;
pos = (300,0);
},
{
name = center;
pos = (300,340);
},
{
name = top;
pos = (300,686);
}
);
hints = (
{
horizontal = 1;
origin = (0,7);
target = up;
type = BottomGhost;
},
{
horizontal = 1;
origin = (0,4);
target = (0,5);
type = Stem;
},
{
origin = (0,7);
target = (0,0);
type = Stem;
}
);
layerId = "1B515DD0-5446-4609-BD2C-839EAA0AE6A8";
shapes = (
{
closed = 1;
nodes = (
(326,0,l),
(326,638,l),
(558,638,l),
(558,686,l),
(42,686,l),
(42,638,l),
(274,638,l),
(274,0,l)
);
}
);
width = 600;
},
{
anchors = (
{
name = bottom;
pos = (300,0);
},
{
name = center;
pos = (300,330);
},
{
name = top;
pos = (300,686);
}
);
hints = (
{
horizontal = 1;
origin = (0,7);
target = up;
type = BottomGhost;
},
{
horizontal = 1;
origin = (0,5);
target = (0,4);
type = Stem;
},
{
origin = (0,7);
target = (0,0);
type = Stem;
}
);
layerId = "2883A7C2-0A22-4F0A-A898-75B9BDC585A4";
shapes = (
{
closed = 1;
nodes = (
(404,0,l),
(404,521,l),
(578,521,l),
(578,686,l),
(22,686,l),
(22,521,l),
(196,521,l),
(196,0,l)
);
}
);
width = 600;
},
{
associatedMasterId = "1B515DD0-5446-4609-BD2C-839EAA0AE6A8";
layerId = "26F5AAB6-2055-4371-9743-1825ED82AB6B";
width = 600;
},
{
anchors = (
{
name = bottom;
pos = (300,0);
},
{
name = center;
pos = (300,336);
},
{
name = top;
pos = (300,686);
}
);
hints = (
{
horizontal = 1;
origin = (0,7);
target = up;
type = BottomGhost;
},
{
horizontal = 1;
origin = (0,4);
target = (0,5);
type = Stem;
},
{
origin = (0,7);
target = (0,0);
type = Stem;
}
);
layerId = "A193C231-D910-4739-84D4-C6814F8A1DBE";
shapes = (
{
closed = 1;
nodes = (
(361,0,l),
(361,586,l),
(567,586,l),
(567,686,l),
(33,686,l),
(33,586,l),
(239,586,l),
(239,0,l)
);
}
);
width = 600;
}
);
note = T;
unicode = 84;
},
{
color = 1;
glyphname = Tbar;
layers = (
{
background = {
shapes = (
{
closed = 1;
nodes = (
(315,0,l),
(315,313,l),
(434,313,l),
(434,355,l),
(315,355,l),
(315,638,l),
(547,638,l),
(547,686,l),
(31,686,l),
(31,638,l),
(263,638,l),
(263,355,l),
(144,355,l),
(144,313,l),
(263,313,l),
(263,0,l)
);
}
);
};
layerId = "1B515DD0-5446-4609-BD2C-839EAA0AE6A8";
shapes = (
{
ref = T;
},
{
pos = (0,-23);
ref = strokeshortcomb;
}
);
width = 600;
},
{
background = {
shapes = (
{
closed = 1;
nodes = (
(397,0,l),
(397,271,l),
(499,271,l),
(499,397,l),
(397,397,l),
(397,521,l),
(571,521,l),
(571,686,l),
(15,686,l),
(15,521,l),
(189,521,l),
(189,397,l),
(85,397,l),
(85,271,l),
(189,271,l),
(189,0,l)
);
}
);
};
layerId = "2883A7C2-0A22-4F0A-A898-75B9BDC585A4";
shapes = (
{
ref = T;
},
{
pos = (0,25);
ref = strokeshortcomb;
}
);
width = 600;
},
{
associatedMasterId = "1B515DD0-5446-4609-BD2C-839EAA0AE6A8";
layerId = "26F5AAB6-2055-4371-9743-1825ED82AB6B";
width = 600;
},
{
layerId = "A193C231-D910-4739-84D4-C6814F8A1DBE";
shapes = (
{
ref = T;
},
{
pos = (0,-1);
ref = strokeshortcomb;
}
);
width = 600;
}
);
note = Tbar;
unicode = 358;
},
{
color = 4;
glyphname = U;
layers = (
{
anchors = (
{
name = bottom;
pos = (300,0);
},
{
name = center;
pos = (302,382);
},
{
name = ogonek;
pos = (448,0);
},
{
name = top;
pos = (300,686);
},
{
name = topright;
pos = (465,686);
}
);
hints = (
{
horizontal = 1;
origin = (0,9);
target = (0,18);
type = Stem;
},
{
horizontal = 1;
origin = (0,14);
target = down;
type = TopGhost;
},
{
origin = (0,15);
target = (0,12);
type = Stem;
},
{
origin = (0,6);
target = (0,3);
type = Stem;
}
);
layerId = "1B515DD0-5446-4609-BD2C-839EAA0AE6A8";
shapes = (
{
closed = 1;
nodes = (
(303,-10,ls),
(439,-10,o),
(519,75,o),
(519,220,cs),
(519,686,l),
(465,686,l),
(465,220,ls),
(465,106,o),
(404,38,o),
(300,38,cs),
(196,38,o),
(135,106,o),
(135,220,cs),
(135,686,l),
(81,686,l),
(81,220,ls),
(81,75,o),
(161,-10,o),
(297,-10,cs)
);
}
);
width = 600;
},
{
anchors = (
{
name = bottom;
pos = (300,0);
},
{
name = center;
pos = (303,387);
},
{
name = ogonek;
pos = (478,0);
},
{
name = top;
pos = (300,686);
},
{
name = topright;
pos = (456,686);
}
);
hints = (
{
horizontal = 1;
origin = (0,9);
target = (0,18);
type = Stem;
},
{
horizontal = 1;
origin = (0,14);
target = down;
type = TopGhost;
},
{
origin = (0,15);
target = (0,12);
type = Stem;
},
{
origin = (0,6);
target = (0,3);
type = Stem;
}
);
layerId = "2883A7C2-0A22-4F0A-A898-75B9BDC585A4";
shapes = (
{
closed = 1;
nodes = (
(322,-10,ls),
(478,-10,o),
(570,75,o),
(570,218,cs),
(570,686,l),
(370,686,l),
(370,218,ls),
(370,171,o),
(346,146,o),
(300,146,cs),
(254,146,o),
(230,171,o),
(230,218,cs),
(230,686,l),
(30,686,l),
(30,218,ls),
(30,75,o),
(122,-10,o),
(279,-10,cs)
);
}
);
width = 600;
},
{
associatedMasterId = "1B515DD0-5446-4609-BD2C-839EAA0AE6A8";
layerId = "26F5AAB6-2055-4371-9743-1825ED82AB6B";
width = 600;
},
{
anchors = (
{
name = bottom;
pos = (300,0);
},
{
name = center;
pos = (302,387);
},
{
name = ogonek;
pos = (461,0);
},
{
name = top;
pos = (300,686);
},
{
name = topright;
pos = (461,686);
}
);
hints = (
{
horizontal = 1;
origin = (0,9);
target = (0,18);
type = Stem;
},
{
horizontal = 1;
origin = (0,14);
target = down;
type = TopGhost;
},
{
origin = (0,15);
target = (0,12);
type = Stem;
},
{
origin = (0,6);
target = (0,3);
type = Stem;
}
);
layerId = "A193C231-D910-4739-84D4-C6814F8A1DBE";
shapes = (
{
closed = 1;
nodes = (
(311,-10,ls),
(456,-10,o),
(542,75,o),
(542,219,cs),
(542,686,l),
(423,686,l),
(423,219,ls),
(423,135,o),
(378,86,o),
(300,86,cs),
(222,86,o),
(177,135,o),
(177,219,cs),
(177,686,l),
(58,686,l),
(58,219,ls),
(58,75,o),
(144,-10,o),
(289,-10,cs)
);
}
);
width = 600;
}
);
note = U;
unicode = 85;
},
{
color = 3;
glyphname = Ubar;
layers = (
{
layerId = "1B515DD0-5446-4609-BD2C-839EAA0AE6A8";
shapes = (
{
ref = U;
},
{
closed = 1;
nodes = (
(27,359,l),
(577,359,l),
(577,407,l),
(27,407,l)
);
}
);
width = 600;
},
{
layerId = "A193C231-D910-4739-84D4-C6814F8A1DBE";
shapes = (
{
ref = U;
},
{
closed = 1;
nodes = (
(4,339,l),
(599,339,l),
(599,438,l),
(4,438,l)
);
}
);
width = 600;
},
{
background = {
shapes = (
{
alignment = -1;
pos = (52,-14);
ref = baraccentlongcomb;
}
);
};
layerId = "2883A7C2-0A22-4F0A-A898-75B9BDC585A4";
shapes = (
{
ref = U;
},
{
closed = 1;
nodes = (
(-8,325,l),
(614,325,l),
(614,451,l),
(-8,451,l)
);
}
);
width = 600;
}
);
unicode = 580;
},
{
color = 1;
glyphname = Udieresisacute;
layers = (
{
background = {
shapes = (
{
closed = 1;
nodes = (
(343,-10,ls),
(482,-10,o),
(578,83,o),
(578,220,cs),
(578,686,l),
(524,686,l),
(524,222,ls),
(524,114,o),
(458,38,o),
(339,38,cs),
(221,38,o),
(155,111,o),
(155,222,cs),
(155,686,l),
(101,686,l),
(101,220,ls),
(101,81,o),
(195,-10,o),
(337,-10,cs)
);
},
{
closed = 1;
nodes = (
(286,797,l),
(286,866,l),
(221,866,l),
(221,797,l)
);
},
{
closed = 1;
nodes = (
(462,797,l),
(462,866,l),
(397,866,l),
(397,797,l)
);
},
{
closed = 1;
nodes = (
(368,895,l),
(465,1019,l),
(465,1022,l),
(400,1022,l),
(318,895,l)
);
}
);
};
layerId = "1B515DD0-5446-4609-BD2C-839EAA0AE6A8";
shapes = (
{
ref = U;
},
{
pos = (1,0);
ref = dieresiscomb_acutecomb.cap;
}
);
width = 600;
},
{
background = {
shapes = (
{
closed = 1;
nodes = (
(365,-10,ls),
(528,-10,o),
(635,79,o),
(635,218,cs),
(635,686,l),
(425,686,l),
(425,221,ls),
(425,177,o),
(389,146,o),
(344,146,cs),
(299,146,o),
(263,177,o),
(263,221,cs),
(263,686,l),
(52,686,l),
(52,218,ls),
(52,79,o),
(159,-10,o),
(322,-10,cs)
);
},
{
closed = 1;
nodes = (
(312,748,l),
(312,895,l),
(160,895,l),
(160,748,l)
);
},
{
closed = 1;
nodes = (
(532,748,l),
(532,895,l),
(380,895,l),
(380,748,l)
);
},
{
closed = 1;
nodes = (
(406,937,l),
(524,1067,l),
(522,1070,l),
(371,1070,l),
(288,937,l)
);
}
);
};
layerId = "2883A7C2-0A22-4F0A-A898-75B9BDC585A4";
shapes = (
{
ref = U;
},
{
ref = dieresiscomb_acutecomb.cap;
}
);
width = 600;
},
{
associatedMasterId = "1B515DD0-5446-4609-BD2C-839EAA0AE6A8";
layerId = "26F5AAB6-2055-4371-9743-1825ED82AB6B";
width = 600;
},
{
layerId = "A193C231-D910-4739-84D4-C6814F8A1DBE";
shapes = (
{
ref = U;
},
{
pos = (1,0);
ref = dieresiscomb_acutecomb.cap;
}
);
width = 600;
}
);
note = uni01D7;
unicode = 471;
},
{
color = 1;
glyphname = Udieresismacron;
layers = (
{
background = {
shapes = (
{
closed = 1;
nodes = (
(343,-10,ls),
(482,-10,o),
(578,83,o),
(578,220,cs),
(578,686,l),
(524,686,l),
(524,222,ls),
(524,114,o),
(458,38,o),
(339,38,cs),
(221,38,o),
(155,111,o),
(155,222,cs),
(155,686,l),
(101,686,l),
(101,220,ls),
(101,81,o),
(195,-10,o),
(337,-10,cs)
);
},
{
closed = 1;
nodes = (
(286,797,l),
(286,866,l),
(221,866,l),
(221,797,l)
);
},
{
closed = 1;
nodes = (
(462,797,l),
(462,866,l),
(397,866,l),
(397,797,l)
);
},
{
closed = 1;
nodes = (
(477,906,l),
(477,950,l),
(206,950,l),
(206,906,l)
);
}
);
};
layerId = "1B515DD0-5446-4609-BD2C-839EAA0AE6A8";
shapes = (
{
ref = U;
},
{
ref = dieresiscomb_macroncomb.cap;
}
);
width = 600;
},
{
background = {
shapes = (
{
closed = 1;
nodes = (
(365,-10,ls),
(528,-10,o),
(635,79,o),
(635,218,cs),
(635,686,l),
(425,686,l),
(425,221,ls),
(425,177,o),
(389,146,o),
(344,146,cs),
(299,146,o),
(263,177,o),
(263,221,cs),
(263,686,l),
(52,686,l),
(52,218,ls),
(52,79,o),
(159,-10,o),
(322,-10,cs)
);
},
{
closed = 1;
nodes = (
(312,748,l),
(312,895,l),
(160,895,l),
(160,748,l)
);
},
{
closed = 1;
nodes = (
(532,748,l),
(532,895,l),
(380,895,l),
(380,748,l)
);
},
{
closed = 1;
nodes = (
(522,939,l),
(522,1043,l),
(170,1043,l),
(170,939,l)
);
}
);
};
layerId = "2883A7C2-0A22-4F0A-A898-75B9BDC585A4";
shapes = (
{
ref = U;
},
{
ref = dieresiscomb_macroncomb.cap;
}
);
width = 600;
},
{
associatedMasterId = "1B515DD0-5446-4609-BD2C-839EAA0AE6A8";
layerId = "26F5AAB6-2055-4371-9743-1825ED82AB6B";
width = 600;
},
{
layerId = "A193C231-D910-4739-84D4-C6814F8A1DBE";
shapes = (
{
ref = U;
},
{
pos = (1,0);
ref = dieresiscomb_macroncomb.cap;
}
);
width = 600;
}
);
note = uni01D5;
unicode = 469;
},
{
color = 1;
glyphname = Uhorn;
layers = (
{
background = {
shapes = (
{
closed = 1;
nodes = (
(343,-10,ls),
(482,-10,o),
(578,83,o),
(578,220,cs),
(578,669,l),
(631,702,o),
(656,759,o),
(656,830,c),
(600,830,l),
(600,755,o),
(574,704,o),
(524,686,c),
(524,222,ls),
(524,114,o),
(458,38,o),
(339,38,cs),
(221,38,o),
(155,111,o),
(155,222,cs),
(155,686,l),
(101,686,l),
(101,220,ls),
(101,81,o),
(195,-10,o),
(337,-10,cs)
);
}
);
};
layerId = "1B515DD0-5446-4609-BD2C-839EAA0AE6A8";
shapes = (
{
ref = U;
},
{
pos = (231,0);
ref = horncomb.cap;
}
);
width = 600;
},
{
background = {
shapes = (
{
closed = 1;
nodes = (
(300,-10,ls),
(463,-10,o),
(570,79,o),
(570,218,cs),
(570,621,l),
(648,664,o),
(699,741,o),
(699,825,c),
(535,825,l),
(535,740,o),
(521,696,o),
(456,686,c),
(360,686,l),
(360,221,ls),
(360,177,o),
(324,146,o),
(279,146,cs),
(234,146,o),
(198,177,o),
(198,221,cs),
(198,686,l),
(-13,686,l),
(-13,218,ls),
(-13,79,o),
(94,-10,o),
(257,-10,cs)
);
}
);
};
layerId = "2883A7C2-0A22-4F0A-A898-75B9BDC585A4";
shapes = (
{
ref = U;
},
{
pos = (277,0);
ref = horncomb.cap;
}
);
width = 600;
},
{
associatedMasterId = "1B515DD0-5446-4609-BD2C-839EAA0AE6A8";
layerId = "26F5AAB6-2055-4371-9743-1825ED82AB6B";
width = 600;
},
{
layerId = "A193C231-D910-4739-84D4-C6814F8A1DBE";
shapes = (
{
ref = U;
},
{
pos = (251,0);
ref = horncomb.cap;
}
);
width = 600;
}
);
note = Uhorn;
unicode = 431;
},
{
color = 1;
glyphname = Uogonek;
layers = (
{
background = {
shapes = (
{
closed = 1;
nodes = (
(438,-143,o),
(467,-135,o),
(493,-119,c),
(480,-86,l),
(459,-93,o),
(437,-100,o),
(413,-100,cs),
(392,-100,o),
(369,-91,o),
(369,-60,cs),
(369,-39,o),
(381,-20,o),
(414,-1,c),
(514,25,o),
(578,108,o),
(578,220,cs),
(578,686,l),
(524,686,l),
(524,222,ls),
(524,114,o),
(458,38,o),
(339,38,cs),
(221,38,o),
(155,111,o),
(155,222,cs),
(155,686,l),
(101,686,l),
(101,220,ls),
(101,81,o),
(195,-10,o),
(337,-10,cs),
(343,-10,l),
(349,-10,l),
(329,-24,o),
(312,-46,o),
(312,-71,cs),
(312,-126,o),
(363,-143,o),
(409,-143,cs)
);
}
);
};
layerId = "1B515DD0-5446-4609-BD2C-839EAA0AE6A8";
shapes = (
{
ref = U;
},
{
pos = (68,0);
ref = ogonekcomb;
}
);
width = 600;
},
{
background = {
shapes = (
{
closed = 1;
nodes = (
(460,-143,o),
(495,-135,o),
(527,-119,c),
(514,-76,l),
(493,-84,o),
(470,-90,o),
(447,-90,cs),
(426,-90,o),
(403,-83,o),
(403,-56,cs),
(403,-30,o),
(429,-13,o),
(448,-2,c),
(563,24,o),
(635,104,o),
(635,218,cs),
(635,686,l),
(425,686,l),
(425,221,ls),
(425,177,o),
(389,146,o),
(344,146,cs),
(299,146,o),
(263,177,o),
(263,221,cs),
(263,686,l),
(52,686,l),
(52,218,ls),
(52,79,o),
(159,-10,o),
(322,-10,cs),
(354,-10,l),
(338,-25,o),
(326,-45,o),
(326,-71,cs),
(326,-126,o),
(377,-143,o),
(423,-143,cs)
);
}
);
};
layerId = "2883A7C2-0A22-4F0A-A898-75B9BDC585A4";
shapes = (
{
ref = U;
},
{
pos = (59,0);
ref = ogonekcomb;
}
);
width = 600;
},
{
associatedMasterId = "1B515DD0-5446-4609-BD2C-839EAA0AE6A8";
layerId = "26F5AAB6-2055-4371-9743-1825ED82AB6B";
width = 600;
},
{
layerId = "A193C231-D910-4739-84D4-C6814F8A1DBE";
shapes = (
{
ref = U;
},
{
pos = (65,0);
ref = ogonekcomb;
}
);
width = 600;
}
);
note = Uogonek;
unicode = 370;
},
{
color = 4;
glyphname = V;
layers = (
{
anchors = (
{
name = bottom;
pos = (300,0);
},
{
name = top;
pos = (300,686);
}
);
background = {
shapes = (
{
closed = 1;
nodes = (
(524,686,l),
(304,74,l),
(300,74,l),
(78,686,l),
(20,686,l),
(272,0,l),
(328,0,l),
(580,686,l)
);
},
{
closed = 1;
nodes = (
(119,516,l),
(119,467,l),
(483,467,l),
(483,516,l)
);
}
);
};
hints = (
{
horizontal = 1;
place = (0, 21);
target = up;
type = BottomGhost;
},
{
horizontal = 1;
place = (686, -20);
target = down;
type = TopGhost;
},
{
place = (18, 567);
place = (18, 567);
type = Stem;
},
{
horizontal = 1;
place = (0, 86);
place = (0, 86);
type = Stem;
}
);
layerId = "1B515DD0-5446-4609-BD2C-839EAA0AE6A8";
shapes = (
{
closed = 1;
nodes = (
(328,0,l),
(580,686,l),
(524,686,l),
(304,74,l),
(300,74,l),
(78,686,l),
(20,686,l),
(272,0,l)
);
}
);
width = 600;
},
{
anchors = (
{
name = bottom;
pos = (300,0);
},
{
name = top;
pos = (300,686);
}
);
background = {
shapes = (
{
closed = 1;
nodes = (
(435,0,l),
(600,686,l),
(403,686,l),
(311,161,l),
(306,161,l),
(207,686,l),
(0,686,l),
(167,0,l)
);
}
);
};
hints = (
{
horizontal = 1;
place = (0, 21);
target = up;
type = BottomGhost;
},
{
horizontal = 1;
place = (686, -20);
target = down;
type = TopGhost;
},
{
place = (-3, 663);
place = (-3, 663);
type = Stem;
}
);
layerId = "2883A7C2-0A22-4F0A-A898-75B9BDC585A4";
shapes = (
{
closed = 1;
nodes = (
(435,0,l),
(600,686,l),
(403,686,l),
(311,161,l),
(306,161,l),
(207,686,l),
(0,686,l),
(167,0,l)
);
}
);
width = 600;
},
{
associatedMasterId = "1B515DD0-5446-4609-BD2C-839EAA0AE6A8";
layerId = "26F5AAB6-2055-4371-9743-1825ED82AB6B";
width = 600;
},
{
anchors = (
{
name = bottom;
pos = (300,0);
},
{
name = top;
pos = (300,686);
}
);
hints = (
{
horizontal = 1;
place = (0, 21);
target = up;
type = BottomGhost;
},
{
horizontal = 1;
place = (686, -20);
target = down;
type = TopGhost;
},
{
place = (10, 315);
place = (10, 315);
type = Stem;
},
{
horizontal = 1;
place = (-1, 342);
place = (-1, 342);
type = Stem;
}
);
layerId = "A193C231-D910-4739-84D4-C6814F8A1DBE";
shapes = (
{
closed = 1;
nodes = (
(376,0,l),
(589,686,l),
(470,686,l),
(307,113,l),
(303,113,l),
(135,686,l),
(11,686,l),
(225,0,l)
);
}
);
width = 600;
}
);
note = V;
unicode = 86;
},
{
color = 4;
glyphname = W;
layers = (
{
anchors = (
{
name = bottom;
pos = (300,0);
},
{
name = top;
pos = (300,686);
}
);
background = {
shapes = (
{
closed = 1;
nodes = (
(287,0,l),
(456,581,l),
(460,581,l),
(629,0,l),
(675,0,l),
(875,686,l),
(825,686,l),
(658,107,l),
(654,107,l),
(487,686,l),
(437,686,l),
(270,107,l),
(266,107,l),
(99,686,l),
(41,686,l),
(241,0,l)
);
}
);
};
hints = (
{
horizontal = 1;
place = (0, 21);
target = up;
type = BottomGhost;
},
{
horizontal = 1;
place = (686, -20);
target = down;
type = TopGhost;
},
{
place = (41, 834);
place = (41, 834);
type = Stem;
},
{
horizontal = 1;
place = (581, 105);
place = (581, 105);
type = Stem;
},
{
horizontal = 1;
place = (0, 107);
place = (0, 107);
type = Stem;
}
);
layerId = "1B515DD0-5446-4609-BD2C-839EAA0AE6A8";
shapes = (
{
closed = 1;
nodes = (
(199,0,l),
(298,581,l),
(302,581,l),
(403,0,l),
(470,0,l),
(600,686,l),
(549,686,l),
(443,107,l),
(439,107,l),
(339,686,l),
(267,686,l),
(169,107,l),
(165,107,l),
(55,686,l),
(0,686,l),
(130,0,l)
);
}
);
width = 600;
},
{
anchors = (
{
name = bottom;
pos = (300,0);
},
{
name = top;
pos = (300,686);
}
);
background = {
shapes = (
{
closed = 1;
nodes = (
(338,0,l),
(540,0,l),
(600,686,l),
(435,686,l),
(406,305,l),
(402,305,l),
(366,686,l),
(317,686,l),
(309,255,l)
);
},
{
closed = 1;
nodes = (
(236,686,l),
(198,305,l),
(194,305,l),
(161,686,l),
(0,686,l),
(60,0,l),
(262,0,l),
(295,329,l),
(301,329,l),
(309,255,l),
(317,686,l)
);
}
);
};
hints = (
{
horizontal = 1;
place = (0, 21);
target = up;
type = BottomGhost;
},
{
horizontal = 1;
place = (686, -20);
target = down;
type = TopGhost;
},
{
place = (-2, 1025);
place = (-2, 1025);
type = Stem;
}
);
layerId = "2883A7C2-0A22-4F0A-A898-75B9BDC585A4";
shapes = (
{
closed = 1;
nodes = (
(263,0,l),
(298,329,l),
(302,329,l),
(337,0,l),
(540,0,l),
(600,686,l),
(449,686,l),
(416,305,l),
(412,305,l),
(372,686,l),
(248,686,l),
(208,305,l),
(204,305,l),
(171,686,l),
(0,686,l),
(60,0,l)
);
}
);
width = 600;
},
{
associatedMasterId = "1B515DD0-5446-4609-BD2C-839EAA0AE6A8";
layerId = "26F5AAB6-2055-4371-9743-1825ED82AB6B";
width = 600;
},
{
anchors = (
{
name = bottom;
pos = (300,0);
},
{
name = top;
pos = (300,686);
}
);
hints = (
{
horizontal = 1;
place = (0, 21);
target = up;
type = BottomGhost;
},
{
horizontal = 1;
place = (686, -20);
target = down;
type = TopGhost;
},
{
place = (23, 463);
place = (23, 463);
type = Stem;
},
{
horizontal = 1;
place = (322, 514);
place = (322, 514);
type = Stem;
},
{
horizontal = 1;
place = (0, 59);
place = (0, 59);
type = Stem;
}
);
layerId = "A193C231-D910-4739-84D4-C6814F8A1DBE";
shapes = (
{
closed = 1;
nodes = (
(227,0,l),
(298,469,l),
(302,469,l),
(374,0,l),
(501,0,l),
(600,686,l),
(505,686,l),
(431,195,l),
(427,195,l),
(354,686,l),
(259,686,l),
(186,195,l),
(182,195,l),
(107,686,l),
(0,686,l),
(99,0,l)
);
}
);
width = 600;
}
);
note = W;
unicode = 87;
},
{
color = 4;
glyphname = X;
layers = (
{
anchors = (
{
name = bottom;
pos = (300,0);
},
{
name = top;
pos = (300,686);
}
);
hints = (
{
horizontal = 1;
origin = (0,13);
target = up;
type = BottomGhost;
},
{
horizontal = 1;
origin = (0,11);
target = down;
type = TopGhost;
}
);
layerId = "1B515DD0-5446-4609-BD2C-839EAA0AE6A8";
shapes = (
{
closed = 1;
nodes = (
(73,0,l),
(297,315,l),
(299,315,l),
(521,0,l),
(586,0,l),
(331,359,l),
(564,686,l),
(505,686,l),
(303,402,l),
(301,402,l),
(102,686,l),
(37,686,l),
(269,359,l),
(14,0,l)
);
}
);
width = 600;
},
{
anchors = (
{
name = bottom;
pos = (300,0);
},
{
name = top;
pos = (300,686);
}
);
background = {
shapes = (
{
closed = 1;
nodes = (
(0,0,l),
(216,0,l),
(279,213,l),
(283,213,l),
(357,0,l),
(601,0,l),
(438,362,l),
(580,686,l),
(375,686,l),
(322,511,l),
(229,511,l)
);
},
{
closed = 1;
nodes = (
(265,686,l),
(22,686,l),
(357,0,l),
(601,0,l)
);
}
);
};
hints = (
{
horizontal = 1;
origin = (0,13);
target = up;
type = BottomGhost;
},
{
horizontal = 1;
origin = (0,9);
target = down;
type = TopGhost;
},
{
horizontal = 1;
origin = (0,11);
target = down;
type = TopGhost;
}
);
layerId = "2883A7C2-0A22-4F0A-A898-75B9BDC585A4";
shapes = (
{
closed = 1;
nodes = (
(216,0,l),
(279,213,l),
(283,213,l),
(370,0,l),
(601,0,l),
(438,362,l),
(580,686,l),
(375,686,l),
(322,511,l),
(318,511,l),
(251,686,l),
(22,686,l),
(163,363,l),
(0,0,l)
);
}
);
width = 600;
},
{
associatedMasterId = "1B515DD0-5446-4609-BD2C-839EAA0AE6A8";
layerId = "26F5AAB6-2055-4371-9743-1825ED82AB6B";
width = 600;
},
{
associatedMasterId = "2883A7C2-0A22-4F0A-A898-75B9BDC585A4";
background = {
shapes = (
{
closed = 1;
nodes = (
(174,0,l),
(289,213,l),
(293,213,l),
(409,0,l),
(653,0,l),
(438,362,l),
(632,686,l),
(407,686,l),
(312,511,l),
(308,511,l),
(213,686,l),
(-30,686,l),
(163,363,l),
(-52,0,l)
);
}
);
};
hints = (
{
horizontal = 1;
place = (0, 21);
target = up;
type = BottomGhost;
},
{
horizontal = 1;
place = (511, -20);
target = down;
type = TopGhost;
},
{
horizontal = 1;
place = (686, -20);
target = down;
type = TopGhost;
},
{
place = (-15, 705);
place = (-15, 705);
type = Stem;
}
);
layerId = "B20F1D85-EF0D-4A53-A2FE-85FC0FF1B1BE";
name = "Feb 9 21, 12:32";
shapes = (
{
closed = 1;
nodes = (
(216,0,l),
(279,213,l),
(283,213,l),
(357,0,l),
(601,0,l),
(438,362,l),
(580,686,l),
(375,686,l),
(322,511,l),
(318,511,l),
(265,686,l),
(22,686,l),
(163,363,l),
(0,0,l)
);
}
);
width = 600;
},
{
anchors = (
{
name = bottom;
pos = (300,0);
},
{
name = top;
pos = (300,686);
}
);
hints = (
{
horizontal = 1;
origin = (0,13);
target = up;
type = BottomGhost;
},
{
horizontal = 1;
origin = (0,11);
target = down;
type = TopGhost;
}
);
layerId = "A193C231-D910-4739-84D4-C6814F8A1DBE";
shapes = (
{
closed = 1;
nodes = (
(137,0,l),
(289,270,l),
(292,270,l),
(454,0,l),
(593,0,l),
(379,360,l),
(571,686,l),
(447,686,l),
(311,450,l),
(309,450,l),
(168,686,l),
(30,686,l),
(222,361,l),
(8,0,l)
);
}
);
width = 600;
}
);
note = X;
unicode = 88;
},
{
color = 4;
glyphname = Y;
layers = (
{
anchors = (
{
name = bottom;
pos = (300,0);
},
{
name = top;
pos = (300,686);
},
{
name = topleft;
pos = (20,686);
}
);
hints = (
{
horizontal = 1;
origin = (0,9);
target = up;
type = BottomGhost;
},
{
horizontal = 1;
origin = (0,7);
target = down;
type = TopGhost;
},
{
origin = (0,9);
target = (0,0);
type = Stem;
}
);
layerId = "1B515DD0-5446-4609-BD2C-839EAA0AE6A8";
shapes = (
{
closed = 1;
nodes = (
(327,0,l),
(327,266,l),
(573,686,l),
(518,686,l),
(304,321,l),
(301,321,l),
(90,686,l),
(27,686,l),
(273,266,l),
(273,0,l)
);
}
);
width = 600;
},
{
anchors = (
{
name = bottom;
pos = (300,0);
},
{
name = top;
pos = (300,686);
},
{
name = topleft;
pos = (20,686);
}
);
background = {
shapes = (
{
closed = 1;
nodes = (
(405,0,l),
(405,262,l),
(632,686,l),
(417,686,l),
(312,461,l),
(307,461,l),
(204,686,l),
(-32,686,l),
(196,262,l),
(196,0,l)
);
}
);
};
hints = (
{
horizontal = 1;
origin = (0,9);
target = up;
type = BottomGhost;
},
{
horizontal = 1;
origin = (0,7);
target = down;
type = TopGhost;
},
{
origin = (0,9);
target = (0,0);
type = Stem;
}
);
layerId = "2883A7C2-0A22-4F0A-A898-75B9BDC585A4";
shapes = (
{
closed = 1;
nodes = (
(405,0,l),
(405,232,l),
(600,686,l),
(392,686,l),
(312,455,l),
(307,455,l),
(218,686,l),
(0,686,l),
(196,232,l),
(196,0,l)
);
}
);
width = 600;
},
{
associatedMasterId = "1B515DD0-5446-4609-BD2C-839EAA0AE6A8";
layerId = "26F5AAB6-2055-4371-9743-1825ED82AB6B";
width = 600;
},
{
anchors = (
{
name = bottom;
pos = (300,0);
},
{
name = top;
pos = (300,686);
},
{
name = topleft;
pos = (20,686);
}
);
hints = (
{
horizontal = 1;
origin = (0,9);
target = up;
type = BottomGhost;
},
{
horizontal = 1;
origin = (0,7);
target = down;
type = TopGhost;
},
{
origin = (0,9);
target = (0,0);
type = Stem;
}
);
layerId = "A193C231-D910-4739-84D4-C6814F8A1DBE";
shapes = (
{
closed = 1;
nodes = (
(362,0,l),
(362,251,l),
(585,686,l),
(462,686,l),
(308,381,l),
(304,381,l),
(147,686,l),
(15,686,l),
(239,251,l),
(239,0,l)
);
}
);
width = 600;
}
);
note = Y;
unicode = 89;
},
{
color = 4;
glyphname = Z;
layers = (
{
anchors = (
{
name = bottom;
pos = (300,0);
},
{
name = center;
pos = (300,343);
},
{
name = top;
pos = (300,686);
}
);
hints = (
{
horizontal = 1;
origin = (0,2);
target = (0,9);
type = Stem;
},
{
horizontal = 1;
origin = (0,5);
target = (0,6);
type = Stem;
}
);
layerId = "1B515DD0-5446-4609-BD2C-839EAA0AE6A8";
shapes = (
{
closed = 1;
nodes = (
(551,0,l),
(551,48,l),
(128,48,l),
(543,662,l),
(543,686,l),
(72,686,l),
(72,638,l),
(463,638,l),
(48,25,l),
(48,0,l)
);
}
);
width = 600;
},
{
anchors = (
{
name = bottom;
pos = (300,0);
},
{
name = center;
pos = (300,343);
},
{
name = top;
pos = (300,686);
}
);
hints = (
{
horizontal = 1;
origin = (0,9);
target = (0,2);
type = Stem;
},
{
horizontal = 1;
origin = (0,5);
target = (0,6);
type = Stem;
}
);
layerId = "2883A7C2-0A22-4F0A-A898-75B9BDC585A4";
shapes = (
{
closed = 1;
nodes = (
(585,0,l),
(585,161,l),
(314,161,l),
(577,625,l),
(577,686,l),
(38,686,l),
(38,526,l),
(282,526,l),
(14,61,l),
(14,0,l)
);
}
);
width = 600;
},
{
associatedMasterId = "1B515DD0-5446-4609-BD2C-839EAA0AE6A8";
layerId = "26F5AAB6-2055-4371-9743-1825ED82AB6B";
width = 600;
},
{
anchors = (
{
name = bottom;
pos = (300,0);
},
{
name = center;
pos = (300,343);
},
{
name = top;
pos = (300,686);
}
);
hints = (
{
horizontal = 1;
origin = (0,2);
target = (0,9);
type = Stem;
},
{
horizontal = 1;
origin = (0,5);
target = (0,6);
type = Stem;
}
);
layerId = "A193C231-D910-4739-84D4-C6814F8A1DBE";
shapes = (
{
closed = 1;
nodes = (
(566,0,l),
(566,98,l),
(211,98,l),
(558,646,l),
(558,686,l),
(57,686,l),
(57,588,l),
(383,588,l),
(33,41,l),
(33,0,l)
);
}
);
width = 600;
}
);
note = Z;
unicode = 90;
},
{
color = 1;
glyphname = Zdotaccent;
layers = (
{
background = {
shapes = (
{
closed = 1;
nodes = (
(550,0,l),
(550,48,l),
(128,48,l),
(542,662,l),
(542,686,l),
(71,686,l),
(71,638,l),
(460,638,l),
(47,25,l),
(47,0,l)
);
},
{
closed = 1;
nodes = (
(338,797,l),
(338,866,l),
(273,866,l),
(273,797,l)
);
}
);
};
layerId = "1B515DD0-5446-4609-BD2C-839EAA0AE6A8";
shapes = (
{
ref = Z;
},
{
pos = (-1,0);
ref = dotaccentcomb.cap;
}
);
width = 600;
},
{
background = {
shapes = (
{
closed = 1;
nodes = (
(585,0,l),
(585,161,l),
(314,161,l),
(577,625,l),
(577,686,l),
(38,686,l),
(38,526,l),
(282,526,l),
(14,61,l),
(14,0,l)
);
},
{
closed = 1;
nodes = (
(393,748,l),
(393,895,l),
(241,895,l),
(241,748,l)
);
}
);
};
layerId = "2883A7C2-0A22-4F0A-A898-75B9BDC585A4";
shapes = (
{
ref = Z;
},
{
ref = dotaccentcomb.cap;
}
);
width = 600;
},
{
associatedMasterId = "1B515DD0-5446-4609-BD2C-839EAA0AE6A8";
layerId = "26F5AAB6-2055-4371-9743-1825ED82AB6B";
width = 600;
},
{
layerId = "A193C231-D910-4739-84D4-C6814F8A1DBE";
shapes = (
{
ref = Z;
},
{
pos = (-1,0);
ref = dotaccentcomb.cap;
}
);
width = 600;
}
);
note = Zdotaccent;
unicode = 379;
},
{
color = 1;
glyphname = Cacute.loclPLK;
layers = (
{
background = {
shapes = (
{
closed = 1;
nodes = (
(340,-10,ls),
(470,-10,o),
(591,50,o),
(591,251,c),
(538,251,l),
(538,81,o),
(442,38,o),
(337,38,cs),
(220,38,o),
(133,91,o),
(133,318,cs),
(133,368,ls),
(133,595,o),
(220,648,o),
(337,648,cs),
(442,648,o),
(538,606,o),
(538,434,c),
(591,434,l),
(591,640,o),
(469,696,o),
(340,696,cs),
(335,696,ls),
(191,696,o),
(79,631,o),
(79,356,cs),
(79,330,ls),
(79,55,o),
(191,-10,o),
(335,-10,cs)
);
},
{
closed = 1;
nodes = (
(361,750,l),
(412,892,l),
(412,895,l),
(347,895,l),
(311,750,l)
);
}
);
};
layerId = "1B515DD0-5446-4609-BD2C-839EAA0AE6A8";
shapes = (
{
ref = C;
},
{
pos = (22,0);
ref = acute.loclPLK.cap;
}
);
width = 600;
},
{
background = {
shapes = (
{
closed = 1;
nodes = (
(377,-10,ls),
(539,-10,o),
(659,100,o),
(659,280,c),
(471,280,l),
(471,178,o),
(441,147,o),
(356,147,cs),
(292,147,o),
(257,188,o),
(257,247,cs),
(257,440,ls),
(257,499,o),
(295,540,o),
(356,540,cs),
(430,540,o),
(462,506,o),
(462,405,c),
(659,405,l),
(659,600,o),
(532,696,o),
(369,696,cs),
(341,696,ls),
(175,696,o),
(31,576,o),
(31,396,cs),
(31,290,ls),
(31,100,o),
(173,-10,o),
(349,-10,cs)
);
},
{
closed = 1;
nodes = (
(418,751,l),
(484,893,l),
(482,896,l),
(331,896,l),
(300,751,l)
);
}
);
};
layerId = "2883A7C2-0A22-4F0A-A898-75B9BDC585A4";
shapes = (
{
ref = C;
},
{
pos = (30,0);
ref = acute.loclPLK.cap;
}
);
width = 600;
},
{
associatedMasterId = "1B515DD0-5446-4609-BD2C-839EAA0AE6A8";
layerId = "26F5AAB6-2055-4371-9743-1825ED82AB6B";
width = 600;
},
{
layerId = "A193C231-D910-4739-84D4-C6814F8A1DBE";
shapes = (
{
ref = C;
},
{
pos = (26,0);
ref = acute.loclPLK.cap;
}
);
width = 600;
}
);
note = Cacute.loclPLK;
},
{
color = 4;
glyphname = Ismall;
layers = (
{
layerId = "1B515DD0-5446-4609-BD2C-839EAA0AE6A8";
shapes = (
{
closed = 1;
nodes = (
(441,0,l),
(441,46,l),
(325,46,l),
(325,465,l),
(441,465,l),
(441,511,l),
(158,511,l),
(158,465,l),
(274,465,l),
(274,46,l),
(158,46,l),
(158,0,l)
);
}
);
width = 600;
},
{
layerId = "A193C231-D910-4739-84D4-C6814F8A1DBE";
shapes = (
{
closed = 1;
nodes = (
(463,0,l),
(463,89,l),
(358,89,l),
(358,422,l),
(463,422,l),
(463,511,l),
(137,511,l),
(137,422,l),
(242,422,l),
(242,89,l),
(137,89,l),
(137,0,l)
);
}
);
width = 600;
},
{
layerId = "2883A7C2-0A22-4F0A-A898-75B9BDC585A4";
shapes = (
{
closed = 1;
nodes = (
(499,0,l),
(499,142,l),
(399,142,l),
(399,369,l),
(499,369,l),
(499,511,l),
(101,511,l),
(101,369,l),
(201,369,l),
(201,142,l),
(101,142,l),
(101,0,l)
);
}
);
width = 600;
}
);
unicode = 618;
},
{
color = 4;
glyphname = a;
layers = (
{
anchors = (
{
name = bottom;
pos = (301,0);
},
{
name = ogonek;
pos = (612,0);
},
{
name = top;
pos = (291,511);
}
);
layerId = "1B515DD0-5446-4609-BD2C-839EAA0AE6A8";
shapes = (
{
closed = 1;
nodes = (
(306,-10,o),
(386,9,o),
(425,86,c),
(427,6,o),
(452,-10,o),
(500,-10,cs),
(521,-10,o),
(542,-3,o),
(558,9,c),
(558,52,l),
(542,41,o),
(525,36,o),
(508,36,cs),
(488,36,o),
(474,43,o),
(474,69,cs),
(474,370,ls),
(474,472,o),
(415,521,o),
(290,521,cs),
(175,521,o),
(100,465,o),
(100,381,cs),
(100,379,o),
(97,418,o),
(102,355,c),
(151,355,l),
(151,371,ls),
(151,438,o),
(201,475,o),
(290,475,cs),
(387,475,o),
(423,444,o),
(423,360,cs),
(423,296,l),
(168,296,o),
(82,251,o),
(82,133,cs),
(82,42,o),
(137,-10,o),
(243,-10,cs)
);
},
{
closed = 1;
nodes = (
(169,36,o),
(133,68,o),
(133,132,cs),
(133,224,o),
(199,250,o),
(423,250,c),
(423,226,ls),
(423,120,o),
(371,36,o),
(253,36,cs)
);
}
);
userData = {
assembly = "NPUSHB[ ]	/* 68 values pushed */
9 3 2 0 8 4 1 1 0 2 74 0 5 4 3 4 5 3 126 0 3 9 1 8 0 3 8 103 0 4 4 6 95 0 6 6 28 75 7 1 0 0 1 95 2 1 1 1 26 1 76 38 38 38 49 38 49 41 36 19 35 21 36 35 32 10 7 28 
CALL[ ]	/* CallFunction */";
};
width = 600;
},
{
anchors = (
{
name = bottom;
pos = (300,0);
},
{
name = ogonek;
pos = (624,0);
},
{
name = top;
pos = (290,511);
}
);
background = {
shapes = (
{
closed = 1;
nodes = (
(294,-10,o),
(334,14,o),
(363,47,c),
(373,13,o),
(393,-10,o),
(480,-10,cs),
(519,-10,o),
(558,-2,o),
(579,10,c),
(579,117,l),
(573,114,o),
(567,112,o),
(559,112,cs),
(545,112,o),
(539,121,o),
(539,139,cs),
(539,349,ls),
(539,463,o),
(452,521,o),
(295,521,cs),
(145,521,o),
(51,462,o),
(51,368,cs),
(51,358,o),
(51,356,o),
(52,354,c),
(231,354,l),
(231,358,ls),
(231,385,o),
(253,404,o),
(286,404,cs),
(322,404,o),
(341,382,o),
(341,355,cs),
(341,316,l),
(131,316,o),
(36,263,o),
(36,143,cs),
(36,37,o),
(104,-10,o),
(208,-10,cs)
);
},
{
closed = 1;
nodes = (
(249,111,o),
(233,128,o),
(233,159,cs),
(233,203,o),
(269,225,o),
(341,225,c),
(341,181,ls),
(341,140,o),
(315,111,o),
(280,111,cs)
);
}
);
};
layerId = "2883A7C2-0A22-4F0A-A898-75B9BDC585A4";
shapes = (
{
closed = 1;
nodes = (
(287,-10,o),
(334,24,o),
(363,57,c),
(373,17,o),
(393,-10,o),
(480,-10,cs),
(519,-10,o),
(558,-2,o),
(579,10,c),
(579,117,l),
(573,114,o),
(567,112,o),
(559,112,cs),
(545,112,o),
(539,121,o),
(539,139,cs),
(539,349,ls),
(539,463,o),
(452,521,o),
(295,521,cs),
(145,521,o),
(51,462,o),
(51,368,cs),
(51,358,o),
(51,356,o),
(52,354,c),
(231,354,l),
(231,358,ls),
(231,385,o),
(253,404,o),
(286,404,cs),
(322,404,o),
(341,382,o),
(341,355,cs),
(341,316,l),
(131,316,o),
(36,260,o),
(36,140,cs),
(36,39,o),
(104,-10,o),
(208,-10,cs)
);
},
{
closed = 1;
nodes = (
(249,111,o),
(233,128,o),
(233,159,cs),
(233,203,o),
(269,225,o),
(341,225,c),
(341,181,ls),
(341,140,o),
(315,111,o),
(280,111,cs)
);
}
);
userData = {
assembly = "NPUSHB[ ]	/* 15 values pushed */
35 1 5 4 8 1 0 8 14 9 2 1 0 3 74 
MPPEM[ ]	/* MeasurePixelPerEm */
PUSHB[ ]	/* 1 value pushed */
26 
LT[ ]	/* LessThan */
IF[ ]	/* If */
NPUSHB[ ]	/* 40 values pushed */
0 5 4 3 4 5 112 0 3 10 1 8 0 3 8 103 0 4 4 6 95 9 1 6 6 28 75 7 1 0 0 1 95 2 1 1 1 26 1 76 
ELSE[ ]	/* Else */
NPUSHB[ ]	/* 41 values pushed */
0 5 4 3 4 5 3 126 0 3 10 1 8 0 3 8 103 0 4 4 6 95 9 1 6 6 28 75 7 1 0 0 1 95 2 1 1 1 26 1 76 
EIF[ ]	/* EndIf */
NPUSHB[ ]	/* 23 values pushed */
41 41 0 0 41 49 41 49 46 44 0 40 0 38 34 35 21 36 35 37 11 7 26 
CALL[ ]	/* CallFunction */";
};
width = 600;
},
{
associatedMasterId = "1B515DD0-5446-4609-BD2C-839EAA0AE6A8";
layerId = "26F5AAB6-2055-4371-9743-1825ED82AB6B";
width = 600;
},
{
anchors = (
{
name = bottom;
pos = (291,0);
},
{
name = ogonek;
pos = (617,0);
},
{
name = top;
pos = (291,511);
}
);
layerId = "A193C231-D910-4739-84D4-C6814F8A1DBE";
shapes = (
{
closed = 1;
nodes = (
(301,-10,o),
(363,11,o),
(397,69,c),
(403,9,o),
(426,-10,o),
(491,-10,cs),
(520,-10,o),
(549,-3,o),
(567,9,c),
(567,81,l),
(556,73,o),
(544,70,o),
(531,70,cs),
(513,70,o),
(503,78,o),
(503,100,cs),
(503,361,ls),
(503,468,o),
(431,521,o),
(292,521,cs),
(162,521,o),
(78,464,o),
(78,375,cs),
(78,370,o),
(77,390,o),
(80,355,c),
(187,355,l),
(187,365,ls),
(187,414,o),
(224,443,o),
(288,443,cs),
(358,443,o),
(387,416,o),
(387,358,cs),
(387,305,l),
(152,305,o),
(62,256,o),
(62,137,cs),
(62,40,o),
(122,-10,o),
(227,-10,cs)
);
},
{
closed = 1;
nodes = (
(205,69,o),
(177,95,o),
(177,144,cs),
(177,215,o),
(230,239,o),
(387,239,c),
(387,206,ls),
(387,129,o),
(346,69,o),
(265,69,cs)
);
}
);
userData = {
assembly = "NPUSHB[ ]	/* 68 values pushed */
9 3 2 0 8 4 1 1 0 2 74 0 5 4 3 4 5 3 126 0 3 9 1 8 0 3 8 103 0 4 4 6 95 0 6 6 28 75 7 1 0 0 1 95 2 1 1 1 26 1 76 38 38 38 49 38 49 41 36 19 35 21 36 35 32 10 7 28 
CALL[ ]	/* CallFunction */";
};
width = 600;
}
);
note = a;
unicode = 97;
},
{
color = 1;
glyphname = abreveacute;
layers = (
{
background = {
shapes = (
{
closed = 1;
nodes = (
(301,-10,o),
(364,19,o),
(406,89,c),
(406,34,o),
(419,-10,o),
(470,-10,cs),
(494,-10,o),
(516,-3,o),
(534,9,c),
(534,52,l),
(519,43,o),
(499,36,o),
(484,36,cs),
(469,36,o),
(457,45,o),
(457,69,cs),
(457,370,ls),
(457,472,o),
(397,521,o),
(277,521,cs),
(273,521,ls),
(163,521,o),
(76,471,o),
(76,381,cs),
(76,372,o),
(77,363,o),
(78,355,c),
(127,355,l),
(127,371,ls),
(127,446,o),
(191,475,o),
(273,475,cs),
(368,475,o),
(406,447,o),
(406,360,cs),
(406,296,l),
(204,296,o),
(58,282,o),
(58,133,cs),
(58,20,o),
(137,-10,o),
(219,-10,cs)
);
},
{
closed = 1;
nodes = (
(144,36,o),
(109,66,o),
(109,132,cs),
(109,243,o),
(226,250,o),
(406,250,c),
(406,216,ls),
(406,92,o),
(315,36,o),
(229,36,cs)
);
},
{
closed = 1;
nodes = (
(390,613,o),
(469,675,o),
(469,737,c),
(413,737,l),
(396,682,o),
(341,662,o),
(276,662,cs),
(211,662,o),
(156,682,o),
(140,737,c),
(84,737,l),
(84,675,o),
(161,613,o),
(275,613,cs)
);
},
{
closed = 1;
nodes = (
(284,737,l),
(395,879,l),
(395,882,l),
(330,882,l),
(234,737,l)
);
}
);
};
layerId = "1B515DD0-5446-4609-BD2C-839EAA0AE6A8";
shapes = (
{
ref = a;
},
{
pos = (-9,0);
ref = brevecomb_acutecomb;
}
);
width = 600;
},
{
background = {
shapes = (
{
closed = 1;
nodes = (
(286,-10,o),
(334,31,o),
(369,71,c),
(380,23,o),
(427,-10,o),
(516,-10,cs),
(568,-10,o),
(599,0,o),
(617,13,c),
(617,120,l),
(606,114,o),
(594,111,o),
(582,111,cs),
(567,111,o),
(551,121,o),
(551,148,cs),
(551,359,ls),
(551,451,o),
(473,521,o),
(312,521,cs),
(279,521,ls),
(131,521,o),
(39,453,o),
(39,368,cs),
(39,362,o),
(39,357,o),
(40,354,c),
(230,354,l),
(230,358,ls),
(230,386,o),
(265,405,o),
(294,405,cs),
(330,405,o),
(359,384,o),
(359,345,cs),
(359,316,l),
(151,316,o),
(24,285,o),
(24,143,cs),
(24,7,o),
(121,-10,o),
(204,-10,cs)
);
},
{
closed = 1;
nodes = (
(260,111,o),
(231,120,o),
(231,159,cs),
(231,198,o),
(267,225,o),
(359,225,c),
(359,181,ls),
(359,138,o),
(327,111,o),
(291,111,cs)
);
},
{
closed = 1;
nodes = (
(408,613,o),
(485,662,o),
(485,742,c),
(390,742,l),
(383,713,o),
(351,699,o),
(292,699,cs),
(234,699,o),
(201,713,o),
(196,742,c),
(100,742,l),
(100,662,o),
(174,613,o),
(291,613,cs)
);
},
{
closed = 1;
nodes = (
(351,742,l),
(477,884,l),
(475,887,l),
(324,887,l),
(233,742,l)
);
}
);
};
layerId = "2883A7C2-0A22-4F0A-A898-75B9BDC585A4";
shapes = (
{
ref = a;
},
{
pos = (-11,0);
ref = brevecomb_acutecomb;
}
);
width = 600;
},
{
associatedMasterId = "1B515DD0-5446-4609-BD2C-839EAA0AE6A8";
layerId = "26F5AAB6-2055-4371-9743-1825ED82AB6B";
width = 600;
},
{
layerId = "A193C231-D910-4739-84D4-C6814F8A1DBE";
shapes = (
{
ref = a;
},
{
pos = (-9,0);
ref = brevecomb_acutecomb;
}
);
width = 600;
}
);
note = uni1EAF;
unicode = 7855;
},
{
color = 1;
glyphname = acircumflex;
layers = (
{
background = {
shapes = (
{
closed = 1;
nodes = (
(314,-10,o),
(377,19,o),
(419,89,c),
(419,34,o),
(432,-10,o),
(483,-10,cs),
(507,-10,o),
(529,-3,o),
(547,9,c),
(547,52,l),
(532,43,o),
(512,36,o),
(497,36,cs),
(482,36,o),
(470,45,o),
(470,69,cs),
(470,370,ls),
(470,472,o),
(410,521,o),
(290,521,cs),
(286,521,ls),
(176,521,o),
(89,471,o),
(89,381,cs),
(89,372,o),
(90,363,o),
(91,355,c),
(140,355,l),
(140,371,ls),
(140,446,o),
(204,475,o),
(286,475,cs),
(381,475,o),
(419,447,o),
(419,360,cs),
(419,296,l),
(217,296,o),
(71,282,o),
(71,133,cs),
(71,20,o),
(150,-10,o),
(232,-10,cs)
);
},
{
closed = 1;
nodes = (
(157,36,o),
(122,66,o),
(122,132,cs),
(122,243,o),
(239,250,o),
(419,250,c),
(419,216,ls),
(419,92,o),
(328,36,o),
(242,36,cs)
);
},
{
closed = 1;
nodes = (
(188,575,l),
(291,672,l),
(394,575,l),
(454,575,l),
(320,720,l),
(262,720,l),
(128,575,l)
);
}
);
};
layerId = "1B515DD0-5446-4609-BD2C-839EAA0AE6A8";
shapes = (
{
ref = a;
},
{
pos = (-9,0);
ref = circumflexcomb;
}
);
width = 600;
},
{
background = {
shapes = (
{
closed = 1;
nodes = (
(286,-10,o),
(334,31,o),
(369,71,c),
(380,23,o),
(427,-10,o),
(516,-10,cs),
(568,-10,o),
(599,0,o),
(617,13,c),
(617,120,l),
(606,114,o),
(594,111,o),
(582,111,cs),
(567,111,o),
(551,121,o),
(551,148,cs),
(551,359,ls),
(551,451,o),
(473,521,o),
(312,521,cs),
(279,521,ls),
(131,521,o),
(39,453,o),
(39,368,cs),
(39,362,o),
(39,357,o),
(40,354,c),
(230,354,l),
(230,358,ls),
(230,386,o),
(265,405,o),
(294,405,cs),
(330,405,o),
(359,384,o),
(359,345,cs),
(359,316,l),
(151,316,o),
(24,285,o),
(24,143,cs),
(24,7,o),
(121,-10,o),
(204,-10,cs)
);
},
{
closed = 1;
nodes = (
(260,111,o),
(231,120,o),
(231,159,cs),
(231,198,o),
(267,225,o),
(359,225,c),
(359,181,ls),
(359,138,o),
(327,111,o),
(291,111,cs)
);
},
{
closed = 1;
nodes = (
(221,575,l),
(295,652,l),
(369,575,l),
(499,575,l),
(360,720,l),
(232,720,l),
(93,575,l)
);
}
);
};
layerId = "2883A7C2-0A22-4F0A-A898-75B9BDC585A4";
shapes = (
{
ref = a;
},
{
pos = (-10,0);
ref = circumflexcomb;
}
);
width = 600;
},
{
associatedMasterId = "1B515DD0-5446-4609-BD2C-839EAA0AE6A8";
layerId = "26F5AAB6-2055-4371-9743-1825ED82AB6B";
width = 600;
},
{
layerId = "A193C231-D910-4739-84D4-C6814F8A1DBE";
shapes = (
{
ref = a;
},
{
pos = (-9,0);
ref = circumflexcomb;
}
);
width = 600;
}
);
note = acircumflex;
unicode = 226;
},
{
color = 1;
glyphname = aogonek;
layers = (
{
background = {
shapes = (
{
closed = 1;
nodes = (
(563,-143,o),
(592,-135,o),
(618,-119,c),
(605,-86,l),
(584,-93,o),
(562,-100,o),
(538,-100,cs),
(517,-100,o),
(494,-91,o),
(494,-60,cs),
(494,-39,o),
(505,-20,o),
(539,-1,c),
(545,2,o),
(552,5,o),
(558,9,c),
(558,52,l),
(543,43,o),
(523,36,o),
(508,36,cs),
(493,36,o),
(481,45,o),
(481,69,cs),
(481,370,ls),
(481,472,o),
(421,521,o),
(301,521,cs),
(297,521,ls),
(187,521,o),
(100,471,o),
(100,381,cs),
(100,372,o),
(101,363,o),
(102,355,c),
(151,355,l),
(151,371,ls),
(151,446,o),
(215,475,o),
(297,475,cs),
(392,475,o),
(430,447,o),
(430,360,cs),
(430,296,l),
(228,296,o),
(82,282,o),
(82,133,cs),
(82,20,o),
(161,-10,o),
(243,-10,cs),
(325,-10,o),
(388,19,o),
(430,89,c),
(430,41,o),
(440,1,o),
(477,-8,c),
(456,-22,o),
(437,-45,o),
(437,-71,cs),
(437,-126,o),
(488,-143,o),
(534,-143,cs)
);
},
{
closed = 1;
nodes = (
(168,36,o),
(133,66,o),
(133,132,cs),
(133,243,o),
(250,250,o),
(430,250,c),
(430,216,ls),
(430,92,o),
(339,36,o),
(253,36,cs)
);
}
);
};
layerId = "1B515DD0-5446-4609-BD2C-839EAA0AE6A8";
shapes = (
{
ref = a;
},
{
pos = (232,0);
ref = ogonekcomb;
}
);
width = 600;
},
{
background = {
shapes = (
{
closed = 1;
nodes = (
(562,-143,o),
(597,-135,o),
(629,-119,c),
(616,-76,l),
(595,-84,o),
(572,-90,o),
(549,-90,cs),
(528,-90,o),
(505,-83,o),
(505,-56,cs),
(505,-29,o),
(532,-13,o),
(551,-1,c),
(563,3,o),
(572,8,o),
(579,13,c),
(579,120,l),
(568,114,o),
(556,111,o),
(544,111,cs),
(529,111,o),
(513,121,o),
(513,148,cs),
(513,359,ls),
(513,451,o),
(435,521,o),
(274,521,cs),
(241,521,ls),
(93,521,o),
(1,453,o),
(1,368,cs),
(1,362,o),
(1,357,o),
(2,354,c),
(192,354,l),
(192,358,ls),
(192,386,o),
(227,405,o),
(256,405,cs),
(292,405,o),
(321,384,o),
(321,345,cs),
(321,316,l),
(113,316,o),
(-14,285,o),
(-14,143,cs),
(-14,7,o),
(83,-10,o),
(166,-10,cs),
(248,-10,o),
(296,31,o),
(331,71,c),
(341,27,o),
(381,-4,o),
(457,-9,c),
(441,-24,o),
(428,-45,o),
(428,-71,cs),
(428,-126,o),
(479,-143,o),
(525,-143,cs)
);
},
{
closed = 1;
nodes = (
(222,111,o),
(193,120,o),
(193,159,cs),
(193,198,o),
(229,225,o),
(321,225,c),
(321,181,ls),
(321,138,o),
(289,111,o),
(253,111,cs)
);
}
);
};
layerId = "2883A7C2-0A22-4F0A-A898-75B9BDC585A4";
shapes = (
{
ref = a;
},
{
pos = (205,0);
ref = ogonekcomb;
}
);
width = 600;
},
{
associatedMasterId = "1B515DD0-5446-4609-BD2C-839EAA0AE6A8";
layerId = "26F5AAB6-2055-4371-9743-1825ED82AB6B";
width = 600;
},
{
layerId = "A193C231-D910-4739-84D4-C6814F8A1DBE";
shapes = (
{
ref = a;
},
{
pos = (221,0);
ref = ogonekcomb;
}
);
width = 600;
}
);
note = aogonek;
unicode = 261;
},
{
color = 4;
glyphname = ae;
layers = (
{
anchors = (
{
name = bottom;
pos = (300,0);
},
{
name = top;
pos = (300,511);
}
);
hints = (
{
horizontal = 1;
origin = (0,50);
target = (1,9);
type = Stem;
},
{
horizontal = 1;
origin = (1,5);
target = (0,44);
type = Stem;
},
{
horizontal = 1;
origin = (0,29);
target = (0,40);
type = Stem;
},
{
origin = (0,47);
target = (1,2);
type = Stem;
},
{
origin = (1,6);
target = (0,16);
type = Stem;
},
{
origin = (0,10);
target = (0,9);
type = Stem;
},
{
origin = (0,32);
target = (0,36);
type = Stem;
},
{
origin = (1,6);
target = (2,6);
type = Stem;
}
);
layerId = "1B515DD0-5446-4609-BD2C-839EAA0AE6A8";
shapes = (
{
closed = 1;
nodes = (
(214,-10,o),
(270,27,o),
(297,101,c),
(317,28,o),
(369,-10,o),
(431,-10,cs),
(436,-10,ls),
(531,-10,o),
(580,57,o),
(580,189,c),
(530,189,l),
(530,88,o),
(497,36,o),
(432,36,cs),
(364,36,o),
(329,108,o),
(329,250,c),
(580,250,l),
(580,296,ls),
(580,437,o),
(526,521,o),
(434,521,cs),
(430,521,ls),
(374,521,o),
(328,487,o),
(307,430,c),
(293,479,o),
(248,521,o),
(179,521,cs),
(175,521,ls),
(99,521,o),
(38,471,o),
(38,381,cs),
(38,372,o),
(39,363,o),
(40,355,c),
(89,355,l),
(89,371,ls),
(89,446,o),
(127,475,o),
(175,475,cs),
(243,475,o),
(278,425,o),
(278,330,cs),
(278,296,l),
(107,296,o),
(20,248,o),
(20,123,cs),
(20,18,o),
(90,-10,o),
(144,-10,cs)
);
},
{
closed = 1;
nodes = (
(104,36,o),
(71,63,o),
(71,122,cs),
(71,226,o),
(140,250,o),
(278,250,c),
(278,216,ls),
(278,112,o),
(226,36,o),
(148,36,cs)
);
},
{
closed = 1;
nodes = (
(335,415,o),
(369,475,o),
(431,475,cs),
(493,475,o),
(530,409,o),
(530,296,c),
(330,296,l)
);
}
);
width = 600;
},
{
anchors = (
{
name = bottom;
pos = (300,0);
},
{
name = top;
pos = (300,511);
}
);
hints = (
{
horizontal = 1;
origin = (0,50);
target = (1,9);
type = Stem;
},
{
horizontal = 1;
origin = (0,16);
target = (0,44);
type = Stem;
},
{
horizontal = 1;
origin = (0,29);
target = (0,35);
type = Stem;
},
{
horizontal = 1;
origin = (0,29);
target = (2,2);
type = Stem;
},
{
horizontal = 1;
origin = (1,5);
target = (0,44);
type = Stem;
},
{
origin = (0,47);
target = (1,2);
type = Stem;
},
{
origin = (1,6);
target = (0,16);
type = Stem;
},
{
origin = (2,5);
target = (0,17);
type = Stem;
},
{
origin = (0,10);
target = (0,9);
type = Stem;
},
{
origin = (0,10);
target = (0,17);
type = Stem;
},
{
origin = (0,32);
target = (0,36);
type = Stem;
}
);
layerId = "2883A7C2-0A22-4F0A-A898-75B9BDC585A4";
shapes = (
{
closed = 1;
nodes = (
(207,-10,o),
(255,13,o),
(288,58,c),
(318,15,o),
(365,-10,o),
(414,-10,cs),
(429,-10,ls),
(536,-10,o),
(595,79,o),
(595,192,c),
(472,192,l),
(472,143,o),
(459,111,o),
(432,111,cs),
(390,111,o),
(383,156,o),
(383,229,c),
(596,229,l),
(596,291,ls),
(596,424,o),
(538,521,o),
(439,521,cs),
(424,521,ls),
(382,521,o),
(340,497,o),
(313,457,c),
(284,497,o),
(239,521,o),
(188,521,cs),
(175,521,ls),
(77,521,o),
(19,453,o),
(19,368,cs),
(19,362,o),
(19,357,o),
(20,354,c),
(140,354,l),
(140,358,ls),
(140,386,o),
(154,405,o),
(179,405,cs),
(205,405,o),
(219,384,o),
(219,345,cs),
(219,316,l),
(114,316,o),
(4,285,o),
(4,143,cs),
(4,47,o),
(57,-10,o),
(148,-10,cs)
);
},
{
closed = 1;
nodes = (
(160,111,o),
(141,120,o),
(141,155,cs),
(141,198,o),
(162,225,o),
(219,225,c),
(219,181,ls),
(219,138,o),
(210,111,o),
(178,111,cs)
);
},
{
closed = 1;
nodes = (
(383,382,o),
(393,405,o),
(422,405,cs),
(452,405,o),
(462,382,o),
(462,316,c),
(383,316,l)
);
}
);
width = 600;
},
{
associatedMasterId = "1B515DD0-5446-4609-BD2C-839EAA0AE6A8";
layerId = "26F5AAB6-2055-4371-9743-1825ED82AB6B";
width = 600;
},
{
anchors = (
{
name = bottom;
pos = (300,0);
},
{
name = top;
pos = (300,511);
}
);
hints = (
{
horizontal = 1;
origin = (0,50);
target = (1,9);
type = Stem;
},
{
horizontal = 1;
origin = (1,5);
target = (0,44);
type = Stem;
},
{
horizontal = 1;
origin = (0,29);
target = (0,40);
type = Stem;
},
{
origin = (0,47);
target = (1,2);
type = Stem;
},
{
origin = (1,6);
target = (0,16);
type = Stem;
},
{
origin = (0,10);
target = (0,9);
type = Stem;
},
{
origin = (0,32);
target = (0,36);
type = Stem;
},
{
origin = (1,6);
target = (2,6);
type = Stem;
}
);
layerId = "A193C231-D910-4739-84D4-C6814F8A1DBE";
shapes = (
{
closed = 1;
nodes = (
(211,-10,o),
(263,21,o),
(293,82,c),
(317,22,o),
(367,-10,o),
(423,-10,cs),
(433,-10,ls),
(533,-10,o),
(587,67,o),
(587,190,c),
(504,190,l),
(504,112,o),
(480,69,o),
(432,69,cs),
(376,69,o),
(353,129,o),
(353,241,c),
(587,241,l),
(587,294,ls),
(587,431,o),
(531,521,o),
(436,521,cs),
(427,521,ls),
(378,521,o),
(333,491,o),
(310,442,c),
(289,487,o),
(244,521,o),
(183,521,cs),
(175,521,ls),
(89,521,o),
(30,463,o),
(30,375,cs),
(30,368,o),
(30,360,o),
(31,355,c),
(112,355,l),
(112,365,ls),
(112,419,o),
(139,444,o),
(177,444,cs),
(226,444,o),
(252,407,o),
(252,337,cs),
(252,305,l),
(110,305,o),
(13,264,o),
(13,132,cs),
(13,31,o),
(75,-10,o),
(146,-10,cs)
);
},
{
closed = 1;
nodes = (
(129,69,o),
(102,88,o),
(102,137,cs),
(102,214,o),
(150,239,o),
(252,239,c),
(252,200,ls),
(252,124,o),
(219,69,o),
(161,69,cs)
);
},
{
closed = 1;
nodes = (
(356,400,o),
(380,444,o),
(427,444,cs),
(475,444,o),
(500,397,o),
(500,305,c),
(354,305,l)
);
}
);
width = 600;
}
);
note = ae;
unicode = 230;
},
